<svg width="60" height="67" viewBox="0 0 60 67" fill="none" xmlns="http://www.w3.org/2000/svg">
<path d="M31.1667 52C28.9444 54.2223 26.25 55.3334 23.0833 55.3334C19.9167 55.3334 17.2222 54.2223 15 52C12.7778 49.7778 11.6667 47.0973 11.6667 43.9584C11.6667 40.8195 12.7778 38.1389 15 35.9167L28.8333 22C31.0556 19.7778 33.75 18.6667 36.9167 18.6667C40.0833 18.6667 42.7778 19.7778 45 22C47.2222 24.2223 48.3333 26.9028 48.3333 30.0417C48.3333 33.1806 47.2222 35.8611 45 38.0834L31.1667 52ZM19.6667 47.25C20.9444 48.5278 22.2639 48.9862 23.625 48.625C24.9861 48.2639 25.9167 47.8334 26.4167 47.3334L31 42.6667L24.3333 36L19.6667 40.5834C18.7222 41.5278 18.25 42.6389 18.25 43.9167C18.25 45.1945 18.7222 46.3056 19.6667 47.25ZM40.3333 26.75C39.0556 25.4723 37.7361 25.0139 36.375 25.375C35.0139 25.7362 34.0833 26.1667 33.5833 26.6667L29 31.3334L35.6667 38L40.3333 33.4167C41.2778 32.4723 41.75 31.3612 41.75 30.0834C41.75 28.8056 41.2778 27.6945 40.3333 26.75ZM6.66667 67C4.83333 67 3.26389 66.3473 1.95833 65.0417C0.652778 63.7362 0 62.1667 0 60.3334V13.6667C0 11.8334 0.652778 10.2639 1.95833 8.95837C3.26389 7.65282 4.83333 7.00004 6.66667 7.00004H20.6667C21.3889 5.00004 22.5972 3.38893 24.2917 2.16671C25.9861 0.944485 27.8889 0.333374 30 0.333374C32.1111 0.333374 34.0139 0.944485 35.7083 2.16671C37.4028 3.38893 38.6111 5.00004 39.3333 7.00004H53.3333C55.1667 7.00004 56.7361 7.65282 58.0417 8.95837C59.3472 10.2639 60 11.8334 60 13.6667V60.3334C60 62.1667 59.3472 63.7362 58.0417 65.0417C56.7361 66.3473 55.1667 67 53.3333 67H6.66667ZM6.66667 60.3334H53.3333V13.6667H6.66667V60.3334ZM30 11.1667C30.7222 11.1667 31.3194 10.9306 31.7917 10.4584C32.2639 9.98615 32.5 9.38893 32.5 8.66671C32.5 7.94448 32.2639 7.34726 31.7917 6.87504C31.3194 6.40282 30.7222 6.16671 30 6.16671C29.2778 6.16671 28.6806 6.40282 28.2083 6.87504C27.7361 7.34726 27.5 7.94448 27.5 8.66671C27.5 9.38893 27.7361 9.98615 28.2083 10.4584C28.6806 10.9306 29.2778 11.1667 30 11.1667Z" fill="#870064"/>
</svg>
