<svg width="71" height="62" viewBox="0 0 71 62" fill="none" xmlns="http://www.w3.org/2000/svg">
<path d="M0.667969 17V7.00004C0.667969 5.16671 1.32075 3.59726 2.6263 2.29171C3.93186 0.986152 5.5013 0.333374 7.33464 0.333374H60.668C62.5013 0.333374 64.0707 0.986152 65.3763 2.29171C66.6819 3.59726 67.3346 5.16671 67.3346 7.00004V27H60.668V7.00004H7.33464V17H0.667969ZM7.33464 53.6667C5.5013 53.6667 3.93186 53.0139 2.6263 51.7084C1.32075 50.4028 0.667969 48.8334 0.667969 47V37H7.33464V47H30.668V53.6667H7.33464ZM54.0013 62L48.918 57.6667C44.0291 53.5 40.8763 50.4862 39.4596 48.625C38.043 46.7639 37.3346 44.8334 37.3346 42.8334C37.3346 40.3334 38.2235 38.1806 40.0013 36.375C41.7791 34.5695 43.9457 33.6667 46.5013 33.6667C47.9457 33.6667 49.3207 34 50.6263 34.6667C51.9319 35.3334 53.0569 36.3056 54.0013 37.5834C54.8902 36.3056 55.9874 35.3334 57.293 34.6667C58.5985 34 60.0013 33.6667 61.5013 33.6667C64.0013 33.6667 66.1541 34.5695 67.9596 36.375C69.7652 38.1806 70.668 40.3334 70.668 42.8334C70.668 44.8334 69.9457 46.7639 68.5013 48.625C67.0569 50.4862 63.8902 53.5 59.0013 57.6667L54.0013 62ZM54.0013 53.1667L56.3346 51.25C59.4457 48.5834 61.5013 46.7084 62.5013 45.625C63.5013 44.5417 64.0013 43.6112 64.0013 42.8334C64.0013 42.1667 63.7513 41.5834 63.2513 41.0834C62.7513 40.5834 62.168 40.3334 61.5013 40.3334C61.0569 40.3334 60.6541 40.4306 60.293 40.625C59.9319 40.8195 59.5013 41.1389 59.0013 41.5834L54.0013 46.3334L48.918 41.5834C48.418 41.1389 47.9874 40.8195 47.6263 40.625C47.2652 40.4306 46.8902 40.3334 46.5013 40.3334C45.7791 40.3334 45.1819 40.5834 44.7096 41.0834C44.2374 41.5834 44.0013 42.1667 44.0013 42.8334C44.0013 43.6112 44.4874 44.5417 45.4596 45.625C46.4319 46.7084 48.4735 48.5834 51.5846 51.25L54.0013 53.1667ZM17.3346 43.6667C16.668 43.6667 16.0707 43.5139 15.543 43.2084C15.0152 42.9028 14.6124 42.4445 14.3346 41.8334L8.58464 30.3334H0.667969V23.6667H10.668C11.2791 23.6667 11.8485 23.8334 12.3763 24.1667C12.9041 24.5 13.3069 24.9445 13.5846 25.5L17.3346 32.9167L27.668 12.1667C27.9457 11.6112 28.3624 11.1945 28.918 10.9167C29.4735 10.6389 30.0569 10.5 30.668 10.5C31.2791 10.5 31.8624 10.6389 32.418 10.9167C32.9735 11.1945 33.3902 11.6112 33.668 12.1667L39.3346 23.6667H50.668V30.3334H37.3346C36.668 30.3334 36.0707 30.1806 35.543 29.875C35.0152 29.5695 34.6124 29.1112 34.3346 28.5L30.668 21.1667L20.2513 41.8334C19.9735 42.4445 19.5707 42.9028 19.043 43.2084C18.5152 43.5139 17.9457 43.6667 17.3346 43.6667Z" fill="#870064"/>
</svg>
