<svg width="71" height="68" viewBox="0 0 71 68" fill="none" xmlns="http://www.w3.org/2000/svg">
<path d="M18.6654 67.3333C15.4431 67.3333 12.6931 66.1944 10.4154 63.9166C8.13759 61.6388 6.9987 58.8888 6.9987 55.6666V29.25C5.4987 27.8055 4.01259 26.3472 2.54036 24.875C1.06814 23.4027 0.332031 21.6111 0.332031 19.5C0.332031 18 0.873698 16.7083 1.95703 15.625C3.04036 14.5416 4.33203 14 5.83203 14C6.72092 14 7.54036 14.1944 8.29036 14.5833C9.04036 14.9722 9.72092 15.4722 10.332 16.0833C10.9431 15.4722 11.6237 14.9722 12.3737 14.5833C13.1237 14.1944 13.9431 14 14.832 14C16.332 14 17.6237 14.5416 18.707 15.625C19.7904 16.7083 20.332 18 20.332 19.5C20.332 21.6111 19.5959 23.4027 18.1237 24.875C16.6515 26.3472 15.1654 27.8055 13.6654 29.25V55.6666C13.6654 57.0555 14.1515 58.2361 15.1237 59.2083C16.0959 60.1805 17.2765 60.6666 18.6654 60.6666C20.0543 60.6666 21.2348 60.1805 22.207 59.2083C23.1793 58.2361 23.6654 57.0555 23.6654 55.6666V17.3333C23.6654 12.7222 25.2904 8.79163 28.5404 5.54163C31.7904 2.29163 35.7209 0.666626 40.332 0.666626C44.9431 0.666626 48.8737 2.29163 52.1237 5.54163C55.3737 8.79163 56.9987 12.7222 56.9987 17.3333V17.6666C60.832 18.4444 64.0126 20.3472 66.5404 23.375C69.0681 26.4027 70.332 29.9444 70.332 34V50.6666C70.332 55.2777 68.707 59.2083 65.457 62.4583C62.207 65.7083 58.2765 67.3333 53.6654 67.3333C49.0543 67.3333 45.1237 65.7083 41.8737 62.4583C38.6237 59.2083 36.9987 55.2777 36.9987 50.6666V34C36.9987 29.9444 38.2626 26.4027 40.7904 23.375C43.3181 20.3472 46.4987 18.4444 50.332 17.6666V17.3333C50.332 14.5555 49.3598 12.1944 47.4154 10.25C45.4709 8.30551 43.1098 7.33329 40.332 7.33329C37.5543 7.33329 35.1931 8.30551 33.2487 10.25C31.3043 12.1944 30.332 14.5555 30.332 17.3333V55.6666C30.332 58.8888 29.1931 61.6388 26.9154 63.9166C24.6376 66.1944 21.8876 67.3333 18.6654 67.3333ZM53.6654 60.6666C56.4431 60.6666 58.8043 59.6944 60.7487 57.75C62.6931 55.8055 63.6654 53.4444 63.6654 50.6666V34C63.6654 31.2222 62.6931 28.8611 60.7487 26.9166C58.8043 24.9722 56.4431 24 53.6654 24C50.8876 24 48.5265 24.9722 46.582 26.9166C44.6376 28.8611 43.6654 31.2222 43.6654 34V50.6666C43.6654 53.4444 44.6376 55.8055 46.582 57.75C48.5265 59.6944 50.8876 60.6666 53.6654 60.6666ZM53.6654 44C51.832 44 50.2626 44.6527 48.957 45.9583C47.6515 47.2638 46.9987 48.8333 46.9987 50.6666C46.9987 52.5 47.6515 54.0694 48.957 55.375C50.2626 56.6805 51.832 57.3333 53.6654 57.3333C55.4987 57.3333 57.0681 56.6805 58.3737 55.375C59.6793 54.0694 60.332 52.5 60.332 50.6666C60.332 48.8333 59.6793 47.2638 58.3737 45.9583C57.0681 44.6527 55.4987 44 53.6654 44Z" fill="#870064"/>
</svg>
