<svg width="50" height="50" viewBox="0 0 50 50" fill="none" xmlns="http://www.w3.org/2000/svg">
<path d="M22.2915 26.5104L20.5207 23.8542C20.3471 23.5764 20.104 23.3507 19.7915 23.1771C19.479 23.0035 19.1492 22.9167 18.802 22.9167H6.4582C6.07626 22.9167 5.72904 22.8042 5.41654 22.5792C5.10404 22.3542 4.87834 22.05 4.73945 21.6667C4.53112 21.0069 4.3832 20.3563 4.2957 19.7146C4.2082 19.0729 4.16515 18.4042 4.16654 17.7083C4.16654 14.4444 5.26029 11.7187 7.44779 9.53125C9.63529 7.34375 12.361 6.25 15.6249 6.25C17.4304 6.25 19.1492 6.63194 20.7811 7.39583C22.4131 8.15972 23.8193 9.23611 24.9999 10.625C26.1804 9.23611 27.5867 8.15972 29.2186 7.39583C30.8506 6.63194 32.5693 6.25 34.3749 6.25C37.6388 6.25 40.3644 7.34375 42.5519 9.53125C44.7394 11.7187 45.8332 14.4444 45.8332 17.7083C45.8332 18.4028 45.7901 19.0715 45.704 19.7146C45.6179 20.3576 45.47 21.0083 45.2603 21.6667C45.1561 22.0486 44.9395 22.3528 44.6103 22.5792C44.2811 22.8056 43.9249 22.9181 43.5415 22.9167H32.4478L28.854 17.6042C28.6457 17.2917 28.377 17.0576 28.0478 16.9021C27.7186 16.7465 27.3624 16.6681 26.979 16.6667C26.5276 16.6667 26.1374 16.7972 25.8082 17.0583C25.479 17.3194 25.2443 17.6576 25.104 18.0729L22.2915 26.5104ZM24.9999 43.0729C24.5138 43.0729 24.0276 42.9861 23.5415 42.8125C23.0554 42.6389 22.6214 42.3611 22.2395 41.9792C18.9756 39.0625 16.2151 36.5021 13.9582 34.2979C11.7013 32.0937 9.87834 30.1056 8.48945 28.3333C8.28112 28.0556 8.25473 27.7778 8.41029 27.5C8.56584 27.2222 8.80056 27.0833 9.11445 27.0833H17.552L21.1457 32.3958C21.354 32.7083 21.6235 32.9431 21.954 33.1C22.2846 33.2569 22.6401 33.3347 23.0207 33.3333C23.4721 33.3333 23.8631 33.2035 24.1936 32.9437C24.5242 32.684 24.7582 32.3451 24.8957 31.9271L27.7082 23.4375L29.5311 26.1458C29.7047 26.4236 29.9478 26.6493 30.2603 26.8229C30.5728 26.9965 30.9026 27.0833 31.2499 27.0833H40.8853C41.1978 27.0833 41.4325 27.2222 41.5894 27.5C41.7464 27.7778 41.72 28.0556 41.5103 28.3333C40.1214 30.1042 38.2985 32.0924 36.0415 34.2979C33.7846 36.5035 31.0242 39.0639 27.7603 41.9792C27.3783 42.3611 26.9443 42.6389 26.4582 42.8125C25.9721 42.9861 25.486 43.0729 24.9999 43.0729Z" fill="white"/>
</svg>
