<svg width="50" height="50" viewBox="0 0 50 50" fill="none" xmlns="http://www.w3.org/2000/svg">
<mask id="mask0_36_1490" style="mask-type:alpha" maskUnits="userSpaceOnUse" x="0" y="0" width="50" height="50">
<rect width="50" height="50" fill="#D9D9D9"/>
</mask>
<g mask="url(#mask0_36_1490)">
<path d="M18.7498 35.5833V21H37.4998C39.7915 21 41.7533 21.816 43.3853 23.4479C45.0172 25.0799 45.8332 27.0417 45.8332 29.3333V35.5833H18.7498ZM4.1665 41.8333V37.6667H45.8332V41.8333H4.1665ZM10.4165 35.5833C8.68039 35.5833 7.2047 34.9757 5.98942 33.7604C4.77414 32.5451 4.1665 31.0694 4.1665 29.3333C4.1665 27.5972 4.77414 26.1215 5.98942 24.9062C7.2047 23.691 8.68039 23.0833 10.4165 23.0833C12.1526 23.0833 13.6283 23.691 14.8436 24.9062C16.0589 26.1215 16.6665 27.5972 16.6665 29.3333C16.6665 31.0694 16.0589 32.5451 14.8436 33.7604C13.6283 34.9757 12.1526 35.5833 10.4165 35.5833Z" fill="white"/>
</g>
<mask id="mask1_36_1490" style="mask-type:alpha" maskUnits="userSpaceOnUse" x="17" y="6" width="16" height="15">
<rect x="17" y="6" width="15.6759" height="14.4701" fill="#D9D9D9"/>
</mask>
<g mask="url(#mask1_36_1490)">
<path d="M22.8781 18.0588C22.6713 18.0588 22.4862 18.0036 22.323 17.893C22.1597 17.7825 22.0399 17.6418 21.9637 17.471L20.4614 13.8384H17.6528V12.6326H21.3759L22.8781 16.3104L25.8827 8.99996C25.9589 8.82913 26.0786 8.68845 26.2419 8.57791C26.4052 8.46738 26.5903 8.41211 26.7971 8.41211C27.004 8.41211 27.189 8.46738 27.3523 8.57791C27.5156 8.68845 27.6354 8.82913 27.7116 8.99996L29.2138 12.6326H32.0224V13.8384H28.2994L26.7971 10.1606L23.7926 17.471C23.7164 17.6418 23.5966 17.7825 23.4333 17.893C23.27 18.0036 23.085 18.0588 22.8781 18.0588Z" fill="white"/>
</g>
</svg>
