<svg width="50" height="52" viewBox="0 0 50 52" fill="none" xmlns="http://www.w3.org/2000/svg">
<g filter="url(#filter0_d_35_1404)">
<path d="M35.1667 6.22363C37.4583 6.22363 39.4201 7.03961 41.0521 8.67155C42.684 10.3035 43.5 12.2653 43.5 14.557C43.5 14.9389 43.474 15.4511 43.4219 16.0934C43.3698 16.7358 43.2917 17.4736 43.1875 18.307L40.3229 39.2965C40.1493 40.616 39.5503 41.6924 38.526 42.5257C37.5017 43.3591 36.3299 43.7757 35.0104 43.7757C34.2118 43.7757 33.474 43.6021 32.7969 43.2549C32.1198 42.9077 31.5556 42.4215 31.1042 41.7965L25.5312 33.6715C25.4618 33.5327 25.349 33.4372 25.1927 33.3851C25.0365 33.333 24.8715 33.307 24.6979 33.307C24.559 33.307 24.2812 33.4632 23.8646 33.7757L18.4479 41.6403C17.9618 42.3347 17.3628 42.8643 16.651 43.2288C15.9392 43.5934 15.184 43.7757 14.3854 43.7757C13.066 43.7757 11.9028 43.3504 10.8958 42.4997C9.88889 41.649 9.29861 40.5639 9.125 39.2445L6.3125 18.307C6.20833 17.4736 6.13021 16.7358 6.07813 16.0934C6.02604 15.4511 6 14.9389 6 14.557C6 12.2653 6.81597 10.3035 8.44792 8.67155C10.0799 7.03961 12.0417 6.22363 14.3333 6.22363C15.5833 6.22363 16.5816 6.38856 17.3281 6.71842C18.0747 7.04829 18.7951 7.40419 19.4896 7.78613C20.184 8.16808 20.9219 8.52398 21.7031 8.85384C22.4844 9.1837 23.5 9.34863 24.75 9.34863C26 9.34863 27.0156 9.1837 27.7969 8.85384C28.5781 8.52398 29.316 8.16808 30.0104 7.78613C30.7049 7.40419 31.434 7.04829 32.1979 6.71842C32.9618 6.38856 33.9514 6.22363 35.1667 6.22363Z" fill="white"/>
</g>
<defs>
<filter id="filter0_d_35_1404" x="-4" y="0" width="58" height="58" filterUnits="userSpaceOnUse" color-interpolation-filters="sRGB">
<feFlood flood-opacity="0" result="BackgroundImageFix"/>
<feColorMatrix in="SourceAlpha" type="matrix" values="0 0 0 0 0 0 0 0 0 0 0 0 0 0 0 0 0 0 127 0" result="hardAlpha"/>
<feOffset dy="4"/>
<feGaussianBlur stdDeviation="2"/>
<feComposite in2="hardAlpha" operator="out"/>
<feColorMatrix type="matrix" values="0 0 0 0 0 0 0 0 0 0 0 0 0 0 0 0 0 0 0.25 0"/>
<feBlend mode="normal" in2="BackgroundImageFix" result="effect1_dropShadow_35_1404"/>
<feBlend mode="normal" in="SourceGraphic" in2="effect1_dropShadow_35_1404" result="shape"/>
</filter>
</defs>
</svg>
