<svg width="50" height="50" viewBox="0 0 50 50" fill="none" xmlns="http://www.w3.org/2000/svg">
<path d="M21.5417 34.2167C21.5417 34.8794 22.0789 35.4167 22.7417 35.4167H26.5917C27.2544 35.4167 27.7917 34.8794 27.7917 34.2167V31.4083C27.7917 30.7456 28.3289 30.2083 28.9917 30.2083H31.8C32.4627 30.2083 33 29.6711 33 29.0083V25.1583C33 24.4956 32.4627 23.9583 31.8 23.9583H28.9917C28.3289 23.9583 27.7917 23.4211 27.7917 22.7583V19.95C27.7917 19.2873 27.2544 18.75 26.5917 18.75H22.7417C22.0789 18.75 21.5417 19.2873 21.5417 19.95V22.7583C21.5417 23.4211 21.0044 23.9583 20.3417 23.9583H17.5333C16.8706 23.9583 16.3333 24.4956 16.3333 25.1583V29.0083C16.3333 29.6711 16.8706 30.2083 17.5333 30.2083H20.3417C21.0044 30.2083 21.5417 30.7456 21.5417 31.4083V34.2167ZM9.2 43.75C8.53726 43.75 8 43.2127 8 42.55V19.35C8 18.9723 8.17783 18.6166 8.48 18.39L23.9467 6.79C24.3733 6.47 24.96 6.47 25.3867 6.79L40.8533 18.39C41.1555 18.6166 41.3333 18.9723 41.3333 19.35V42.55C41.3333 43.2127 40.7961 43.75 40.1333 43.75H9.2ZM12.1667 38.3833C12.1667 39.0461 12.7039 39.5833 13.3667 39.5833H35.9667C36.6294 39.5833 37.1667 39.0461 37.1667 38.3833V21.4333C37.1667 21.0556 36.9888 20.7 36.6867 20.4733L25.3867 11.9983C24.96 11.6783 24.3733 11.6783 23.9467 11.9983L12.6467 20.4733C12.3445 20.7 12.1667 21.0556 12.1667 21.4333V38.3833Z" fill="white"/>
</svg>
