<svg width="50" height="50" viewBox="0 0 50 50" fill="none" xmlns="http://www.w3.org/2000/svg">
<path d="M18.5833 43.5V34.8021C18.2361 34.941 17.8976 35.0365 17.5677 35.0885C17.2378 35.1406 16.8819 35.1667 16.5 35.1667C13.0278 35.1667 10.0764 33.9514 7.64583 31.5208C5.21528 29.0903 4 26.1389 4 22.6667V18.5C4 15.0278 5.21528 12.0764 7.64583 9.64583C10.0764 7.21528 13.0278 6 16.5 6C18.2361 6 19.7118 6.60764 20.9271 7.82292C22.1424 9.03819 22.75 10.5139 22.75 12.25C22.75 13.9861 22.1424 15.4618 20.9271 16.6771C19.7118 17.8924 18.2361 18.5 16.5 18.5V22.6667C18.2361 22.6667 19.7118 23.2743 20.9271 24.4896C22.1424 25.7049 22.75 27.1806 22.75 28.9167V43.5H18.5833ZM26.9167 43.5V28.9167C26.9167 27.1806 27.5243 25.7049 28.7396 24.4896C29.9549 23.2743 31.4306 22.6667 33.1667 22.6667V18.5C31.4306 18.5 29.9549 17.8924 28.7396 16.6771C27.5243 15.4618 26.9167 13.9861 26.9167 12.25C26.9167 10.5139 27.5243 9.03819 28.7396 7.82292C29.9549 6.60764 31.4306 6 33.1667 6C36.6389 6 39.5903 7.21528 42.0208 9.64583C44.4514 12.0764 45.6667 15.0278 45.6667 18.5V22.6667C45.6667 26.1389 44.4514 29.0903 42.0208 31.5208C39.5903 33.9514 36.6389 35.1667 33.1667 35.1667C32.7847 35.1667 32.4288 35.1406 32.099 35.0885C31.7691 35.0365 31.4306 34.941 31.0833 34.8021V43.5H26.9167Z" fill="white"/>
</svg>
