<svg width="50" height="50" viewBox="0 0 50 50" fill="none" xmlns="http://www.w3.org/2000/svg">
<path d="M18.95 45V41.2261C18.1792 41.0708 17.5163 40.7217 16.9613 40.1788C16.4063 39.6358 16.0517 38.96 15.8975 38.1511L15.2963 34.4239C15.1113 33.2746 15.3887 32.2652 16.1287 31.3955C16.8687 30.5258 17.8092 30.0909 18.95 30.0909V27.9011C18.6417 28.0254 18.3407 28.1111 18.0472 28.1583C17.7537 28.2055 17.4379 28.2285 17.1 28.2273C14.0167 28.2273 11.3958 27.1402 9.2375 24.9659C7.07917 22.7917 6 20.1515 6 17.0455V15.1818C6 12.0758 7.07917 9.43561 9.2375 7.26136C11.3958 5.08712 14.0167 4 17.1 4C18.6417 4 19.9521 4.54356 21.0313 5.63068C22.1104 6.7178 22.65 8.03788 22.65 9.59091C22.65 11.1439 22.1104 12.464 21.0313 13.5511C19.9521 14.6383 18.6417 15.1818 17.1 15.1818H13.4V11.4545H17.1C17.6242 11.4545 18.0639 11.2756 18.4191 10.9178C18.7743 10.56 18.9512 10.1177 18.95 9.59091C18.9488 9.06412 18.7712 8.62182 18.4172 8.264C18.0632 7.90618 17.6242 7.72727 17.1 7.72727C15.065 7.72727 13.3229 8.4572 11.8738 9.91705C10.4246 11.3769 9.7 13.1318 9.7 15.1818V17.0455C9.7 19.0955 10.4246 20.8504 11.8738 22.3102C13.3229 23.7701 15.065 24.5 17.1 24.5C17.6242 24.5 18.0639 24.3211 18.4191 23.9633C18.7743 23.6055 18.9512 23.1632 18.95 22.6364C18.9488 22.1096 18.7712 21.6673 18.4172 21.3095C18.0632 20.9516 17.6242 20.7727 17.1 20.7727H13.4V17.0455H17.1C18.6417 17.0455 19.9521 17.589 21.0313 18.6761C22.1104 19.7633 22.65 21.0833 22.65 22.6364V30.0909H26.35V22.6364C26.35 21.0833 26.8896 19.7633 27.9688 18.6761C29.0479 17.589 30.3583 17.0455 31.9 17.0455H35.6V20.7727H31.9C31.3758 20.7727 30.9368 20.9516 30.5828 21.3095C30.2288 21.6673 30.0512 22.1096 30.05 22.6364C30.0488 23.1632 30.2264 23.6061 30.5828 23.9651C30.9392 24.3242 31.3783 24.5025 31.9 24.5C33.935 24.5 35.6771 23.7701 37.1263 22.3102C38.5754 20.8504 39.3 19.0955 39.3 17.0455V15.1818C39.3 13.1318 38.5754 11.3769 37.1263 9.91705C35.6771 8.4572 33.935 7.72727 31.9 7.72727C31.3758 7.72727 30.9368 7.90556 30.5828 8.26214C30.2288 8.61871 30.0512 9.06164 30.05 9.59091C30.0488 10.1202 30.2264 10.5631 30.5828 10.9197C30.9392 11.2763 31.3783 11.4545 31.9 11.4545H35.6V15.1818H31.9C30.3583 15.1818 29.0479 14.6383 27.9688 13.5511C26.8896 12.464 26.35 11.1439 26.35 9.59091C26.35 8.03788 26.8896 6.7178 27.9688 5.63068C29.0479 4.54356 30.3583 4 31.9 4C34.9833 4 37.6042 5.08712 39.7625 7.26136C41.9208 9.43561 43 12.0758 43 15.1818V17.0455C43 20.1515 41.9208 22.7917 39.7625 24.9659C37.6042 27.1402 34.9833 28.2273 31.9 28.2273C31.5608 28.2273 31.2445 28.2037 30.951 28.1565C30.6574 28.1092 30.3571 28.0248 30.05 27.903V30.0909C31.1908 30.0909 32.1312 30.5258 32.8712 31.3955C33.6112 32.2652 33.8888 33.2746 33.7038 34.4239L33.1025 38.1511C32.9483 38.9587 32.5938 39.6346 32.0388 40.1788C31.4838 40.723 30.8208 41.0721 30.05 41.2261V45H26.35V41.2727H22.65V45H18.95Z" fill="white"/>
</svg>
