<svg width="50" height="50" viewBox="0 0 50 50" fill="none" xmlns="http://www.w3.org/2000/svg">
<path d="M18.875 43.4375L17.3646 40.4167C17.0521 39.8264 16.8264 39.2187 16.6875 38.5937C16.5486 37.9687 16.4792 37.3264 16.4792 36.6667C16.4792 35.8681 16.592 35.0781 16.8177 34.2969C17.0434 33.5156 17.3993 32.7778 17.8854 32.0833C18.1632 31.7014 18.3715 31.2934 18.5104 30.8594C18.6493 30.4253 18.7188 29.9653 18.7188 29.4792C18.7188 28.9236 18.6146 28.4028 18.4062 27.9167L17.7812 26.4583C17.434 25.7986 17.1476 25.1215 16.9219 24.4271C16.6962 23.7326 16.5833 23.0208 16.5833 22.2917V14.375C16.5833 13.5069 16.2795 12.7691 15.6719 12.1615C15.0642 11.5538 14.3264 11.25 13.4583 11.25C12.7292 11.25 12.0868 11.4931 11.5313 11.9792C10.9757 12.4653 10.6111 13.0556 10.4375 13.75C11.6181 14.2014 12.5903 14.9566 13.3542 16.0156C14.1181 17.0747 14.5 18.2639 14.5 19.5833C14.5 21.3194 13.8924 22.7951 12.6771 24.0104C11.4618 25.2257 9.98611 25.8333 8.25 25.8333C6.51389 25.8333 5.03819 25.2257 3.82292 24.0104C2.60764 22.7951 2 21.3194 2 19.5833C2 18.1944 2.39931 16.9618 3.19792 15.8854C3.99653 14.809 5.02083 14.0625 6.27083 13.6458C6.44444 11.7708 7.21701 10.2083 8.58854 8.95833C9.96007 7.70833 11.5833 7.08333 13.4583 7.08333C13.7014 7.08333 13.9444 7.09201 14.1875 7.10938C14.4306 7.12674 14.6736 7.17014 14.9167 7.23958C16.4444 6.44097 18.0503 5.86806 19.7344 5.52083C21.4184 5.17361 23.1458 5 24.9167 5C26.6528 5 28.3628 5.17361 30.0469 5.52083C31.7309 5.86806 33.3368 6.44097 34.8646 7.23958C35.1076 7.17014 35.3507 7.12674 35.5937 7.10938C35.8368 7.09201 36.0799 7.08333 36.3229 7.08333C38.2326 7.08333 39.8733 7.70833 41.2448 8.95833C42.6163 10.2083 43.3889 11.7708 43.5625 13.6458C44.8125 14.0625 45.8368 14.809 46.6354 15.8854C47.434 16.9618 47.8333 18.1944 47.8333 19.5833C47.8333 21.3194 47.2257 22.7951 46.0104 24.0104C44.7951 25.2257 43.3194 25.8333 41.5833 25.8333C39.8472 25.8333 38.3715 25.2257 37.1562 24.0104C35.941 22.7951 35.3333 21.3194 35.3333 19.5833C35.3333 18.2639 35.7153 17.0747 36.4792 16.0156C37.2431 14.9566 38.2153 14.2014 39.3958 13.75C39.2222 13.0556 38.8576 12.4653 38.3021 11.9792C37.7465 11.4931 37.0868 11.25 36.3229 11.25C35.4549 11.25 34.7257 11.5538 34.1354 12.1615C33.5451 12.7691 33.25 13.5069 33.25 14.375V22.2917C33.25 23.0208 33.1285 23.7326 32.8854 24.4271C32.6424 25.1215 32.3646 25.7986 32.0521 26.4583C31.809 26.9444 31.592 27.4306 31.401 27.9167C31.2101 28.4028 31.1146 28.9236 31.1146 29.4792C31.1146 29.9653 31.184 30.4253 31.3229 30.8594C31.4618 31.2934 31.6701 31.7014 31.9479 32.0833C32.3993 32.7778 32.7465 33.5156 32.9896 34.2969C33.2326 35.0781 33.3542 35.8681 33.3542 36.6667C33.3542 37.3264 33.276 37.9687 33.1198 38.5937C32.9635 39.2187 32.7465 39.8264 32.4687 40.4167L30.9583 43.4375L27.2083 41.5625L28.7187 38.5417C28.8924 38.2639 29.0139 37.9687 29.0833 37.6562C29.1528 37.3437 29.1875 37.0139 29.1875 36.6667C29.1875 36.25 29.1181 35.8507 28.9792 35.4687C28.8403 35.0868 28.6667 34.7222 28.4583 34.375C27.9722 33.6806 27.599 32.9167 27.3385 32.0833C27.0781 31.25 26.9479 30.3993 26.9479 29.5313C26.9479 28.7326 27.0608 27.9774 27.2865 27.2656C27.5122 26.5538 27.816 25.8507 28.1979 25.1562C28.4062 24.6701 28.6059 24.1927 28.7969 23.724C28.9878 23.2552 29.0833 22.7778 29.0833 22.2917V14.375C29.0833 13.5417 29.2135 12.7517 29.474 12.0052C29.7344 11.2587 30.1076 10.5729 30.5937 9.94792C29.691 9.67014 28.7622 9.47049 27.8073 9.34896C26.8524 9.22743 25.8889 9.16667 24.9167 9.16667C23.9444 9.16667 22.9809 9.22743 22.026 9.34896C21.0712 9.47049 20.1424 9.67014 19.2396 9.94792C19.7257 10.5729 20.099 11.2587 20.3594 12.0052C20.6198 12.7517 20.75 13.5417 20.75 14.375V22.2917C20.75 22.7778 20.8368 23.2639 21.0104 23.75C21.184 24.2361 21.3924 24.7049 21.6354 25.1562C21.9826 25.8507 22.2778 26.5538 22.5208 27.2656C22.7639 27.9774 22.8854 28.7326 22.8854 29.5313C22.8854 30.3993 22.7552 31.2413 22.4948 32.0573C22.2344 32.8733 21.8611 33.6458 21.375 34.375C21.1319 34.7222 20.9497 35.0868 20.8281 35.4687C20.7066 35.8507 20.6458 36.25 20.6458 36.6667C20.6458 37.0139 20.6806 37.3437 20.75 37.6562C20.8194 37.9687 20.941 38.2639 21.1146 38.5417L22.625 41.5625L18.875 43.4375Z" fill="white"/>
</svg>
