<svg width="50" height="50" viewBox="0 0 50 50" fill="none" xmlns="http://www.w3.org/2000/svg">
<path d="M19.2025 44.167C18.2226 40.9714 16.7443 38.589 14.7676 37.0201C11.8025 34.6666 7.09134 36.1293 5.35109 33.7017C3.61084 31.2742 6.57033 26.8099 7.60885 24.1759C8.64737 21.5418 3.6283 20.6104 4.21427 19.8627C4.60493 19.3641 7.14122 17.9256 11.8232 15.547C13.1535 7.96031 18.0673 4.16699 26.5647 4.16699C39.3106 4.16699 44.1665 14.9729 44.1665 21.8459C44.1665 28.7188 38.2866 36.1232 29.9106 37.7197C29.1616 38.8104 30.2419 40.9596 33.1513 44.167" stroke="white" stroke-width="3" stroke-linecap="round" stroke-linejoin="round"/>
<path d="M21.1883 4.75684C20.0004 9.98543 20.0004 14.0537 21.1883 16.9618C22.9703 21.3238 30.8473 20.6536 30.8473 24.7233C30.8473 28.793 26.2576 29.5754 26.87 32.3989C27.2783 34.2812 28.1865 36.7225 29.5944 39.7228" stroke="white" stroke-width="3" stroke-linecap="round"/>
<path d="M17.1665 30.7178C17.4019 30.7178 19.5669 30.5794 21.1254 28.9662C22.1644 27.8907 22.6838 26.6243 22.6838 25.167" stroke="white" stroke-width="3" stroke-linecap="round"/>
</svg>
