<svg width="16" height="21" viewBox="0 0 16 21" fill="none" xmlns="http://www.w3.org/2000/svg">
<path d="M7.99792 20.9761C7.74902 20.9761 7.5357 20.9062 7.35792 20.7666C7.18014 20.6269 7.0468 20.4435 6.95792 20.2166C6.62014 19.2387 6.19347 18.3221 5.67792 17.4666C5.18014 16.611 4.47792 15.607 3.57125 14.4546C2.66458 13.3022 1.9268 12.2023 1.35792 11.1546C0.806805 10.107 0.53125 8.84114 0.53125 7.35702C0.53125 5.31416 1.25125 3.58559 2.69125 2.1713C4.14902 0.739554 5.91792 0.0236816 7.99792 0.0236816C10.0779 0.0236816 11.8379 0.739554 13.2779 2.1713C14.7357 3.58559 15.4646 5.31416 15.4646 7.35702C15.4646 8.9459 15.1535 10.2729 14.5312 11.338C13.9268 12.3856 13.2246 13.4245 12.4246 14.4546C11.4646 15.7118 10.7357 16.7595 10.2379 17.5975C9.75792 18.4181 9.35792 19.2912 9.03792 20.2166C8.94903 20.461 8.8068 20.653 8.61125 20.7927C8.43347 20.915 8.22902 20.9761 7.99792 20.9761ZM7.99792 9.97605C8.74459 9.97605 9.3757 9.72288 9.89125 9.21654C10.4068 8.71019 10.6646 8.09034 10.6646 7.35702C10.6646 6.62368 10.4068 6.00384 9.89125 5.49748C9.3757 4.99114 8.74459 4.73796 7.99792 4.73796C7.25125 4.73796 6.62014 4.99114 6.10458 5.49748C5.58902 6.00384 5.33125 6.62368 5.33125 7.35702C5.33125 8.09034 5.58902 8.71019 6.10458 9.21654C6.62014 9.72288 7.25125 9.97605 7.99792 9.97605Z" fill="#870064"/>
</svg>
