<svg width="80" height="81" viewBox="0 0 80 81" fill="none" xmlns="http://www.w3.org/2000/svg">
<mask id="mask0_275_3131" style="mask-type:alpha" maskUnits="userSpaceOnUse" x="0" y="0" width="80" height="81">
<rect y="0.5" width="80" height="80" fill="#D9D9D9"/>
</mask>
<g mask="url(#mask0_275_3131)">
<path d="M36.6667 13.8333V0.5H43.3333V13.8333H36.6667ZM21.9167 18.5833L11.9167 8.58333L16.6667 3.83333L26.6667 13.8333L21.9167 18.5833ZM13.3333 77.1667C12.3889 77.1667 11.5972 76.8472 10.9583 76.2083C10.3194 75.5694 10 74.7778 10 73.8333V47.1667L17 27.1667C17.3333 26.1667 17.9306 25.3611 18.7917 24.75C19.6528 24.1389 20.6111 23.8333 21.6667 23.8333H30V17.1667H40.9167C39.5833 19.0556 38.5417 21.125 37.7917 23.375C37.0417 25.625 36.6667 28 36.6667 30.5H22.8333L17.9167 43.8333H40.9167C41.8611 45.1667 42.9167 46.4028 44.0833 47.5417C45.25 48.6806 46.5556 49.6667 48 50.5H16.6667V63.8333H63.3333V53.5833C64.5 53.4167 65.6389 53.1667 66.75 52.8333C67.8611 52.5 68.9444 52.0833 70 51.5833V73.8333C70 74.7778 69.6806 75.5694 69.0417 76.2083C68.4028 76.8472 67.6111 77.1667 66.6667 77.1667H63.3333C62.3889 77.1667 61.5972 76.8472 60.9583 76.2083C60.3194 75.5694 60 74.7778 60 73.8333V70.5H20V73.8333C20 74.7778 19.6806 75.5694 19.0417 76.2083C18.4028 76.8472 17.6111 77.1667 16.6667 77.1667H13.3333ZM20 60.5H30C30.9444 60.5 31.7361 60.1806 32.375 59.5417C33.0139 58.9028 33.3333 58.1111 33.3333 57.1667C33.3333 56.2222 33.0139 55.4306 32.375 54.7917C31.7361 54.1528 30.9444 53.8333 30 53.8333H20V60.5ZM60 60.5V53.8333H50C49.0556 53.8333 48.2639 54.1528 47.625 54.7917C46.9861 55.4306 46.6667 56.2222 46.6667 57.1667C46.6667 58.1111 46.9861 58.9028 47.625 59.5417C48.2639 60.1806 49.0556 60.5 50 60.5H60ZM57.5833 38L69.1667 26.5L65.6667 23L57.5833 30.9167L54.3333 27.6667L50.8333 31.25L57.5833 38ZM60 13.8333C64.6111 13.8333 68.5417 15.4583 71.7917 18.7083C75.0417 21.9583 76.6667 25.8889 76.6667 30.5C76.6667 35.1111 75.0417 39.0417 71.7917 42.2917C68.5417 45.5417 64.6111 47.1667 60 47.1667C55.3889 47.1667 51.4583 45.5417 48.2083 42.2917C44.9583 39.0417 43.3333 35.1111 43.3333 30.5C43.3333 25.8889 44.9583 21.9583 48.2083 18.7083C51.4583 15.4583 55.3889 13.8333 60 13.8333Z" fill="#870064"/>
</g>
</svg>
