<svg width="50" height="50" viewBox="0 0 50 50" fill="none" xmlns="http://www.w3.org/2000/svg">
<path d="M20.1401 18.0017L24.6011 22.4707C24.8494 22.719 24.8494 23.1274 24.6011 23.3757L23.6961 24.2807C23.4478 24.529 23.0393 24.529 22.7911 24.2807L18.3301 19.8117L14.702 23.4398L19.171 27.9088C19.4193 28.1571 19.4193 28.5655 19.171 28.8138L18.266 29.7188C18.0177 29.9671 17.6093 29.9671 17.361 29.7188L12.892 25.2418L10.7776 27.3562C9.39204 28.7417 8.7273 30.6479 8.93553 32.594L9.50417 37.6878L4.18621 43.0057C3.93793 43.254 3.93793 43.6624 4.18621 43.9107L5.09122 44.8157C5.3395 45.064 5.74796 45.064 5.99624 44.8157L11.3062 39.5058L16.3999 40.0744C18.314 40.2827 20.2362 39.6419 21.6378 38.2324L36.2061 23.664L25.3379 12.7959L20.1401 18.0017ZM44.8238 10.5293L38.4806 4.18621C38.2324 3.93793 37.8239 3.93793 37.5756 4.18621L36.6706 5.09122C36.4223 5.3395 36.4223 5.74796 36.6706 5.99624L38.9372 8.26278L35.3091 11.8908L30.776 7.35776L29.4145 5.99624C29.1662 5.74796 28.7577 5.74796 28.5095 5.99624L25.7944 8.71128C25.5462 8.95956 25.5462 9.36802 25.7944 9.61629L27.156 10.9778L38.0241 21.862L39.3857 23.2235C39.6339 23.4718 40.0424 23.4718 40.2907 23.2235L43.0057 20.5005C43.254 20.2522 43.254 19.8438 43.0057 19.5955L37.1191 13.7089L40.7472 10.0808L43.0137 12.3474C43.262 12.5956 43.6705 12.5956 43.9187 12.3474L44.8238 11.4423C45.072 11.1861 45.072 10.7856 44.8238 10.5293Z" fill="white"/>
</svg>
