<svg width="50" height="50" viewBox="0 0 50 50" fill="none" xmlns="http://www.w3.org/2000/svg">
<path d="M26.829 14.2928C27.3299 13.9319 27.809 13.6093 28.2526 13.3342C28.5617 13.1425 28.6568 12.7366 28.4653 12.4277C28.2735 12.1186 27.8677 12.0236 27.5587 12.2151C27.0893 12.5062 26.5848 12.8458 26.0592 13.2245C25.7642 13.437 25.6973 13.8485 25.9099 14.1436C26.1225 14.4386 26.5338 14.5055 26.829 14.2928Z" fill="white"/>
<path d="M36.7206 12.9201C36.5225 13.225 36.6092 13.6327 36.9142 13.8307C37.3649 14.1234 37.8406 14.4544 38.3282 14.8143C38.62 15.0298 39.0325 14.9689 39.2488 14.6758C39.4649 14.3832 39.4028 13.971 39.1103 13.7551C38.6015 13.3794 38.1039 13.0333 37.6311 12.7264C37.3263 12.5284 36.9186 12.615 36.7206 12.9201Z" fill="white"/>
<path d="M24.1828 14.616C24.4732 14.8322 24.8859 14.7741 25.1042 14.4813C25.3214 14.1898 25.2611 13.7772 24.9695 13.56C24.4548 13.1766 23.959 12.828 23.4959 12.524C23.1918 12.3246 22.7837 12.4091 22.5841 12.7131C22.3846 13.0171 22.4693 13.4252 22.7732 13.6248C23.2147 13.9146 23.689 14.248 24.1828 14.616Z" fill="white"/>
<path d="M45.9164 26.4286C45.9486 26.397 45.9722 26.3747 45.9894 26.3589C46.5106 26.0293 46.9461 25.5748 47.2515 25.0412C47.4322 24.7256 47.3228 24.3234 47.0072 24.1428C46.6917 23.9621 46.2894 24.0715 46.1088 24.3871C45.9005 24.7511 45.6123 25.0471 45.2523 25.2667C45.2239 25.2841 45.1968 25.3036 45.1713 25.325C45.122 25.3665 45.0674 25.417 44.9941 25.4889C44.7346 25.7436 44.7307 26.1604 44.9854 26.42C45.2396 26.6788 45.6564 26.6839 45.9164 26.4286Z" fill="white"/>
<path d="M5.14607 20.1631C4.88816 19.9067 4.47127 19.9081 4.21502 20.1661C4.10406 20.2777 4.00065 20.3825 3.9055 20.4793C3.52592 20.8653 3.23825 21.3172 3.05065 21.8223C2.92406 22.1632 3.0977 22.5421 3.43857 22.6687C3.77795 22.795 4.15796 22.623 4.28508 22.2808C4.40762 21.9509 4.59583 21.6553 4.84462 21.4024C4.93837 21.3069 5.04011 21.204 5.14923 21.0941C5.40547 20.8362 5.40407 20.4193 5.14607 20.1631Z" fill="white"/>
<path d="M5.08194 25.1027C4.70307 24.8066 4.43497 24.422 4.27801 23.9872C4.15476 23.6451 3.77755 23.4676 3.43537 23.591C3.09336 23.7141 2.91595 24.0914 3.03911 24.4335C3.28183 25.1072 3.71075 25.7023 4.27108 26.1402C4.55927 26.3655 4.97283 26.3114 5.19527 26.0268C5.41921 25.7404 5.36847 25.3266 5.08194 25.1027Z" fill="white"/>
<path d="M37.0796 31.3976C36.5318 31.6665 35.9496 31.927 35.4953 32.113C35.1591 32.2514 34.9987 32.6363 35.1372 32.9725C35.275 33.3071 35.6586 33.4696 35.9967 33.3306C36.5667 33.0926 37.0689 32.8697 37.6598 32.5795C37.9863 32.4193 38.121 32.0249 37.9607 31.6985C37.8006 31.3722 37.4063 31.2373 37.0796 31.3976Z" fill="white"/>
<path d="M35.0743 12.7719C35.3994 12.9313 35.7946 12.7982 35.9551 12.4702C36.1151 12.1437 35.98 11.7493 35.6534 11.5894C35.0418 11.2899 34.4556 11.0579 33.911 10.9003C33.5617 10.7989 33.1965 11.0002 33.0955 11.3496C32.9944 11.6989 33.1956 12.0639 33.5448 12.1651C34.0164 12.3018 34.531 12.5059 35.0743 12.7719Z" fill="white"/>
<path d="M40.8735 15.1333C40.5928 14.9024 40.1778 14.9426 39.9468 15.2236C39.7158 15.5045 39.7563 15.9193 40.0371 16.1504C40.4676 16.5044 40.9149 16.8841 41.3667 17.2788C41.6392 17.5169 42.0553 17.4913 42.2956 17.2162C42.5349 16.9424 42.5068 16.5265 42.233 16.2872C41.7715 15.8839 41.3141 15.4957 40.8735 15.1333Z" fill="white"/>
<path d="M33.4755 32.8541C32.9327 33.0289 32.3763 33.1885 31.8217 33.3282C31.4691 33.4172 31.2554 33.7751 31.3444 34.1276C31.4333 34.4803 31.7914 34.694 32.1437 34.605C32.7256 34.4582 33.3094 34.2908 33.8792 34.1073C34.2253 33.9958 34.4154 33.625 34.304 33.2788C34.1925 32.9329 33.8214 32.7427 33.4755 32.8541Z" fill="white"/>
<path d="M30.1029 12.3631C30.6526 12.1389 31.1476 12.0074 31.6164 11.9611C31.9783 11.9253 32.2426 11.6029 32.2069 11.2411C32.1712 10.8793 31.8485 10.6153 31.4869 10.6506C30.8898 10.7097 30.2745 10.8711 29.6057 11.1438C29.269 11.2811 29.1074 11.6653 29.2448 12.002C29.3825 12.34 29.7679 12.5001 30.1029 12.3631Z" fill="white"/>
<path d="M42.9547 17.811C42.7073 18.0775 42.7227 18.4941 42.9893 18.7415C43.4099 19.132 43.8371 19.5371 44.2591 19.9457C44.5198 20.1982 44.9367 20.1922 45.1901 19.9306C45.443 19.6693 45.4362 19.2525 45.175 18.9996C44.7464 18.5848 44.3125 18.1732 43.8851 17.7765C43.6185 17.5291 43.2021 17.5445 42.9547 17.811Z" fill="white"/>
<path d="M20.9432 12.5735C21.2724 12.7299 21.6646 12.5894 21.8205 12.2615C21.9766 11.9332 21.837 11.5403 21.5086 11.3842C20.8592 11.0754 20.2694 10.8673 19.7057 10.7479C19.3499 10.6723 19.0005 10.8998 18.9251 11.2555C18.8497 11.6112 19.077 11.9606 19.4327 12.036C19.8941 12.1338 20.3881 12.3096 20.9432 12.5735Z" fill="white"/>
<path d="M47.6989 22.4712C47.5721 21.7672 47.2495 21.115 46.7659 20.5849C46.5208 20.3161 46.1044 20.2971 45.8358 20.5421C45.5671 20.7871 45.548 21.2035 45.7931 21.4722C46.1094 21.8189 46.3202 22.2451 46.403 22.7048C46.4673 23.0617 46.8089 23.3006 47.1677 23.236C47.5255 23.1713 47.7633 22.8291 47.6989 22.4712Z" fill="white"/>
<path d="M16.5651 32.676C16.2215 32.5571 15.8465 32.7395 15.7277 33.0832C15.6089 33.4268 15.7912 33.8018 16.1349 33.9205C16.7009 34.1161 17.2811 34.2961 17.8592 34.4553C18.2129 34.5522 18.5729 34.3433 18.6688 33.9952C18.7654 33.6447 18.5593 33.2823 18.2088 33.1857C17.6576 33.034 17.1046 32.8625 16.5651 32.676Z" fill="white"/>
<path d="M40.4191 29.4448C39.9486 29.7681 39.461 30.0801 38.9701 30.3724C38.6576 30.5584 38.5552 30.9626 38.7413 31.2749C38.928 31.5884 39.3324 31.6892 39.6438 31.5037C40.1591 31.1969 40.6707 30.8693 41.1646 30.53C41.4643 30.3242 41.5404 29.9143 41.3345 29.6146C41.1288 29.3151 40.7188 29.239 40.4191 29.4448Z" fill="white"/>
<path d="M9.7088 29.1324C9.41332 28.9202 9.00205 28.988 8.79005 29.2834C8.57805 29.5788 8.64564 29.9902 8.94104 30.2022C9.42789 30.5515 9.93283 30.8897 10.4417 31.2068C10.7519 31.4002 11.1574 31.3033 11.3487 30.9965C11.541 30.688 11.4469 30.2819 11.1384 30.0895C10.6536 29.7871 10.1727 29.4652 9.7088 29.1324Z" fill="white"/>
<path d="M22.0026 33.9391C21.4357 33.8689 20.8639 33.7794 20.3029 33.6728C19.9459 33.605 19.601 33.8395 19.5332 34.1968C19.4653 34.5541 19.6999 34.8986 20.0572 34.9665C20.6459 35.0783 21.2461 35.1724 21.8409 35.246C22.1994 35.2908 22.5302 35.0361 22.5751 34.6735C22.6198 34.3124 22.3634 33.9837 22.0026 33.9391Z" fill="white"/>
<path d="M30.4755 34.3099C30.4151 33.9514 30.0752 33.7095 29.717 33.77C29.1537 33.8648 28.5802 33.9425 28.012 34.0009C27.6503 34.0381 27.3873 34.3614 27.4244 34.7232C27.4613 35.081 27.7804 35.3481 28.1467 35.3108C28.7428 35.2496 29.3447 35.168 29.9356 35.0685C30.2942 35.0081 30.536 34.6685 30.4755 34.3099Z" fill="white"/>
<path d="M11.7663 14.3405C11.9767 14.6357 12.3873 14.7063 12.6846 14.4946C13.1794 14.1418 13.6603 13.8215 14.114 13.5424C14.4237 13.352 14.5202 12.9464 14.3297 12.6368C14.1392 12.3272 13.7337 12.2303 13.424 12.421C12.9452 12.7155 12.4393 13.0524 11.9204 13.4223C11.6242 13.6333 11.5553 14.0444 11.7663 14.3405Z" fill="white"/>
<path d="M13.0084 31.1526C12.6853 30.9858 12.2882 31.1124 12.1214 31.4355C11.9546 31.7587 12.0812 32.1558 12.4043 32.3226C12.9354 32.5968 13.4836 32.8581 14.0337 33.0991C14.3675 33.2451 14.7553 33.0926 14.9009 32.7601C15.0468 32.4271 14.8951 32.0388 14.562 31.8929C14.0374 31.6632 13.5147 31.4141 13.0084 31.1526Z" fill="white"/>
<path d="M10.1362 14.7779C9.66866 15.1539 9.21218 15.535 8.76431 15.9194C8.4884 16.1561 8.45662 16.5718 8.69338 16.8477C8.93057 17.1241 9.34614 17.155 9.62179 16.9186C10.0577 16.5446 10.5168 16.1612 10.961 15.8045C11.2445 15.5767 11.2896 15.1622 11.0618 14.8788C10.8341 14.5953 10.4197 14.5503 10.1362 14.7779Z" fill="white"/>
<path d="M6.73849 26.6522C6.4768 26.3999 6.06 26.4073 5.80754 26.6691C5.55515 26.9308 5.56262 27.3476 5.82439 27.6C6.26682 28.0266 6.70452 28.423 7.16258 28.8119C7.43849 29.0462 7.85432 29.0144 8.09055 28.7361C8.3259 28.4589 8.29193 28.0434 8.0147 27.8081C7.57806 27.4375 7.16056 27.0594 6.73849 26.6522Z" fill="white"/>
<path d="M43.4384 27.0263C43.0173 27.4168 42.5804 27.7967 42.1397 28.1556C41.8577 28.3852 41.8152 28.7999 42.0449 29.0818C42.2741 29.3633 42.689 29.4065 42.9711 29.1766C43.4336 28.8001 43.892 28.4014 44.3338 27.9917C44.6004 27.7445 44.6161 27.3279 44.3688 27.0613C44.1215 26.7947 43.7051 26.779 43.4384 27.0263Z" fill="white"/>
<path d="M15.9754 12.5512C16.5243 12.3118 17.0423 12.1415 17.515 12.0448C17.8714 11.9719 18.101 11.6241 18.0281 11.2678C17.9553 10.9115 17.6071 10.6819 17.2512 10.7547C16.6806 10.8713 16.0912 11.0641 15.4491 11.3441C15.1158 11.4893 14.9634 11.8773 15.1088 12.2107C15.2539 12.5436 15.6418 12.6967 15.9754 12.5512Z" fill="white"/>
<path d="M5.78007 19.541C6.03043 19.8031 6.44723 19.8142 6.71094 19.5621C7.13924 19.1529 7.56903 18.7507 7.98846 18.3667C8.25673 18.1212 8.27508 17.7048 8.02955 17.4365C7.78401 17.1684 7.36756 17.1498 7.09938 17.3954C6.67301 17.7857 6.2362 18.1944 5.80114 18.6102C5.53831 18.8614 5.52883 19.2781 5.78007 19.541Z" fill="white"/>
<path d="M24.0894 35.4316C24.6798 35.4567 25.2873 35.4635 25.8948 35.4499C26.2584 35.4418 26.5465 35.1406 26.5385 34.7771C26.5306 34.4204 26.2382 34.1271 25.8657 34.1335C25.2863 34.1463 24.7089 34.1401 24.1454 34.1161C23.7803 34.0976 23.475 34.3826 23.4596 34.7459C23.4441 35.1091 23.7261 35.4162 24.0894 35.4316Z" fill="white"/>
<path d="M44.6345 22.477C42.2123 20.013 35.4824 13.4736 32.0472 13.4736C30.7184 13.4736 28.5512 14.7364 25.4215 17.334C25.3431 17.3992 25.2294 17.399 25.1509 17.334C22.0214 14.7364 19.8541 13.4736 18.5253 13.4736C15.0902 13.4736 8.36015 20.0131 5.93808 22.477C5.45035 22.973 5.64436 23.8007 6.28624 24.0382L7.47677 25.2289C15.5522 33.3043 28.0912 34.9551 37.9998 29.1616C38.3137 28.9781 38.4194 28.5748 38.2359 28.261C38.0522 27.9469 37.6489 27.8416 37.3352 28.0249C28.2292 33.3492 16.3116 32.2014 8.40782 24.2977L8.20767 24.0976H9.41488C9.77848 24.0976 10.0733 23.8029 10.0733 23.4392C10.0733 23.0755 9.77848 22.7808 9.41488 22.7808H7.49266C11.3297 18.9622 16.2957 14.7906 18.5253 14.7906C18.9762 14.7906 20.4424 15.1372 24.3099 18.3473C24.8758 18.8172 25.6971 18.8169 26.2627 18.3474C30.1303 15.1372 31.5965 14.7906 32.0473 14.7906C34.277 14.7906 39.2429 18.9622 43.0799 22.7808H37.0961C37.3563 22.4043 37.5526 21.9817 37.6745 21.5266L37.7378 21.2905C37.8319 20.9393 37.6235 20.5783 37.2723 20.4841C36.9209 20.3896 36.56 20.5984 36.4659 20.9496L36.4026 21.1857C36.2239 21.8521 35.8092 22.4146 35.2293 22.7808H32.4627C32.7262 22.2385 32.8653 21.6392 32.8653 21.0185V20.7742C32.8653 20.4105 32.5706 20.1158 32.2069 20.1158C31.8432 20.1158 31.5485 20.4105 31.5485 20.7742V21.0185C31.5485 21.6716 31.32 22.2894 30.901 22.7808H29.3682C28.3162 22.7808 27.3269 23.1906 26.5827 23.9347L25.9923 24.5251C25.602 24.9154 24.9704 24.9154 24.5802 24.5251L23.9898 23.9347C23.2456 23.1906 22.2564 22.7808 21.2043 22.7808H19.6715C19.2525 22.2893 19.024 21.6716 19.024 21.0185V20.7742C19.024 20.4105 18.7292 20.1158 18.3656 20.1158C18.002 20.1158 17.7072 20.4105 17.7072 20.7742V21.0185C17.7072 21.6392 17.8463 22.2385 18.1098 22.7808H15.3432C14.7633 22.4146 14.3486 21.8521 14.17 21.1857L14.1067 20.9496C14.0126 20.5984 13.6516 20.3896 13.3003 20.4841C12.9491 20.5782 12.7407 20.9393 12.8348 21.2905L12.8981 21.5266C13.0201 21.9818 13.2163 22.4043 13.4766 22.7808H12.4873C12.1236 22.7808 11.8289 23.0755 11.8289 23.4392C11.8289 23.8029 12.1236 24.0976 12.4873 24.0976H21.2042C21.9046 24.0976 22.5632 24.3703 23.0586 24.8658L23.6491 25.4562C24.5517 26.3588 26.0206 26.359 26.9234 25.4562L27.5138 24.8658C28.0093 24.3703 28.6678 24.0976 29.3682 24.0976H42.3649L42.1648 24.2977C41.4464 25.0159 40.6753 25.6942 39.8726 26.314C39.5848 26.5362 39.5316 26.9496 39.7538 27.2375C39.9752 27.5244 40.3887 27.5791 40.6773 27.3563C41.5242 26.7025 42.338 25.9867 43.0959 25.229L44.2864 24.0384C44.9272 23.801 45.1229 22.9739 44.6345 22.477Z" fill="white"/>
<path d="M24.7073 41.2132V40.8302C24.7073 40.4665 24.4125 40.1718 24.0489 40.1718C23.7098 40.1718 23.4306 40.4281 23.3944 40.7576H23.1138C22.8021 40.7576 22.514 40.9266 22.362 41.1989C22.21 41.4711 22.2173 41.805 22.381 42.0706L24.5529 45.5913C24.8896 46.1372 25.6826 46.1363 26.0185 45.5914L28.1905 42.0706C28.3543 41.8054 28.3616 41.4713 28.2098 41.199C28.0578 40.9266 27.7697 40.7576 27.4579 40.7576H27.1812V37.197C27.1812 36.7223 26.7949 36.3359 26.3201 36.3359H24.2515C23.7767 36.3359 23.3905 36.7222 23.3905 37.197V37.7577C23.3905 38.1214 23.6853 38.4161 24.0489 38.4161C24.4125 38.4161 24.7073 38.1214 24.7073 37.7577V37.6528H25.8644V41.2133C25.8644 41.6605 26.2071 42.0292 26.6435 42.0706L25.2858 44.2714L23.9281 42.0706C24.3647 42.0291 24.7073 41.6604 24.7073 41.2132Z" fill="white"/>
<path d="M11.7067 6.81291C11.7021 6.5011 11.5288 6.21545 11.2543 6.06753L7.61266 4.10414C7.04829 3.80006 6.36225 4.19728 6.34364 4.83706L6.22303 8.97224C6.2139 9.28396 6.37463 9.57681 6.64228 9.73667C6.91003 9.89644 7.24405 9.89881 7.51416 9.74299L7.75381 9.60464L9.53391 12.6879C9.77207 13.1007 10.2987 13.2409 10.7101 13.0032L12.5019 11.9689C12.9127 11.7314 13.0541 11.2039 12.8168 10.7928L11.0366 7.70937L11.2762 7.57102C11.5463 7.41512 11.7111 7.12455 11.7067 6.81291ZM11.4487 11.0564L10.4465 11.635L8.66616 8.55122C8.44257 8.16436 7.96169 8.01662 7.56297 8.19877L7.63829 5.61386L9.91463 6.84101C9.55726 7.09514 9.44481 7.58568 9.6684 7.97299L11.4487 11.0564Z" fill="white"/>
<path d="M38.0699 11.9689L39.8614 13.0032C40.2736 13.2413 40.7995 13.1004 41.0375 12.6881L42.8177 9.60455L43.0574 9.74299C43.3274 9.89889 43.6615 9.89643 43.9292 9.73667C44.197 9.57681 44.3576 9.28396 44.3485 8.97224L44.2279 4.83706C44.2093 4.19755 43.5233 3.79988 42.9586 4.10423L39.317 6.06745C39.0427 6.21554 38.8693 6.50101 38.865 6.81283C38.8604 7.12455 39.0253 7.41494 39.2953 7.57093L39.5349 7.70928L37.7544 10.7931C37.5176 11.2041 37.6591 11.7315 38.0699 11.9689ZM40.9033 7.97299C41.1268 7.58586 41.0145 7.09532 40.6571 6.841L42.9334 5.61386L43.0087 8.19877C42.6098 8.01618 42.1291 8.16427 41.9054 8.55149L40.1252 11.635L39.123 11.0564L40.9033 7.97299Z" fill="white"/>
</svg>
