<svg width="50" height="50" viewBox="0 0 50 50" fill="none" xmlns="http://www.w3.org/2000/svg">
<path d="M4 43.5667V24.8167C4 23.6708 4.40799 22.6899 5.22396 21.874C6.03993 21.058 7.02083 20.65 8.16667 20.65H18.5833V24.8167C18.5833 26.5528 19.191 28.0285 20.4062 29.2437C21.6215 30.459 23.0972 31.0667 24.8333 31.0667C26.5694 31.0667 28.0451 30.459 29.2604 29.2437C30.4757 28.0285 31.0833 26.5528 31.0833 24.8167V20.65H41.5C42.6458 20.65 43.6267 21.058 44.4427 21.874C45.2587 22.6899 45.6667 23.6708 45.6667 24.8167V43.5667H4ZM24.8333 26.9C24.2431 26.9 23.7483 26.7003 23.349 26.301C22.9497 25.9017 22.75 25.4069 22.75 24.8167C22.75 21.0319 23.184 17.2993 24.0521 13.6187C24.9201 9.93819 26.8125 6.9 29.7292 4.50417C30.1806 4.12222 30.684 3.95729 31.2396 4.00937C31.7951 4.06146 32.2639 4.31319 32.6458 4.76458C33.0278 5.21597 33.1927 5.71944 33.1406 6.275C33.0885 6.83056 32.8368 7.29931 32.3854 7.68125C29.9549 9.72986 28.4358 12.2993 27.8281 15.3896C27.2205 18.4799 26.9167 21.6222 26.9167 24.8167C26.9167 25.4069 26.717 25.9017 26.3177 26.301C25.9184 26.7003 25.4236 26.9 24.8333 26.9ZM11.8125 32.1083C12.2639 32.1083 12.6372 31.9608 12.9323 31.6656C13.2274 31.3705 13.375 30.9972 13.375 30.5458C13.375 30.0944 13.2274 29.7212 12.9323 29.426C12.6372 29.1309 12.2639 28.9833 11.8125 28.9833C11.3611 28.9833 10.9878 29.1309 10.6927 29.426C10.3976 29.7212 10.25 30.0944 10.25 30.5458C10.25 30.9972 10.3976 31.3705 10.6927 31.6656C10.9878 31.9608 11.3611 32.1083 11.8125 32.1083ZM13.8958 37.3167C14.3472 37.3167 14.7205 37.1691 15.0156 36.874C15.3108 36.5788 15.4583 36.2056 15.4583 35.7542C15.4583 35.3028 15.3108 34.9295 15.0156 34.6344C14.7205 34.3392 14.3472 34.1917 13.8958 34.1917C13.4444 34.1917 13.0712 34.3392 12.776 34.6344C12.4809 34.9295 12.3333 35.3028 12.3333 35.7542C12.3333 36.2056 12.4809 36.5788 12.776 36.874C13.0712 37.1691 13.4444 37.3167 13.8958 37.3167ZM37.8542 32.1083C38.3056 32.1083 38.6788 31.9608 38.974 31.6656C39.2691 31.3705 39.4167 30.9972 39.4167 30.5458C39.4167 30.0944 39.2691 29.7212 38.974 29.426C38.6788 29.1309 38.3056 28.9833 37.8542 28.9833C37.4028 28.9833 37.0295 29.1309 36.7344 29.426C36.4392 29.7212 36.2917 30.0944 36.2917 30.5458C36.2917 30.9972 36.4392 31.3705 36.7344 31.6656C37.0295 31.9608 37.4028 32.1083 37.8542 32.1083Z" fill="white"/>
</svg>
