<svg width="50" height="50" viewBox="0 0 50 50" fill="none" xmlns="http://www.w3.org/2000/svg">
<path d="M35.625 43.75C32.8007 43.75 30.3932 42.7547 28.4026 40.7641C26.412 38.7734 25.4167 36.366 25.4167 33.5417C25.4167 30.7174 26.412 28.3099 28.4026 26.3193C30.3932 24.3286 32.8007 23.3333 35.625 23.3333C38.4493 23.3333 40.8568 24.3286 42.8474 26.3193C44.838 28.3099 45.8333 30.7174 45.8333 33.5417C45.8333 36.366 44.838 38.7734 42.8474 40.7641C40.8568 42.7547 38.4493 43.75 35.625 43.75ZM36.0333 34.5625L40.6781 29.9177L39.249 28.4885L34.6042 33.1333L36.0333 34.5625ZM5 21.2917V11.0833C5 9.96042 5.39983 8.99913 6.19948 8.19948C6.99913 7.39983 7.96042 7 9.08333 7H41.75C42.8729 7 43.8342 7.39983 44.6339 8.19948C45.4335 8.99913 45.8333 9.96042 45.8333 11.0833V23.5375C44.4722 22.1424 42.9155 21.079 41.163 20.3474C39.4106 19.6158 37.5646 19.25 35.625 19.25C34.3319 19.25 33.0984 19.4116 31.9245 19.7349C30.7505 20.0582 29.6361 20.509 28.5813 21.0875L25.2125 14.2479C25.0424 13.9076 24.7872 13.6524 24.4469 13.4823C24.1066 13.3122 23.7493 13.2271 23.375 13.2271C23.0007 13.2271 22.6434 13.3122 22.3031 13.4823C21.9628 13.6524 21.7076 13.9076 21.5375 14.2479L15.2083 26.9573L12.9115 22.4146C12.7413 22.0743 12.4946 21.8021 12.1714 21.5979C11.8481 21.3938 11.4993 21.2917 11.125 21.2917H5ZM9.08333 39.6667C7.96042 39.6667 6.99913 39.2668 6.19948 38.4672C5.39983 37.6675 5 36.7063 5 35.5833V25.375H9.84896L13.3708 32.4188C13.541 32.7931 13.7877 33.0738 14.1109 33.2609C14.4342 33.4481 14.8 33.5417 15.2083 33.5417C15.5826 33.5417 15.9314 33.4481 16.2547 33.2609C16.578 33.0738 16.8247 32.7931 16.9948 32.4188L23.375 19.7604L25.3146 23.6396C24.0896 24.9326 23.1198 26.4214 22.4052 28.1057C21.6906 29.7901 21.3333 31.6021 21.3333 33.5417C21.3333 34.5965 21.4439 35.6429 21.6651 36.6807C21.8863 37.7186 22.2351 38.7139 22.7115 39.6667H9.08333Z" fill="white"/>
</svg>
