<svg width="50" height="50" viewBox="0 0 50 50" fill="none" xmlns="http://www.w3.org/2000/svg">
<path d="M7.15152 42L6 38.5633C7.2897 38.1413 8.32606 37.4027 9.10909 36.3475C9.89212 35.2924 10.2836 34.1016 10.2836 32.7752V13.8734C9.54667 13.0896 8.87879 12.2455 8.28 11.3411C7.68121 10.4367 7.16687 9.47201 6.73697 8.44703L10.1455 7C11.4352 9.95435 13.4234 12.3208 16.1103 14.0995C18.7972 15.8781 21.7681 16.7674 25.023 16.7674C28.278 16.7674 31.2489 15.8781 33.9358 14.0995C36.6226 12.3208 38.6109 9.95435 39.9006 7L43.3091 8.44703C42.8792 9.47201 42.3572 10.4367 41.743 11.3411C41.1289 12.2455 40.4687 13.0896 39.7624 13.8734V32.7752C39.7624 34.1016 40.1463 35.2924 40.9139 36.3475C41.6816 37.4027 42.7103 38.1413 44 38.5633L42.8485 42C40.8218 41.3368 39.1867 40.1611 37.943 38.4729C36.6994 36.7847 36.0776 34.8854 36.0776 32.7752V17.0388C34.4501 18.0939 32.7075 18.9154 30.8497 19.5032C28.9919 20.0911 27.0497 20.385 25.023 20.385C22.9964 20.385 21.0465 20.0911 19.1733 19.5032C17.3002 18.9154 15.5653 18.0939 13.9685 17.0388V32.7752C13.9685 34.8854 13.339 36.7847 12.08 38.4729C10.821 40.1611 9.17818 41.3368 7.15152 42ZM21.3382 38.4729C19.8028 38.4729 18.4978 37.9453 17.423 36.8902C16.3483 35.8351 15.8109 34.5538 15.8109 33.0465V21.6964L18.2982 22.2842C19.7107 22.6158 20.9927 23.1962 22.1442 24.0252C23.2958 24.8542 24.2554 25.8415 25.023 26.9871C25.7907 25.8415 26.7503 24.8542 27.9018 24.0252C29.0533 23.1962 30.3354 22.6158 31.7479 22.2842L34.2352 21.6964V33.0465C34.2352 34.5538 33.6978 35.8351 32.623 36.8902C31.5483 37.9453 30.2432 38.4729 28.7079 38.4729C28.0016 38.4729 27.3337 38.3447 26.7042 38.0885C26.0747 37.8323 25.5143 37.4931 25.023 37.0711C24.5317 37.4931 23.9713 37.8323 23.3418 38.0885C22.7123 38.3447 22.0444 38.4729 21.3382 38.4729Z" fill="white"/>
</svg>
