<svg width="50" height="50" viewBox="0 0 50 50" fill="none" xmlns="http://www.w3.org/2000/svg">
<path d="M23.3571 33.0611H28.1436C28.7397 33.0611 29.2397 32.8595 29.6437 32.4563C30.0477 32.0531 30.2489 31.5547 30.2475 30.9611C30.2461 30.3675 30.0441 29.8691 29.6416 29.4659C29.239 29.0627 28.7397 28.8611 28.1436 28.8611H23.7778L24.0408 26.5511C24.111 26.0261 24.3389 25.5795 24.7246 25.2113C25.1104 24.8431 25.5662 24.6597 26.0922 24.6611H32.3515C32.9476 24.6611 33.4476 24.4602 33.8516 24.0584C34.2556 23.6566 34.4568 23.1575 34.4554 22.5611C34.454 21.9647 34.2521 21.4663 33.8495 21.0659C33.4469 20.6655 32.9476 20.4639 32.3515 20.4611H26.1448C24.4967 20.4611 23.0765 21.0036 21.8843 22.0886C20.692 23.1736 20.0083 24.5211 19.8329 26.1311L18.0446 43.3511C17.9744 43.9461 18.1498 44.4802 18.5705 44.9534C18.9913 45.4266 19.5173 45.6625 20.1485 45.6611C20.6745 45.6611 21.1395 45.4777 21.5434 45.1109C21.9474 44.7441 22.1837 44.2975 22.2525 43.7711L23.3571 33.0611ZM11.3119 36.6311C9.31312 34.8111 7.7618 32.6852 6.65792 30.2534C5.55404 27.8216 5.0014 25.2575 5 22.5611C5 17.3111 6.84097 12.8486 10.5229 9.17363C14.2048 5.49863 18.6757 3.66113 23.9356 3.66113C28.3189 3.66113 32.2028 4.94773 35.5874 7.52093C38.9719 10.0941 41.172 13.445 42.1875 17.5736L44.9227 28.3361C45.098 29.0011 44.9752 29.6052 44.5545 30.1484C44.1337 30.6916 43.5726 30.9625 42.8713 30.9611H38.6634V37.2611C38.6634 38.4161 38.2517 39.4052 37.4283 40.2284C36.605 41.0516 35.614 41.4625 34.4554 41.4611H30.2475V43.5611C30.2475 44.1561 30.0455 44.6552 29.6416 45.0584C29.2376 45.4616 28.7383 45.6625 28.1436 45.6611C27.5488 45.6597 27.0495 45.4581 26.6455 45.0563C26.2416 44.6545 26.0396 44.1561 26.0396 43.5611V39.3611C26.0396 38.7661 26.2416 38.2677 26.6455 37.8659C27.0495 37.4641 27.5488 37.2625 28.1436 37.2611H34.4554V28.8611C34.4554 28.2661 34.6574 27.7677 35.0614 27.3659C35.4653 26.9641 35.9647 26.7625 36.5594 26.7611H40.1361L38.1374 18.6236C37.3309 15.4386 35.6126 12.8486 32.9827 10.8536C30.3527 8.85863 27.337 7.86113 23.9356 7.86113C19.868 7.86113 16.3965 9.27863 13.521 12.1136C10.6456 14.9486 9.20792 18.3961 9.20792 22.4561C9.20792 24.5561 9.63783 26.5511 10.4976 28.4411C11.3575 30.3311 12.5757 32.0111 14.1522 33.4811L15.5198 34.7411V43.5611C15.5198 44.1561 15.3178 44.6552 14.9139 45.0584C14.5099 45.4616 14.0106 45.6625 13.4158 45.6611C12.8211 45.6597 12.3218 45.4581 11.9178 45.0563C11.5139 44.6545 11.3119 44.1561 11.3119 43.5611V36.6311Z" fill="white"/>
</svg>
