<svg width="50" height="50" viewBox="0 0 50 50" fill="none" xmlns="http://www.w3.org/2000/svg">
<path d="M6 45.8337V33.3337C6 31.5975 6.60764 30.1219 7.82292 28.9066C9.03819 27.6913 10.5139 27.0837 12.25 27.0837H16.4167C18.1528 27.0837 19.6285 26.476 20.8437 25.2607C22.059 24.0455 22.6667 22.5698 22.6667 20.8337C22.6667 20.2434 22.467 19.7486 22.0677 19.3493C21.6684 18.95 21.1736 18.7503 20.5833 18.7503C19.4375 18.7503 18.4566 18.3423 17.6406 17.5264C16.8247 16.7104 16.4167 15.7295 16.4167 14.5837V4.16699H20.5833V14.5837C22.3194 14.5837 23.7951 15.1913 25.0104 16.4066C26.2257 17.6219 26.8333 19.0975 26.8333 20.8337C26.8333 23.7156 25.8177 26.1722 23.7865 28.2035C21.7552 30.2347 19.2986 31.2503 16.4167 31.2503H12.25C11.6597 31.2503 11.1649 31.45 10.7656 31.8493C10.3663 32.2486 10.1667 32.7434 10.1667 33.3337V45.8337H6ZM18.5 45.8337H14.3333V41.667C14.3333 39.9309 14.941 38.4552 16.1562 37.2399C17.3715 36.0246 18.8472 35.417 20.5833 35.417H28.9167C31.7986 35.417 34.2552 34.4014 36.2865 32.3701C38.3177 30.3389 39.3333 27.8823 39.3333 25.0003V22.917C39.3333 20.035 38.3177 17.5785 36.2865 15.5472C34.2552 13.516 31.7986 12.5003 28.9167 12.5003C27.7708 12.5003 26.7899 12.0923 25.974 11.2764C25.158 10.4604 24.75 9.47949 24.75 8.33366V4.16699H28.9167V8.33366C32.9792 8.33366 36.4253 9.74859 39.2552 12.5785C42.0851 15.4083 43.5 18.8545 43.5 22.917V25.0003C43.5 29.0628 42.0851 32.509 39.2552 35.3389C36.4253 38.1687 32.9792 39.5837 28.9167 39.5837H20.5833C19.9931 39.5837 19.4983 39.7833 19.099 40.1826C18.6997 40.5819 18.5 41.0767 18.5 41.667V45.8337Z" fill="white"/>
</svg>
