<svg width="50" height="50" viewBox="0 0 50 50" fill="none" xmlns="http://www.w3.org/2000/svg">
<path d="M26.7143 31.3278L19.5714 24.2444L35.381 8.56667C35.7619 8.18889 36.2143 8 36.7381 8C37.2619 8 37.7143 8.18889 38.0952 8.56667L42.5238 12.9583C42.9048 13.3361 43.0952 13.7847 43.0952 14.3042C43.0952 14.8236 42.9048 15.2722 42.5238 15.65L26.7143 31.3278ZM26.7143 25.9444L38.5238 14.2806L36.7619 12.5333L25 24.2444L26.7143 25.9444ZM24.0476 42L27.8571 38.2222H45V42H24.0476ZM12.7619 42C11.3016 42 9.89683 41.7167 8.54762 41.15C7.19841 40.5833 6.01587 39.7963 5 38.7889L17.619 26.3222L22.5714 31.2333C23.0159 31.6741 23.3651 32.1778 23.619 32.7444C23.873 33.3111 24 33.9093 24 34.5389C24 35.1685 23.873 35.7745 23.619 36.3569C23.3651 36.9394 23.0159 37.4509 22.5714 37.8917L21.6667 38.7889C20.6508 39.7963 19.4683 40.5833 18.119 41.15C16.7698 41.7167 15.3651 42 13.9048 42H12.7619ZM12.7619 38.2222H13.9048C14.8571 38.2222 15.7778 38.0412 16.6667 37.6792C17.5556 37.3171 18.3333 36.8056 19 36.1444L19.9048 35.2472C20.0952 35.0583 20.1905 34.838 20.1905 34.5861C20.1905 34.3343 20.0952 34.1139 19.9048 33.925L17.619 31.6583L11.1429 38.0333C11.3968 38.0963 11.6667 38.1435 11.9524 38.175C12.2381 38.2065 12.5079 38.2222 12.7619 38.2222Z" fill="white"/>
</svg>
