<svg width="50" height="50" viewBox="0 0 50 50" fill="none" xmlns="http://www.w3.org/2000/svg">
<path d="M5.55759 6.4488C5.54044 6.41816 5.5296 6.38446 5.52568 6.34965C5.52176 6.31484 5.52485 6.27961 5.53476 6.24598C5.54468 6.21236 5.56123 6.18101 5.58345 6.15375C5.60567 6.12649 5.63313 6.10386 5.66423 6.08716L7.61937 5.03288C7.65035 5.01597 7.68442 5.00532 7.71959 5.00154C7.75477 4.99777 7.79035 5.00094 7.82428 5.01088C7.8582 5.02082 7.88979 5.03733 7.91722 5.05945C7.94465 5.08157 7.96737 5.10886 7.98407 5.13974L8.76809 6.55566C11.7324 5.67601 15.0166 6.92708 16.559 9.72309L12.7705 11.7704C13.0714 12.3166 13.1408 12.9587 12.9634 13.5555C12.786 14.1524 12.3764 14.655 11.8246 14.9528C11.2728 15.2507 10.624 15.3193 10.0211 15.1437C9.41814 14.9681 8.91035 14.5627 8.60945 14.0165L4.81964 16.0612C3.27594 13.2665 3.98492 9.85601 6.3403 7.86538L5.55759 6.4488ZM32.2495 31.9537H45V45H32.2495V31.9537ZM30.7881 38.4742H20.4904C19.6273 38.4741 18.7997 38.1348 18.1892 37.531C17.5787 36.9272 17.2353 36.1083 17.2344 35.254C17.235 34.3998 17.5783 33.5807 18.1888 32.9769C18.7994 32.3731 19.6273 32.0341 20.4904 32.0345H30.7881V38.4742ZM8.58575 41.0865C8.58575 40.3665 9.17492 39.782 9.903 39.782H30.7874V44.9987H8.58575V41.0858V41.0865ZM16.505 34.5868C16.5047 35.0977 16.4027 35.6035 16.2048 36.0754C16.0069 36.5473 15.7171 36.976 15.3519 37.3369C14.9866 37.6979 14.5531 37.9842 14.0761 38.1793C13.5991 38.3744 13.0879 38.4747 12.5717 38.4742C12.0555 38.4748 11.5443 38.3746 11.0672 38.1795C10.5901 37.9844 10.1565 37.6982 9.79116 37.3372C9.42584 36.9762 9.13594 36.5475 8.93804 36.0756C8.74014 35.6036 8.6381 35.0978 8.63775 34.5868C8.63775 32.4411 10.3987 30.7013 12.5717 30.7013C14.7434 30.7013 16.505 32.4411 16.505 34.5868ZM38.005 23.7005L35.7924 17.4654C35.3632 16.2899 34.539 15.3725 32.2126 15.3725H21.9985C19.6728 15.3725 18.8473 16.2899 18.42 17.4654L16.2081 23.7005C16.0429 24.1032 15.9573 25.0083 16.8572 25.6143L22.0584 29.0065C22.4231 29.2445 22.8683 29.3297 23.2964 29.2434C23.7245 29.157 24.1005 28.9062 24.342 28.5458C24.4612 28.367 24.5435 28.1666 24.5844 27.9562C24.6253 27.7458 24.6239 27.5296 24.5803 27.3197C24.5367 27.1099 24.4518 26.9106 24.3304 26.7332C24.209 26.5559 24.0534 26.4039 23.8727 26.2861L19.7445 23.593L20.9064 20.4204H22.5146L21.5726 22.9942L24.7067 25.0389C25.0536 25.2639 25.3519 25.5547 25.5843 25.8947C25.8168 26.2346 25.9787 26.6168 26.0609 27.0191C26.1461 27.4213 26.1497 27.8363 26.0715 28.2399C25.9932 28.6435 25.8348 29.0276 25.6053 29.3701C25.4215 29.6417 25.1958 29.8831 24.9365 30.0856H29.276C29.0171 29.8824 28.7913 29.6411 28.6065 29.3701C28.3771 29.0276 28.2186 28.6434 28.1402 28.2399C28.0618 27.8364 28.065 27.4214 28.1496 27.0191C28.2321 26.6169 28.3944 26.2348 28.6269 25.8949C28.8594 25.555 29.1577 25.2641 29.5044 25.0389L32.6405 22.9942L31.6945 20.4204H33.3041L34.4686 23.593L30.3385 26.2861C29.5794 26.7813 29.3675 27.7958 29.8697 28.5458C30.372 29.2958 31.395 29.503 32.154 29.0065L37.3546 25.6143C38.2551 25.0076 38.1695 24.1032 38.005 23.7005ZM28.122 9.27023C27.9977 9.5373 27.7988 9.76353 27.5486 9.92209C27.2985 10.0807 27.0076 10.1649 26.7106 10.1649C26.4132 10.1647 26.122 10.0804 25.8713 9.92194C25.6207 9.76343 25.421 9.53731 25.2959 9.27023H22.4468C22.4007 9.51783 22.3737 9.77131 22.3737 10.0326C22.375 11.1742 22.834 12.2687 23.6501 13.0754C24.4661 13.8822 25.5724 14.3353 26.7257 14.3351C27.2969 14.3355 27.8627 14.2246 28.3906 14.0086C28.9185 13.7926 29.3982 13.4758 29.8024 13.0762C30.2066 12.6767 30.5273 12.2023 30.7462 11.68C30.9652 11.1578 31.078 10.598 31.0784 10.0326C31.0784 9.77065 31.0501 9.51783 31.006 9.27023H28.122ZM25.1998 8.25438C25.285 7.92159 25.4797 7.62638 25.7533 7.4154C26.0269 7.20441 26.3638 7.08968 26.7106 7.08932C27.4387 7.08932 28.0529 7.58715 28.2187 8.25438H30.6873C30.3418 7.50143 29.7845 6.86287 29.0821 6.41501C28.3797 5.96715 27.5619 5.72892 26.7264 5.72879C25.8909 5.72892 25.0731 5.96715 24.3707 6.41501C23.6683 6.86287 23.111 7.50143 22.7654 8.25438H25.1998Z" fill="white"/>
</svg>
