<svg width="50" height="50" viewBox="0 0 50 50" fill="none" xmlns="http://www.w3.org/2000/svg">
<path d="M37.0924 36.7935C36.7777 36.7935 36.499 36.5601 36.4427 36.2284C36.3795 35.8567 36.6196 35.5024 36.9789 35.4371L39.27 35.0204L38.9472 34.1372C38.801 33.7373 39.0422 33.2973 39.4496 33.2227L41.8462 32.7831C42.2044 32.7171 42.5481 32.965 42.6118 33.3366C42.6754 33.7082 42.4359 34.0628 42.0768 34.1287L40.4645 34.4245L40.7877 35.3089C40.9341 35.7091 40.6922 36.1495 40.2842 36.2236C36.9226 36.8346 37.1751 36.7935 37.0924 36.7935Z" fill="white"/>
<path d="M10.1119 41.8373C9.79544 41.8373 9.51597 41.6014 9.46148 41.2679C9.40072 40.8958 9.64295 40.5431 10.0027 40.4802L11.6173 40.1977L11.3008 39.3106C11.1575 38.909 11.403 38.4708 11.8113 38.4001L14.8923 37.866C15.2527 37.8035 15.5925 38.0548 15.6528 38.4269C15.7131 38.7991 15.4704 39.1514 15.1106 39.2138L12.8163 39.6115L13.1323 40.4973C13.2755 40.8985 13.0307 41.3364 12.6229 41.4077C10.0119 41.8643 10.1913 41.8373 10.1119 41.8373Z" fill="white"/>
<path d="M40.8599 43.5127C40.6548 43.5127 40.4527 43.4142 40.3237 43.229L39.3658 41.8548L38.7364 42.5402C38.4488 42.8532 37.961 42.8134 37.7213 42.4684L35.8977 39.8441C35.6848 39.5377 35.7522 39.1107 36.0484 38.8904C36.3444 38.6699 36.7573 38.7398 36.9702 39.0463L38.3281 41.0005L38.9567 40.3159C39.244 40.0031 39.7312 40.0426 39.9712 40.3869L41.3949 42.4294C41.712 42.8842 41.3917 43.5127 40.8599 43.5127Z" fill="white"/>
<path d="M26.0524 35.0996C24.8424 35.0996 23.8579 36.1181 23.8579 37.3701C23.8579 38.6219 24.8424 39.6404 26.0524 39.6404C27.2624 39.6404 28.2469 38.6219 28.2469 37.3701C28.2469 36.1181 27.2624 35.0996 26.0524 35.0996Z" fill="white"/>
<path d="M41.5199 20.892C41.5199 11.5773 34.196 4 25.1927 4C21.4916 4 18.2272 5.29833 15.752 7.75492C11.8721 11.6036 11.3509 16.7866 11.2566 17.0149L8.22174 24.7392C7.58314 26.3646 8.37051 28.2249 9.98521 28.8264L10.6903 29.0886V32.7999C10.6903 34.4955 11.9733 35.8579 13.6137 35.9006L18.1017 36.0022C17.9555 38.9457 16.7419 41.7029 14.6441 43.8281C14.2219 44.2572 14.5165 45 15.1064 45H34.4749C34.9393 45 35.2621 44.5136 35.0875 44.063C30.6512 32.5731 41.5199 33.3896 41.5199 20.892ZM29.3717 38.5643L30.1831 39.0489C30.7668 39.3976 30.5259 40.3242 29.8522 40.3242C29.6174 40.3242 29.5612 40.2557 28.7095 39.747C28.2017 40.3539 27.5039 40.7857 26.7123 40.9421V41.9112C26.7123 42.2886 26.4166 42.5946 26.0519 42.5946C25.6871 42.5946 25.3914 42.2886 25.3914 41.9112V40.9421C24.5997 40.7857 23.9019 40.3539 23.3941 39.747C22.5459 40.2537 22.4861 40.3242 22.2515 40.3242C21.5762 40.3242 21.3383 39.3969 21.9206 39.0489L22.732 38.5643C22.4713 37.791 22.471 36.9509 22.732 36.1764L21.9206 35.6917C21.6048 35.5029 21.4965 35.085 21.6789 34.7582C21.8612 34.4313 22.2652 34.3194 22.5811 34.508L23.3942 34.9937C23.902 34.3867 24.5998 33.9549 25.3915 33.7985V32.8295C25.3915 32.4521 25.6872 32.1462 26.0519 32.1462C26.4167 32.1462 26.7124 32.4521 26.7124 32.8295V33.7985C27.504 33.9549 28.2019 34.3867 28.7096 34.9937L29.5227 34.508C29.8388 34.3193 30.2425 34.4314 30.425 34.7582C30.6073 35.085 30.499 35.503 30.1831 35.6917L29.3717 36.1764C29.6323 36.9497 29.6327 37.7898 29.3717 38.5643Z" fill="white"/>
</svg>
