<svg width="50" height="50" viewBox="0 0 50 50" fill="none" xmlns="http://www.w3.org/2000/svg">
<path d="M25 35.5C20.5758 35.5 16.5455 34.2549 12.9091 31.7646C9.27273 29.2743 6.63636 25.9361 5 21.75C6.63636 17.5639 9.27273 14.2257 12.9091 11.7354C16.5455 9.24514 20.5758 8 25 8C29.4242 8 33.4545 9.24514 37.0909 11.7354C40.7273 14.2257 43.3636 17.5639 45 21.75C44.8182 22.2083 44.6288 22.6514 44.4318 23.0792C44.2348 23.5069 44.0152 23.9194 43.7727 24.3167L40.9091 21.6125C39.3636 18.5569 37.1742 16.1354 34.3409 14.3479C31.5076 12.5604 28.3939 11.6667 25 11.6667C21.5758 11.6667 18.4318 12.5757 15.5682 14.3938C12.7045 16.2118 10.5152 18.6639 9 21.75C10.5152 24.8361 12.7045 27.2882 15.5682 29.1063C18.4318 30.9243 21.5758 31.8333 25 31.8333C25.3333 31.8333 25.6591 31.8257 25.9773 31.8104C26.2955 31.7951 26.6212 31.7569 26.9545 31.6958C26.8333 32.3069 26.7727 32.9333 26.7727 33.575C26.7727 34.2167 26.8333 34.8431 26.9545 35.4542C26.6212 35.4847 26.2955 35.5 25.9773 35.5H25ZM25 30C22.7273 30 20.7955 29.1979 19.2045 27.5938C17.6136 25.9896 16.8182 24.0417 16.8182 21.75C16.8182 19.4583 17.6136 17.5104 19.2045 15.9063C20.7955 14.3021 22.7273 13.5 25 13.5C27.2727 13.5 29.2045 14.3021 30.7955 15.9063C32.3864 17.5104 33.1818 19.4583 33.1818 21.75C33.1818 21.9639 33.1742 22.1701 33.1591 22.3688C33.1439 22.5674 33.1212 22.7736 33.0909 22.9875L30.2727 25.6C29.697 26.1806 29.1818 26.7993 28.7273 27.4563C28.2727 28.1132 27.8939 28.8083 27.5909 29.5417C27.1667 29.6944 26.7424 29.809 26.3182 29.8854C25.8939 29.9618 25.4545 30 25 30ZM25 26.7C26.3636 26.7 27.5227 26.2188 28.4773 25.2563C29.4318 24.2938 29.9091 23.125 29.9091 21.75C29.9091 20.375 29.4318 19.2063 28.4773 18.2438C27.5227 17.2813 26.3636 16.8 25 16.8C23.6364 16.8 22.4773 17.2813 21.5227 18.2438C20.5682 19.2063 20.0909 20.375 20.0909 21.75C20.0909 23.125 20.5682 24.2938 21.5227 25.2563C22.4773 26.2188 23.6364 26.7 25 26.7ZM37.7273 41C35.697 41 33.9773 40.2819 32.5682 38.8458C31.1591 37.4097 30.4394 35.6681 30.4091 33.6208C30.4091 32.6125 30.6212 31.65 31.0455 30.7333C31.4697 29.8167 32.0455 29.0069 32.7727 28.3042L37.7273 23.5833L42.6364 28.3042C43.3636 29.0069 43.9318 29.809 44.3409 30.7104C44.75 31.6118 44.9697 32.5667 45 33.575C45 35.6528 44.2879 37.4097 42.8636 38.8458C41.4394 40.2819 39.7273 41 37.7273 41ZM37.7273 37.3333C38.7273 37.3333 39.5833 36.9667 40.2955 36.2333C41.0076 35.5 41.3485 34.6139 41.3182 33.575C41.3182 33.0556 41.2045 32.5667 40.9773 32.1083C40.75 31.65 40.4545 31.2528 40.0909 30.9167L37.7273 28.625L35.3182 30.9167C34.9545 31.2528 34.6515 31.6576 34.4091 32.1313C34.1667 32.6049 34.0606 33.1014 34.0909 33.6208C34.0909 34.6597 34.4394 35.5382 35.1364 36.2563C35.8333 36.9743 36.697 37.3333 37.7273 37.3333Z" fill="white"/>
</svg>
