<svg width="50" height="50" viewBox="0 0 50 50" fill="none" xmlns="http://www.w3.org/2000/svg">
<mask id="mask0_77_1024" style="mask-type:alpha" maskUnits="userSpaceOnUse" x="4" y="4" width="42" height="42">
<rect x="4" y="4" width="42" height="42" fill="#D9D9D9"/>
</mask>
<g mask="url(#mask0_77_1024)">
<path d="M25 42.8503C23.6583 42.8503 21.974 42.6461 19.9469 42.2378C17.9198 41.8295 16.4542 41.4065 15.55 40.969C15.2292 40.8232 14.974 40.6045 14.7844 40.3128C14.5948 40.0211 14.5 39.7003 14.5 39.3503V37.6003H12.75C12.2542 37.6003 11.8385 37.4326 11.5031 37.0972C11.1677 36.7618 11 36.3461 11 35.8503V33.2253C11 32.7295 11.1677 32.3138 11.5031 31.9784C11.8385 31.643 12.2542 31.4753 12.75 31.4753H14.5V27.9753H12.75C12.2542 27.9753 11.8385 27.8076 11.5031 27.4722C11.1677 27.1368 11 26.7211 11 26.2253V23.6003C11 23.1045 11.1677 22.6888 11.5031 22.3534C11.8385 22.018 12.2542 21.8503 12.75 21.8503H14.5V18.3503H12.75C12.2542 18.3503 11.8385 18.1826 11.5031 17.8472C11.1677 17.5118 11 17.0961 11 16.6003V13.9753C11 13.4795 11.1677 13.0638 11.5031 12.7284C11.8385 12.393 12.2542 12.2253 12.75 12.2253H14.5V9.6003C14.5 8.95863 14.7625 8.47738 15.2875 8.15655C15.8125 7.83571 16.3667 7.79196 16.95 8.0253C16.9792 8.0253 17.7813 8.2878 19.3563 8.8128C20.9313 9.3378 22.8125 9.6003 25 9.6003C27.1875 9.6003 29.0688 9.3378 30.6438 8.8128C32.2188 8.2878 33.0208 8.0253 33.05 8.0253C33.6333 7.79196 34.1875 7.84301 34.7125 8.17842C35.2375 8.51384 35.5 8.9878 35.5 9.6003V12.2253H37.25C37.7458 12.2253 38.1615 12.393 38.4969 12.7284C38.8323 13.0638 39 13.4795 39 13.9753V16.6003C39 17.0961 38.8323 17.5118 38.4969 17.8472C38.1615 18.1826 37.7458 18.3503 37.25 18.3503H35.5V21.8503H37.25C37.7458 21.8503 38.1615 22.018 38.4969 22.3534C38.8323 22.6888 39 23.1045 39 23.6003V26.2253C39 26.7211 38.8323 27.1368 38.4969 27.4722C38.1615 27.8076 37.7458 27.9753 37.25 27.9753H35.5V31.4753H37.25C37.7458 31.4753 38.1615 31.643 38.4969 31.9784C38.8323 32.3138 39 32.7295 39 33.2253V35.8503C39 36.3461 38.8323 36.7618 38.4969 37.0972C38.1615 37.4326 37.7458 37.6003 37.25 37.6003H35.5V39.3503C35.5 39.7003 35.4052 40.0211 35.2156 40.3128C35.026 40.6045 34.7708 40.8232 34.45 40.969C33.5458 41.4065 32.0802 41.8295 30.0531 42.2378C28.026 42.6461 26.3417 42.8503 25 42.8503ZM25 19.4878C26.1083 19.4878 27.2823 19.3857 28.5219 19.1815C29.7615 18.9774 30.9208 18.6857 32 18.3065V12.0503C30.8917 12.3711 29.7323 12.6263 28.5219 12.8159C27.3115 13.0055 26.1375 13.1003 25 13.1003C23.8917 13.1003 22.7323 13.0055 21.5219 12.8159C20.3115 12.6263 19.1375 12.3711 18 12.0503V18.3065C19.05 18.6857 20.2021 18.9774 21.4562 19.1815C22.7104 19.3857 23.8917 19.4878 25 19.4878ZM25 29.4628C26.0792 29.4628 27.2385 29.3607 28.4781 29.1565C29.7177 28.9524 30.8917 28.6461 32 28.2378V21.9378C30.7167 22.2878 29.499 22.5503 28.3469 22.7253C27.1948 22.9003 26.0792 22.9878 25 22.9878C23.8625 22.9878 22.6958 22.9003 21.5 22.7253C20.3042 22.5503 19.1375 22.2878 18 21.9378V28.2378C19.1083 28.6461 20.2823 28.9524 21.5219 29.1565C22.7615 29.3607 23.9208 29.4628 25 29.4628ZM25 39.3503C26.1083 39.3503 27.2823 39.2482 28.5219 39.044C29.7615 38.8399 30.9208 38.5482 32 38.169V31.9128C30.8917 32.2336 29.7323 32.4888 28.5219 32.6784C27.3115 32.868 26.1375 32.9628 25 32.9628C23.8917 32.9628 22.7323 32.868 21.5219 32.6784C20.3115 32.4888 19.1375 32.2336 18 31.9128V38.169C19.05 38.5482 20.2021 38.8399 21.4562 39.044C22.7104 39.2482 23.8917 39.3503 25 39.3503Z" fill="white"/>
</g>
</svg>
