<svg width="50" height="50" viewBox="0 0 50 50" fill="none" xmlns="http://www.w3.org/2000/svg">
<g clip-path="url(#clip0_77_1029)">
<path d="M25.0001 16C29.1438 16 32.5001 12.6438 32.5001 8.5C32.5001 4.35625 29.1438 1 25.0001 1C20.8563 1 17.5001 4.35625 17.5001 8.5C17.5001 12.6438 20.8563 16 25.0001 16ZM19.9938 39.325L22.3938 36.325L16.6282 31.525L12.3251 36.9062C11.2563 38.2375 11.2282 40.1312 12.2501 41.5L16.7501 47.5C17.4907 48.4844 18.6157 49 19.7501 49C20.5282 49 21.3251 48.7563 22.0001 48.25C23.6595 47.0125 23.9876 44.6594 22.7501 43L19.9938 39.325ZM33.372 31.525L27.6063 36.325L30.0063 39.325L27.2501 43C26.0126 44.6594 26.3407 47.0125 28.0001 48.25C28.6751 48.7563 29.4626 49 30.2501 49C31.3938 49 32.5188 48.4844 33.2501 47.5L37.7501 41.5C38.772 40.1312 38.7438 38.2375 37.6751 36.9062L33.372 31.525ZM42.3157 14.5938C41.1251 12.8969 38.7907 12.4937 37.0938 13.675L33.2876 16.3469C28.347 19.8156 21.6438 19.8156 16.7126 16.3469L12.9063 13.6844C11.2095 12.4938 8.87508 12.9062 7.68446 14.5938C6.49383 16.2906 6.90633 18.625 8.59383 19.8156L12.4001 22.4875C13.9938 23.6031 15.7188 24.4469 17.5001 25.1031V28H32.5001V25.1125C34.2813 24.4563 36.0063 23.6125 37.6001 22.4969L41.4063 19.825C43.1032 18.625 43.5063 16.2906 42.3157 14.5938Z" fill="white"/>
</g>
<defs>
<clipPath id="clip0_77_1029">
<rect width="36" height="48" fill="white" transform="translate(7 1)"/>
</clipPath>
</defs>
</svg>
