<svg width="50" height="50" viewBox="0 0 50 50" fill="none" xmlns="http://www.w3.org/2000/svg">
<path fill-rule="evenodd" clip-rule="evenodd" d="M41.8871 27.1883C40.3815 24.8837 39.3657 23.2595 39.3465 22.5036C39.5426 20.4264 39.8531 18.0917 39.3929 15.7716C38.6102 11.8249 35.6616 8.71269 31.9208 6.84697C29.2261 5.50314 26.2264 4.84246 23.2488 4.90661C20.2928 4.97034 17.3586 5.74825 14.7665 7.28141C11.2274 9.37468 8.52716 12.7978 7.63237 17.3516C5.79175 26.7222 14.9865 31.7107 12.2981 45.0976H26.3886C26.6356 44.4093 26.8782 43.6687 27.1745 43.0059C28.1446 40.8356 29.5153 40.5373 31.763 40.8511C34.5542 41.2409 37.0016 42.6603 37.5769 39.0468C37.7321 38.0718 37.6713 37.108 37.9902 36.8917C38.7351 36.651 38.9925 35.8284 38.7042 35.2542C38.5033 34.8541 37.9815 34.6649 37.5842 34.4734C37.1574 34.2676 36.8246 34.1441 36.7795 34.1165C37.3774 33.9773 38.0719 33.7984 38.3718 33.7237C39.2293 33.5096 39.252 32.9074 38.9452 32.29C38.8285 31.6946 38.5527 31.1166 38.7976 30.84C39.1881 30.399 40.0018 30.3085 40.7682 30.2302C43.0302 29.9991 42.9674 28.8618 41.8871 27.1883H41.8871ZM34.7314 19.4904C34.4637 20.7458 33.5843 21.8129 32.5943 22.0845C31.8003 22.3024 30.9957 22.0007 30.267 21.2115C30.0523 20.9787 29.6889 20.964 29.456 21.1787C29.2227 21.3938 29.2081 21.7572 29.4232 21.9901C30.0768 22.6981 30.816 23.1278 31.582 23.2592C31.4954 24.3292 30.9379 25.221 30.0155 25.7429C28.9922 26.3214 27.7545 26.3186 26.6327 25.7536C26.9515 25.1547 27.1399 24.4839 27.1694 23.7857C27.1837 23.469 26.9374 23.2009 26.6206 23.1878C26.3043 23.1748 26.0358 23.4199 26.0228 23.7366C25.9694 24.9727 25.2549 26.0944 24.1566 26.6642C23.0582 27.2335 21.73 27.1723 20.689 26.5036C19.6483 25.8358 19.0398 24.6528 19.1011 23.4168C19.1169 23.1001 18.8729 22.8308 18.5555 22.8146C18.2384 22.7992 17.9699 23.0436 17.9544 23.3602C17.8973 24.502 18.2708 25.6104 18.9681 26.4791C18.6529 26.6236 18.3063 26.6953 17.956 26.6847C17.8378 26.6807 17.7223 26.7144 17.6235 26.7792C16.369 27.6052 15.8789 28.68 15.6209 29.5893C15.5682 29.7754 15.5103 29.9514 15.4782 30.1146C15.3687 30.6692 14.7848 30.8784 14.4915 30.0973C14.4219 29.9122 14.3669 29.7147 14.3247 29.5099C14.1106 28.4716 14.2256 27.2477 14.4451 26.5083C14.5328 26.2137 14.3723 25.9022 14.0817 25.8021C13.281 25.5257 12.5725 24.5044 12.8251 23.3344C12.8619 23.1613 12.8176 22.9801 12.7037 22.845C11.7544 21.7118 11.4871 20.2026 11.9885 18.8064C12.4894 17.4103 13.6558 16.4151 15.1085 16.1454C15.4205 16.0872 15.6265 15.7867 15.5684 15.4752C15.5099 15.1632 15.2106 14.9584 14.899 15.0157C14.4049 15.1075 13.9366 15.2648 13.5034 15.4798C13.066 13.1817 13.9063 11.2014 15.816 10.1053C17.6581 9.04886 20.4828 8.96863 22.3162 10.8609C22.5368 11.0891 22.9002 11.0946 23.1279 10.874C23.3553 10.6534 23.3612 10.29 23.1405 10.0619C22.9227 9.83685 22.6885 9.63177 22.4407 9.44695C23.0546 8.9167 23.8657 8.65822 24.7308 8.73057C25.8034 8.81982 26.801 9.39396 27.4837 10.2956C26.9355 10.5974 26.4432 11.009 26.0435 11.5182C25.8473 11.7672 25.8908 12.1282 26.1403 12.3244C26.3894 12.5205 26.7504 12.4769 26.9465 12.2275C27.8153 11.1208 29.2608 10.6214 30.6273 10.9535C31.9938 11.2868 33.0475 12.394 33.3109 13.7755C33.5133 14.8359 33.2333 15.9197 32.5438 16.7492C32.3409 16.9936 32.3745 17.3553 32.6181 17.5578C32.7256 17.6475 32.8562 17.6907 32.985 17.6907C33.1499 17.6907 33.314 17.6203 33.4271 17.4831C33.6668 17.195 33.8689 16.8833 34.0317 16.5552C34.7096 17.3625 34.9635 18.4005 34.7315 19.4905L34.7314 19.4904ZM27.2437 16.7573V18.6103C27.2437 18.9494 26.9672 19.2259 26.6282 19.2259H24.1019V21.7522C24.1019 22.0913 23.8253 22.3678 23.4863 22.3678H21.6333C21.2943 22.3678 21.0177 22.0913 21.0177 21.7522V19.2259H18.4914C18.1524 19.2259 17.8759 18.9494 17.8759 18.6103V16.7573C17.8759 16.4183 18.1524 16.1418 18.4914 16.1418H21.0177V13.6155C21.0177 13.2764 21.2943 12.9999 21.6333 12.9999H23.4863C23.8253 12.9999 24.1019 13.2764 24.1019 13.6155V16.1418H26.6282C26.9672 16.1418 27.2437 16.4183 27.2437 16.7573Z" fill="white"/>
</svg>
