<svg width="50" height="50" viewBox="0 0 50 50" fill="none" xmlns="http://www.w3.org/2000/svg">
<path d="M41.1549 32.4485C41.5881 32.4485 41.9392 32.0974 41.9392 31.6642C41.9392 31.231 41.5881 30.8799 41.1549 30.8799C40.7218 30.8799 40.3706 31.231 40.3706 31.6642C40.3706 32.0974 40.7218 32.4485 41.1549 32.4485Z" fill="white"/>
<path d="M28.0235 28.022C29.271 28.013 30.481 27.6548 31.4794 26.9863C31.8394 26.7453 31.9357 26.2582 31.6948 25.8982C31.4536 25.5383 30.9667 25.4421 30.6067 25.6829C29.8641 26.1802 28.9548 26.4467 28.0207 26.4534C27.2442 26.4534 26.4795 26.2746 25.8226 25.9345V24.8751C25.8226 24.442 25.4714 24.0908 25.0383 24.0908C24.6051 24.0908 24.2539 24.442 24.2539 24.8751V25.8924C23.5881 26.2544 22.8083 26.4477 22.0158 26.4534C21.0938 26.4534 20.1961 26.2023 19.4578 25.7271C19.0936 25.4928 18.6083 25.598 18.3739 25.9622C18.1395 26.3264 18.2447 26.8117 18.609 27.0461C19.601 27.6845 20.795 28.022 22.0187 28.022C22.7894 28.0164 23.5596 27.8772 24.254 27.6143V29.4279C23.5888 29.7897 22.809 29.9829 22.0159 29.9886C21.0939 29.9886 20.1962 29.7375 19.4579 29.2624C19.0934 29.0278 18.6083 29.1334 18.374 29.4975C18.1395 29.8618 18.2448 30.3471 18.6091 30.5814C19.6012 31.2198 20.7952 31.5572 22.0188 31.5572C22.7897 31.5516 23.56 31.4125 24.2541 31.1498V32.9635C23.5883 33.3254 22.8084 33.5188 22.016 33.5245C21.0942 33.5245 20.1964 33.2735 19.4576 32.7986C19.0929 32.5644 18.608 32.6698 18.3738 33.0342C18.1396 33.3987 18.2451 33.8838 18.6095 34.118C19.6019 34.7559 20.7957 35.093 22.0189 35.093C22.7896 35.0875 23.5598 34.9483 24.2542 34.6854V35.9893C24.2542 36.4224 24.6053 36.7736 25.0385 36.7736C25.4717 36.7736 25.8228 36.4225 25.8228 35.9893V34.715C26.509 34.9639 27.2678 35.093 28.0238 35.093C29.2712 35.084 30.4813 34.7258 31.4797 34.0574C31.8396 33.8164 31.9359 33.3293 31.695 32.9693C31.4539 32.6094 30.9669 32.5132 30.6069 32.754C29.8643 33.2513 28.9551 33.5177 28.0209 33.5245C27.2447 33.5245 26.4799 33.3458 25.8228 33.0059V31.1789C26.5089 31.428 27.2677 31.5571 28.0238 31.5571C29.2723 31.5481 30.4824 31.1899 31.4799 30.5213C31.8398 30.2801 31.936 29.7929 31.6948 29.4332C31.4537 29.0732 30.9664 28.9772 30.6067 29.2183C29.8649 29.7154 28.9558 29.9817 28.0209 29.9886C27.2444 29.9886 26.4797 29.8098 25.8228 29.4697V27.6437C26.5087 27.8927 27.2675 28.022 28.0235 28.022Z" fill="white"/>
<path d="M41.9398 20.7898H34.5348C34.1673 18.2348 31.617 16.1423 28.2604 15.5079C29.5236 14.538 30.3401 13.0138 30.3401 11.3017C30.3401 8.37832 27.9618 6 25.0385 6C22.1151 6 19.7368 8.37832 19.7368 11.3017C19.7368 13.0016 20.5419 14.516 21.7897 15.4869C20.3721 15.7381 19.0672 16.2515 17.9968 16.9929C16.5331 18.0067 15.6517 19.3384 15.4677 20.7899H8.13712C6.40731 20.7898 5 22.1972 5 23.9269V40.0791C5 41.8089 6.40731 43.2162 8.13712 43.2162H41.9398C43.6696 43.2162 45.0769 41.8089 45.0769 40.0791V23.9269C45.0769 22.1972 43.6696 20.7898 41.9398 20.7898ZM25.0385 7.56856C27.0969 7.56856 28.7716 9.24318 28.7716 11.3017C28.7716 13.3601 27.0969 15.0348 25.0385 15.0348C22.9801 15.0348 21.3054 13.3601 21.3054 11.3017C21.3054 9.24318 22.9801 7.56856 25.0385 7.56856ZM18.8899 18.2823C20.1968 17.3771 21.9484 16.8786 23.8223 16.8786H26.1239C29.5308 16.8786 32.4547 18.613 32.9408 20.7899H17.058C17.2435 19.8586 17.8768 18.9841 18.8899 18.2823ZM43.5084 40.0792C43.5084 40.9441 42.8048 41.6477 41.9398 41.6477H8.13712C7.27217 41.6477 6.56856 40.9441 6.56856 40.0792V23.9269C6.56856 23.062 7.27217 22.3584 8.13712 22.3584H41.9398C42.8047 22.3584 43.5083 23.062 43.5083 23.9269V40.0792H43.5084Z" fill="white"/>
<path d="M41.9008 24.7306C41.9008 24.2975 41.5496 23.9463 41.1165 23.9463H36.5153C36.0822 23.9463 35.731 24.2974 35.731 24.7306C35.731 25.1637 36.0821 25.5149 36.5153 25.5149H41.1165C41.5496 25.5148 41.9008 25.1637 41.9008 24.7306Z" fill="white"/>
<path d="M41.9009 27.8673C41.9009 27.4342 41.5497 27.083 41.1165 27.083H37.7833C37.3502 27.083 36.999 27.4341 36.999 27.8673C36.999 28.3005 37.3502 28.6516 37.7833 28.6516H41.1165C41.5496 28.6516 41.9009 28.3004 41.9009 27.8673Z" fill="white"/>
<path d="M13.6667 38.5869H9.06557C8.63247 38.5869 8.28125 38.9381 8.28125 39.3712C8.28125 39.8044 8.63239 40.1556 9.06557 40.1556H13.6667C14.0998 40.1556 14.4511 39.8044 14.4511 39.3712C14.4511 38.9381 14.0999 38.5869 13.6667 38.5869Z" fill="white"/>
<path d="M9.06557 37.0179H12.3988C12.8319 37.0179 13.1831 36.6667 13.1831 36.2335C13.1831 35.8004 12.8319 35.4492 12.3988 35.4492H9.06557C8.63247 35.4492 8.28125 35.8004 8.28125 36.2335C8.28125 36.6667 8.63247 37.0179 9.06557 37.0179Z" fill="white"/>
<path d="M8.28125 33.0978C8.28125 33.5309 8.63239 33.8821 9.06557 33.8821H10.7322C11.1653 33.8821 11.5165 33.531 11.5165 33.0978C11.5165 32.6646 11.1654 32.3135 10.7322 32.3135H9.06549C8.63239 32.3136 8.28125 32.6647 8.28125 33.0978Z" fill="white"/>
<path d="M41.1549 34.3486C40.7218 34.3486 40.3706 34.6998 40.3706 35.133V39.3709C40.3706 39.8039 40.7217 40.1552 41.1549 40.1552C41.5881 40.1552 41.9392 39.804 41.9392 39.3709V35.133C41.9392 34.6999 41.588 34.3486 41.1549 34.3486Z" fill="white"/>
<path d="M9.06557 25.5149C9.49874 25.5149 9.84989 25.1638 9.84989 24.7306C9.84989 24.2974 9.49874 23.9463 9.06557 23.9463C8.6324 23.9463 8.28125 24.2974 8.28125 24.7306C8.28125 25.1638 8.6324 25.5149 9.06557 25.5149Z" fill="white"/>
<path d="M12.2023 25.5149C12.6355 25.5149 12.9866 25.1638 12.9866 24.7306C12.9866 24.2974 12.6355 23.9463 12.2023 23.9463C11.7691 23.9463 11.418 24.2974 11.418 24.7306C11.418 25.1638 11.7691 25.5149 12.2023 25.5149Z" fill="white"/>
<path d="M15.3395 25.5149C15.7727 25.5149 16.1238 25.1638 16.1238 24.7306C16.1238 24.2974 15.7727 23.9463 15.3395 23.9463C14.9063 23.9463 14.5552 24.2974 14.5552 24.7306C14.5552 25.1638 14.9063 25.5149 15.3395 25.5149Z" fill="white"/>
</svg>
