<svg width="50" height="50" viewBox="0 0 50 50" fill="none" xmlns="http://www.w3.org/2000/svg">
<path d="M9.72917 43.5833C8.13194 43.5833 6.77778 43.0278 5.66667 41.9167C4.55556 40.8056 4 39.4514 4 37.8542V28.2187L9.625 13.6875C10.0417 12.6111 10.7361 11.7691 11.7083 11.1615C12.6806 10.5538 13.7396 10.25 14.8854 10.25C16.3438 10.25 17.5851 10.7622 18.6094 11.7865C19.6337 12.8108 20.1458 14.0521 20.1458 15.5104V18.6875L14.9896 23.8438L17.2292 26.0833L23.2708 20.0417V4H26.3958V20.0417L32.4375 26.0833L34.6771 23.8438L29.5208 18.6875V15.5104C29.5208 14.0521 30.033 12.8108 31.0573 11.7865C32.0816 10.7622 33.3229 10.25 34.7813 10.25C35.9271 10.25 36.9861 10.5538 37.9583 11.1615C38.9306 11.7691 39.625 12.6111 40.0417 13.6875L45.6667 28.2187V37.8542C45.6667 39.4514 45.1111 40.8056 44 41.9167C42.8889 43.0278 41.5347 43.5833 39.9375 43.5833H32.6458C31.0486 43.5833 29.6944 43.0278 28.5833 41.9167C27.4722 40.8056 26.9167 39.4514 26.9167 37.8542V34.2083L28.0104 26.0833L24.8333 22.8542L21.6042 26.0833L22.75 34.2083V37.8542C22.75 39.4514 22.1944 40.8056 21.0833 41.9167C19.9722 43.0278 18.6181 43.5833 17.0208 43.5833H9.72917Z" fill="white"/>
</svg>
