<svg width="50" height="50" viewBox="0 0 50 50" fill="none" xmlns="http://www.w3.org/2000/svg">
<path d="M11.146 45.8337V36.7712L6.82308 32.3962C6.26752 31.8059 5.8335 31.1548 5.521 30.443C5.2085 29.7312 5.01752 29.0107 4.94808 28.2816C5.74669 29.2191 6.71023 29.9482 7.8387 30.4691C8.96718 30.9899 10.1564 31.2503 11.4064 31.2503C12.4828 31.2503 13.4984 31.0594 14.4533 30.6774C15.4081 30.2955 16.3891 29.6878 17.396 28.8545C17.4654 28.7851 17.5522 28.7156 17.6564 28.6462C17.7606 28.5767 17.8474 28.5246 17.9168 28.4899C17.9863 28.5246 18.0818 28.5767 18.2033 28.6462C18.3248 28.7156 18.4203 28.7851 18.4897 28.8545C19.4967 29.6878 20.4776 30.2955 21.4325 30.6774C22.3873 31.0594 23.3856 31.2503 24.4272 31.2503C25.712 31.2503 26.9186 30.9899 28.047 30.4691C29.1755 29.9482 30.1391 29.2191 30.9377 28.2816C30.8682 29.0455 30.6772 29.7833 30.3647 30.4951C30.0522 31.2069 29.6182 31.8406 29.0627 32.3962L24.6877 36.7712V45.8337H11.146ZM11.4064 29.167C9.60086 29.167 8.0644 28.5333 6.79704 27.266C5.52968 25.9986 4.896 24.4621 4.896 22.6566C4.896 21.7538 5.06961 20.9118 5.41683 20.1305C5.76405 19.3493 6.2328 18.6635 6.82308 18.0732L11.146 13.6982V4.16699H24.6877V13.6462L29.0627 18.0212C29.6529 18.6114 30.113 19.3059 30.4429 20.1045C30.7727 20.9031 30.9377 21.7538 30.9377 22.6566C30.9377 24.4621 30.3127 25.9986 29.0627 27.266C27.8127 28.5333 26.2675 29.167 24.4272 29.167C23.2814 29.167 22.3526 28.95 21.6408 28.516C20.929 28.0819 20.33 27.6566 19.8439 27.2399C19.3231 26.8232 18.9151 26.5715 18.62 26.4847C18.3248 26.3979 18.0904 26.3545 17.9168 26.3545C17.6043 26.3545 17.2831 26.4587 16.9533 26.667C16.6234 26.8753 16.3196 27.0663 16.0418 27.2399C15.5557 27.6566 14.9568 28.0819 14.245 28.516C13.5331 28.95 12.587 29.167 11.4064 29.167ZM43.7502 35.8857L33.5939 32.5524L34.9481 28.542L45.1043 31.9274L43.7502 35.8857ZM44.4793 27.0837H34.8439V22.917H44.4793V27.0837ZM45.0522 17.9691L34.8439 21.4066L33.5939 17.3962L43.8022 14.0107L45.0522 17.9691Z" fill="white"/>
</svg>
