<svg width="50" height="50" viewBox="0 0 50 50" fill="none" xmlns="http://www.w3.org/2000/svg">
<path d="M41.9385 44.1663H39.816V38.458H35.8569V44.1663H14.1427V38.458H10.1835V44.1663H7.77535C7.53045 44.1663 7.36719 44.333 7.36719 44.583C7.36719 44.833 7.53045 44.9996 7.77535 44.9996H41.8977C42.1426 44.9996 42.3058 44.833 42.3058 44.583C42.3058 44.333 42.1426 44.1663 41.9385 44.1663Z" fill="white"/>
<path d="M6.06122 44.166H5.40816C5.16326 44.166 5 44.3327 5 44.5827C5 44.8327 5.16326 44.9993 5.40816 44.9993H6.06122C6.30612 44.9993 6.46938 44.8327 6.46938 44.5827C6.46938 44.3327 6.30612 44.166 6.06122 44.166Z" fill="white"/>
<path d="M44.5919 44.166H43.5307C43.2858 44.166 43.1226 44.3327 43.1226 44.5827C43.1226 44.8327 43.2858 44.9993 43.5307 44.9993H44.5919C44.8368 44.9993 45.0001 44.8327 45.0001 44.5827C45.0001 44.3327 44.796 44.166 44.5919 44.166Z" fill="white"/>
<path d="M44.2648 36.7913V35.0413C44.2648 34.583 43.8975 34.208 43.4485 34.208H38.7138C39.7751 33.7913 40.5506 32.7496 40.5506 31.4997C40.5506 29.8747 39.2853 28.583 37.6934 28.583C36.1016 28.583 34.8363 29.8747 34.8363 31.4997V31.583C34.673 31.583 34.5098 31.583 34.3873 31.583C33.8975 31.583 33.4077 31.4163 32.9588 31.1663C28.9588 28.6247 24.9588 28.583 20.9588 31.1247C20.5506 31.4163 20.02 31.5413 19.5302 31.5413H11.367V30.833C11.367 30.4997 11.2446 30.1663 10.9997 29.958C10.7548 29.708 10.4282 29.583 10.0609 29.583C9.40783 29.6247 8.91804 30.208 8.91804 30.8747V34.208H6.5507C6.10172 34.208 5.73438 34.583 5.73438 35.0413V36.7913C5.73438 37.2496 6.10172 37.6246 6.5507 37.6246H43.4485C43.8975 37.6246 44.2648 37.2496 44.2648 36.7913Z" fill="white"/>
<path d="M9.48961 19.4166C9.65287 19.4166 9.77532 19.4166 9.93859 19.3749L14.3875 23.8748C14.3875 23.9582 14.3467 24.0415 14.3467 24.1248C14.3467 25.3332 15.2855 26.2915 16.4692 26.2915C16.959 26.2915 17.4079 26.1248 17.7753 25.8332L18.9998 27.0832V29.9998C18.9998 30.2498 19.163 30.4165 19.4079 30.4165C19.6528 30.4165 19.8161 30.2498 19.8161 29.9998V26.9165C19.8161 26.7915 19.7753 26.7082 19.6936 26.6248L18.3059 25.2082C18.51 24.8748 18.5916 24.4998 18.5916 24.1248C18.5916 22.9165 17.6528 21.9582 16.4692 21.9582C16.3875 21.9582 16.3059 21.9582 16.2243 21.9999L11.8161 17.4166C11.8161 17.2916 11.8569 17.1666 11.8569 17.0416C11.8569 16.9166 11.8569 16.7499 11.8161 16.6249L14.2243 14.1666C14.3875 14.2083 14.5508 14.2083 14.7549 14.2083C16.0202 14.2083 17.0814 13.1249 17.0814 11.8333C17.0814 11 16.6733 10.2916 16.061 9.87496H22.5916C22.5508 9.95829 22.5508 10.0416 22.5508 10.125V14.9166C22.5508 15.2916 22.8365 15.5832 23.2038 15.5832H23.7345C22.9998 16.0416 22.5508 16.8749 22.5508 17.7916C22.5508 18.4582 22.7957 19.0416 23.163 19.4999L23.3671 24.0832H24.5916V27.6665C24.5916 27.9165 24.7549 28.0831 24.9998 28.0831C25.2446 28.0831 25.4079 27.9165 25.4079 27.6665V24.1665H26.6732L26.8773 19.7499C27.3671 19.2499 27.6936 18.5832 27.6936 17.8332C27.6936 16.8749 27.2038 16.0832 26.5099 15.6249H27.0406C27.4079 15.6249 27.6936 15.3333 27.6936 14.9583V13.3333V11.6666V10.1666C27.6936 10.0833 27.6936 9.99996 27.6528 9.91663H34.1834C33.5711 10.3333 33.163 11.0416 33.163 11.8749C33.163 13.1666 34.2242 14.2499 35.4895 14.2499C35.6528 14.2499 35.8569 14.2083 36.0201 14.2083L38.4283 16.6666C38.3875 16.7916 38.3875 16.9582 38.3875 17.0832C38.3875 17.2082 38.3875 17.3332 38.4283 17.4582L33.9385 21.9582C33.8569 21.9582 33.7752 21.9165 33.6936 21.9165C32.5099 21.9165 31.5712 22.8749 31.5712 24.0832C31.5712 24.4998 31.6936 24.8748 31.8569 25.1665L30.4691 26.5832C30.3875 26.6665 30.3467 26.7498 30.3467 26.8748V28.5831C30.3467 28.8331 30.5099 28.9998 30.7548 28.9998C30.9997 28.9998 31.163 28.8331 31.163 28.5831V27.0832L32.3875 25.8332C32.7548 26.1248 33.2038 26.2915 33.6936 26.2915C34.8773 26.2915 35.816 25.3332 35.816 24.1248C35.816 24.0415 35.816 23.9582 35.7752 23.8748L40.1834 19.3749C40.3466 19.4166 40.4691 19.4166 40.6323 19.4166C41.8976 19.4166 42.9589 18.3332 42.9589 17.0416C42.9589 15.7499 41.8976 14.6666 40.6323 14.6666C40.5099 14.6666 40.3466 14.6666 40.2242 14.7083L37.7344 12.1666C37.7344 12.0833 37.7344 11.9583 37.7344 11.8749C37.7344 11.0416 37.3262 10.3333 36.714 9.91663C37.7752 9.91663 38.5915 9.04163 38.5915 7.99998V5H11.4896V7.95831C11.4896 9.04163 12.3467 9.87496 13.3671 9.87496C12.7549 10.2916 12.3467 11 12.3467 11.8333V12.1249L9.89777 14.7083C9.77532 14.6666 9.61206 14.6666 9.48961 14.6666C8.22431 14.6666 7.16309 15.7499 7.16309 17.0416C7.16309 18.3332 8.22431 19.4166 9.48961 19.4166Z" fill="white"/>
</svg>
