<svg width="50" height="50" viewBox="0 0 50 50" fill="none" xmlns="http://www.w3.org/2000/svg">
<path d="M4 44.5208V40.3542C5.59722 40.3542 7.17708 40.25 8.73958 40.0417C10.3021 39.8333 11.8299 39.4514 13.3229 38.8958C11.7257 38.0972 10.467 36.9427 9.54688 35.4323C8.62674 33.9219 8.16667 32.2813 8.16667 30.5104V25.7708H16.5V19.5208H23.5313L16.7083 5.875L20.4583 4L27.2813 17.6458C27.9757 19.0347 27.9236 20.3889 27.125 21.7083C26.3264 23.0278 25.1458 23.6875 23.5833 23.6875H20.6667V25.7708C20.6667 26.9167 20.2587 27.8976 19.4427 28.7135C18.6267 29.5295 17.6458 29.9375 16.5 29.9375H12.3333V30.5104C12.3333 31.7257 12.7066 32.7934 13.4531 33.7135C14.1997 34.6337 15.1458 35.25 16.2917 35.5625L16.9167 35.7188C18.3056 36.066 19.0868 36.934 19.2604 38.3229C19.434 39.7118 18.8958 40.7535 17.6458 41.4479C15.5625 42.5938 13.3663 43.3924 11.0573 43.8438C8.74826 44.2951 6.39583 44.5208 4 44.5208ZM33.7917 38.5833L30.8229 35.6667C31.5521 34.9375 32.125 34.0955 32.5417 33.1406C32.9583 32.1858 33.1667 31.1528 33.1667 30.0417C33.1667 28.9306 32.9583 27.8976 32.5417 26.9427C32.125 25.9878 31.5521 25.1458 30.8229 24.4167L33.7917 21.4479C34.9028 22.559 35.7708 23.8524 36.3958 25.3281C37.0208 26.8038 37.3333 28.375 37.3333 30.0417C37.3333 31.7083 37.0208 33.2708 36.3958 34.7292C35.7708 36.1875 34.9028 37.4722 33.7917 38.5833ZM39.6771 44.5208L36.7083 41.5521C38.2014 40.059 39.3733 38.3316 40.224 36.3698C41.0747 34.408 41.5 32.2986 41.5 30.0417C41.5 27.75 41.0747 25.6319 40.224 23.6875C39.3733 21.7431 38.2014 20.0243 36.7083 18.5313L39.6771 15.5625C41.5521 17.4375 43.0191 19.6076 44.0781 22.0729C45.1372 24.5382 45.6667 27.1944 45.6667 30.0417C45.6667 32.8542 45.1372 35.5017 44.0781 37.9844C43.0191 40.467 41.5521 42.6458 39.6771 44.5208Z" fill="white"/>
</svg>
