<svg width="71" height="61" viewBox="0 0 71 61" fill="none" xmlns="http://www.w3.org/2000/svg">
<path d="M38.332 41.6667L25.832 29.1667L53.4987 1.5C54.1654 0.833333 54.957 0.5 55.8737 0.5C56.7904 0.5 57.582 0.833333 58.2487 1.5L65.9987 9.25C66.6654 9.91667 66.9987 10.7083 66.9987 11.625C66.9987 12.5417 66.6654 13.3333 65.9987 14L38.332 41.6667ZM38.332 32.1667L58.9987 11.5833L55.9154 8.5L35.332 29.1667L38.332 32.1667ZM33.6654 60.5L40.332 53.8333H70.332V60.5H33.6654ZM13.9154 60.5C11.3598 60.5 8.90148 60 6.54036 59C4.17925 58 2.10981 56.6111 0.332031 54.8333L22.4154 32.8333L31.082 41.5C31.8598 42.2778 32.4709 43.1667 32.9154 44.1667C33.3598 45.1667 33.582 46.2222 33.582 47.3333C33.582 48.4444 33.3598 49.5139 32.9154 50.5417C32.4709 51.5694 31.8598 52.4722 31.082 53.25L29.4987 54.8333C27.7209 56.6111 25.6515 58 23.2904 59C20.9293 60 18.4709 60.5 15.9154 60.5H13.9154ZM13.9154 53.8333H15.9154C17.582 53.8333 19.1931 53.5139 20.7487 52.875C22.3043 52.2361 23.6654 51.3333 24.832 50.1667L26.4154 48.5833C26.7487 48.25 26.9154 47.8611 26.9154 47.4167C26.9154 46.9722 26.7487 46.5833 26.4154 46.25L22.4154 42.25L11.082 53.5C11.5265 53.6111 11.9987 53.6944 12.4987 53.75C12.9987 53.8056 13.4709 53.8333 13.9154 53.8333Z" fill="#870064"/>
</svg>
