<svg width="50" height="50" viewBox="0 0 50 50" fill="none" xmlns="http://www.w3.org/2000/svg">
<path d="M25.0002 45.8337C20.2432 45.8337 16.2762 44.2017 13.0991 40.9378C9.92204 37.6739 8.3335 33.6114 8.3335 28.7503C8.3335 25.2781 9.7137 21.5021 12.4741 17.4222C15.2345 13.3423 19.4099 8.92394 25.0002 4.16699C30.5904 8.92394 34.7658 13.3423 37.5262 17.4222C40.2866 21.5021 41.6668 25.2781 41.6668 28.7503C41.6668 33.6114 40.0783 37.6739 36.9012 40.9378C33.7241 44.2017 29.7571 45.8337 25.0002 45.8337ZM25.0002 41.667C28.6113 41.667 31.5974 40.443 33.9585 37.9951C36.3196 35.5472 37.5002 32.4656 37.5002 28.7503C37.5002 26.2156 36.4498 23.351 34.3491 20.1566C32.2484 16.9621 29.1321 13.4725 25.0002 9.68783C20.8682 13.4725 17.7519 16.9621 15.6512 20.1566C13.5505 23.351 12.5002 26.2156 12.5002 28.7503C12.5002 32.4656 13.6807 35.5472 16.0418 37.9951C18.4029 40.443 21.3891 41.667 25.0002 41.667ZM18.7502 37.5003H31.2502V33.3337H18.7502V37.5003ZM22.9168 31.2503H27.0835V27.0837H31.2502V22.917H27.0835V18.7503H22.9168V22.917H18.7502V27.0837H22.9168V31.2503Z" fill="white"/>
</svg>
