<svg width="50" height="50" viewBox="0 0 50 50" fill="none" xmlns="http://www.w3.org/2000/svg">
<path d="M43.9 41.8H38.86V39.2509C40.8854 38.1614 42.5984 36.565 43.8295 34.6127C45.1671 32.4917 45.874 30.0391 45.874 27.52C45.874 20.1787 39.9013 14.206 32.56 14.206H31.7178C31.2173 13.9383 30.6461 13.786 30.04 13.786C29.6645 13.786 29.2974 13.8437 28.948 13.9558V13.24C28.948 12.0821 28.0059 11.14 26.848 11.14H25.315V8.13356C26.2198 7.89987 26.89 7.07675 26.89 6.1C26.89 4.94206 25.9479 4 24.79 4H20.17C19.0121 4 18.07 4.94206 18.07 6.1C18.07 7.07675 18.7402 7.89987 19.645 8.13356V11.14H18.406C17.2712 11.14 16.348 12.0632 16.348 13.198V17.02H16.306C15.1481 17.02 14.206 17.9621 14.206 19.12C14.206 20.2779 15.1481 21.22 16.306 21.22H16.348V22.06C16.348 22.9985 16.9669 23.7951 17.818 24.0633V25.84C17.818 26.5348 18.3832 27.1 19.078 27.1H20.758C21.4528 27.1 22.018 26.5348 22.018 25.84V24.0633C22.8691 23.7951 23.488 22.9985 23.488 22.06V21.22H28.654C29.0533 21.22 29.4269 21.1079 29.7451 20.9137C29.8431 20.9217 29.9416 20.926 30.04 20.926C30.6462 20.926 31.2173 20.7737 31.7178 20.506H32.56C36.4275 20.506 39.574 23.6525 39.574 27.52C39.574 27.847 39.5513 28.1757 39.5065 28.4969C39.4587 28.8416 39.6991 29.1598 40.0437 29.2078C40.0732 29.2119 40.1024 29.2139 40.1314 29.2139C40.4408 29.2139 40.7107 28.9858 40.7546 28.6706C40.8073 28.292 40.834 27.9049 40.834 27.52C40.834 23.1245 37.3887 19.5192 33.0568 19.2614C33.4066 18.7096 33.61 18.0563 33.61 17.356C33.61 16.6672 33.4134 16.0238 33.0741 15.4777C39.4831 15.7481 44.614 21.0457 44.614 27.52C44.614 31.7667 42.4309 35.6174 38.8542 37.8016C38.7955 36.4354 38.1908 35.2088 37.2527 34.3344C38.2505 33.6467 39.0887 32.7477 39.7055 31.694C39.8813 31.3937 39.7803 31.0078 39.48 30.832C39.1796 30.6562 38.7938 30.7571 38.618 31.0575C38.0155 32.0867 37.164 32.9423 36.1434 33.5497C35.4477 33.1866 34.6577 32.98 33.82 32.98C32.6024 32.98 31.4854 33.4152 30.6133 34.1366C30.2671 33.4513 29.5567 32.98 28.738 32.98H26.2521C26.3649 32.7226 26.428 32.4385 26.428 32.14C26.428 30.9821 25.4859 30.04 24.328 30.04H15.508C14.3501 30.04 13.408 30.9821 13.408 32.14C13.408 32.4385 13.471 32.7226 13.5839 32.98H11.098C9.94006 32.98 8.998 33.9221 8.998 35.08C8.998 36.2379 9.94006 37.18 11.098 37.18H14.878V41.8H12.316C11.968 41.8 11.686 42.082 11.686 42.43C11.686 42.778 11.968 43.06 12.316 43.06H43.9C44.3632 43.06 44.74 43.4368 44.74 43.9C44.74 44.3632 44.3632 44.74 43.9 44.74H6.1C5.63682 44.74 5.26 44.3632 5.26 43.9C5.26 43.4368 5.63682 43.06 6.1 43.06H9.376C9.72401 43.06 10.006 42.778 10.006 42.43C10.006 42.082 9.72401 41.8 9.376 41.8H6.1C4.94206 41.8 4 42.7421 4 43.9C4 45.0579 4.94206 46 6.1 46H43.9C45.0579 46 46 45.0579 46 43.9C46 42.7421 45.0579 41.8 43.9 41.8ZM24.055 8.2V11.14H20.905V8.2H24.055ZM20.758 25.84H19.078V24.16H20.758V25.84ZM28.654 19.96H16.306C15.8428 19.96 15.466 19.5832 15.466 19.12C15.466 18.6568 15.8428 18.28 16.306 18.28H28.654C29.1172 18.28 29.494 18.6568 29.494 19.12C29.494 19.5832 29.1172 19.96 28.654 19.96ZM30.7054 19.5679C30.7369 19.4235 30.754 19.2737 30.754 19.12C30.754 18.0619 29.9672 17.1845 28.948 17.041V15.3213C29.282 15.1413 29.6539 15.046 30.04 15.046C31.3137 15.046 32.35 16.0823 32.35 17.356C32.35 18.3984 31.6557 19.2814 30.7054 19.5679ZM23.698 41.8H16.138V37.18H23.698V41.8ZM28.78 38.02V41.8H24.958V37.18H28.738C28.7758 37.18 28.8133 37.1789 28.8506 37.1769C28.8043 37.4512 28.78 37.7328 28.78 38.02ZM28.738 35.92H11.098C10.6348 35.92 10.258 35.5432 10.258 35.08C10.258 34.6168 10.6348 34.24 11.098 34.24H28.738C29.2012 34.24 29.578 34.6168 29.578 35.08C29.578 35.5432 29.2012 35.92 28.738 35.92ZM33.82 40.12C32.6621 40.12 31.72 39.1779 31.72 38.02C31.72 36.8621 32.6621 35.92 33.82 35.92C34.9779 35.92 35.92 36.8621 35.92 38.02C35.92 39.1779 34.9779 40.12 33.82 40.12Z" fill="white"/>
<path d="M33.82 38.8597C34.2839 38.8597 34.66 38.4836 34.66 38.0197C34.66 37.5558 34.2839 37.1797 33.82 37.1797C33.3561 37.1797 32.98 37.5558 32.98 38.0197C32.98 38.4836 33.3561 38.8597 33.82 38.8597Z" fill="white"/>
</svg>
