<svg width="50" height="50" viewBox="0 0 50 50" fill="none" xmlns="http://www.w3.org/2000/svg">
<path d="M24.2349 13.749H25.7649V15.249H24.2349V13.749Z" fill="white"/>
<path d="M32.6505 12.9997C32.3832 13.0005 32.1207 13.0702 31.8895 13.2019C31.6582 13.3335 31.4664 13.5224 31.3331 13.7497H29.5215C29.4067 13.0817 29.1385 12.448 28.7374 11.8965L30.0196 10.6395C30.2772 10.7118 30.5501 10.7146 30.8092 10.6474C31.0683 10.5802 31.3041 10.4455 31.4915 10.2577C31.6825 10.0721 31.8203 9.84039 31.8909 9.58595C31.9614 9.3315 31.9624 9.06332 31.8935 8.80842C31.8247 8.55353 31.6885 8.32092 31.4987 8.13406C31.309 7.94719 31.0723 7.81267 30.8126 7.74405C30.5529 7.67542 30.2794 7.67512 30.0195 7.74318C29.7596 7.81123 29.5227 7.94524 29.3325 8.13169C29.1423 8.31814 29.0056 8.55044 28.9362 8.80519C28.8668 9.05994 28.8671 9.32812 28.937 9.58272L27.6548 10.8397C27.0928 10.4452 26.4466 10.1811 25.7652 10.0672V8.29122C26.0569 8.12612 26.2849 7.87127 26.4138 7.56621C26.5427 7.26114 26.5653 6.92291 26.4781 6.60396C26.3909 6.28501 26.1988 6.00317 25.9316 5.80216C25.6644 5.60114 25.337 5.49219 25.0002 5.49219C24.6633 5.49219 24.3359 5.60114 24.0687 5.80216C23.8015 6.00317 23.6094 6.28501 23.5222 6.60396C23.435 6.92291 23.4577 7.26114 23.5866 7.56621C23.7155 7.87127 23.9434 8.12612 24.2351 8.29122V10.0672C23.5537 10.1798 22.9073 10.4427 22.3447 10.836L21.0625 9.57897C21.1323 9.32608 21.133 9.05966 21.0647 8.80641C20.9963 8.55315 20.8613 8.32195 20.6731 8.13597C20.4836 7.94377 20.2456 7.80426 19.9832 7.73168C19.7208 7.6591 19.4434 7.65604 19.1794 7.72281C18.9155 7.78959 18.6742 7.92381 18.4804 8.11178C18.2866 8.29976 18.1471 8.53476 18.0761 8.79283C18.0052 9.0509 18.0053 9.32281 18.0765 9.58081C18.1477 9.83882 18.2874 10.0737 18.4814 10.2615C18.6755 10.4493 18.9168 10.5833 19.1808 10.6498C19.4449 10.7164 19.7222 10.713 19.9846 10.6402L21.2668 11.8972C20.8644 12.4482 20.5949 13.0817 20.4788 13.7497H18.6672C18.4988 13.4637 18.2388 13.2403 17.9276 13.1139C17.6164 12.9875 17.2714 12.9654 16.9461 13.0508C16.6207 13.1363 16.3332 13.3246 16.1282 13.5866C15.9232 13.8485 15.812 14.1695 15.812 14.4997C15.812 14.8299 15.9232 15.1509 16.1282 15.4128C16.3332 15.6748 16.6207 15.8631 16.9461 15.9486C17.2714 16.0341 17.6164 16.0119 17.9276 15.8855C18.2388 15.7592 18.4988 15.5357 18.6672 15.2497H20.4788C20.5937 15.9177 20.8618 16.5514 21.2629 17.103L19.9807 18.3599C19.7228 18.2921 19.4511 18.2916 19.1929 18.3586C18.9347 18.4256 18.6988 18.5576 18.5088 18.7417C18.3178 18.9273 18.18 19.159 18.1095 19.4135C18.0389 19.6679 18.038 19.9361 18.1068 20.191C18.1757 20.4459 18.3118 20.6785 18.5016 20.8654C18.6914 21.0522 18.928 21.1867 19.1877 21.2554C19.4474 21.324 19.721 21.3243 19.9808 21.2562C20.2407 21.1882 20.4777 21.0542 20.6678 20.8677C20.858 20.6813 20.9947 20.449 21.0642 20.1942C21.1336 19.9395 21.1333 19.6713 21.0633 19.4167L22.3455 18.1597C22.9075 18.5542 23.5537 18.8184 24.2351 18.9322V20.7082C23.9434 20.8733 23.7155 21.1281 23.5866 21.4332C23.4577 21.7383 23.435 22.0765 23.5222 22.3955C23.6094 22.7144 23.8015 22.9962 24.0687 23.1973C24.3359 23.3983 24.6633 23.5072 25.0002 23.5072C25.337 23.5072 25.6644 23.3983 25.9316 23.1973C26.1988 22.9962 26.3909 22.7144 26.4781 22.3955C26.5653 22.0765 26.5427 21.7383 26.4138 21.4332C26.2849 21.1281 26.0569 20.8733 25.7652 20.7082V18.9322C26.4466 18.8196 27.093 18.5567 27.6556 18.1634L28.9378 19.4204C28.868 19.6733 28.8673 19.9397 28.9356 20.193C29.004 20.4463 29.139 20.6775 29.3272 20.8634C29.5166 21.0507 29.7529 21.1858 30.0125 21.2549C30.272 21.3241 30.5456 21.325 30.8056 21.2575C31.0656 21.1901 31.3029 21.0566 31.4935 20.8705C31.6841 20.6845 31.8213 20.4525 31.8913 20.1979C31.9613 19.9433 31.9616 19.6751 31.8922 19.4204C31.8228 19.1656 31.6861 18.9333 31.4959 18.7469C31.3057 18.5604 31.0687 18.4264 30.8089 18.3583C30.549 18.2903 30.2755 18.2906 30.0158 18.3592L28.7336 17.1022C29.136 16.5512 29.4054 15.9177 29.5215 15.2497H31.3331C31.4676 15.478 31.6611 15.6675 31.894 15.7992C32.127 15.9309 32.3913 16 32.6602 15.9997C32.9291 15.9993 33.1931 15.9295 33.4258 15.7973C33.6584 15.6651 33.8514 15.475 33.9852 15.2464C34.1191 15.0178 34.1891 14.7586 34.1883 14.495C34.1874 14.2314 34.1157 13.9726 33.9804 13.7448C33.8451 13.517 33.6509 13.3282 33.4174 13.1974C33.184 13.0666 32.9195 12.9984 32.6505 12.9997ZM27.0711 15.4695L25.9894 16.53L26.5448 17.0745C26.0795 17.3526 25.5451 17.4997 25.0002 17.4997C24.4552 17.4997 23.9208 17.3526 23.4556 17.0745L24.011 16.53L22.9292 15.4695L22.3738 16.014C22.0901 15.5578 21.94 15.0339 21.94 14.4997C21.94 13.9655 22.0901 13.4416 22.3738 12.9855L22.9292 13.53L24.011 12.4695L23.4556 11.925C23.9208 11.6468 24.4552 11.4997 25.0002 11.4997C25.5451 11.4997 26.0795 11.6468 26.5448 11.925L25.9894 12.4695L27.0711 13.53L27.6265 12.9855C27.9102 13.4416 28.0603 13.9655 28.0603 14.4997C28.0603 15.0339 27.9102 15.5578 27.6265 16.014L27.0711 15.4695Z" fill="white"/>
<path d="M37.241 14.5C37.241 12.1266 36.5231 9.80654 35.1781 7.83315C33.8331 5.85977 31.9213 4.3217 29.6847 3.41345C27.448 2.5052 24.9868 2.26756 22.6124 2.73058C20.2379 3.1936 18.0568 4.33649 16.345 6.01472C14.6331 7.69294 13.4673 9.83113 12.995 12.1589C12.5227 14.4867 12.7651 16.8995 13.6915 19.0922C14.618 21.2849 16.1869 23.159 18.1999 24.4776C20.2128 25.7962 22.5794 26.5 25.0004 26.5C28.2456 26.4962 31.3568 25.2307 33.6516 22.9811C35.9463 20.7315 37.2372 17.6814 37.241 14.5ZM25.0004 25C22.882 25 20.8113 24.3841 19.0499 23.2304C17.2886 22.0766 15.9158 20.4368 15.1051 18.5181C14.2945 16.5995 14.0824 14.4883 14.4956 12.4515C14.9089 10.4147 15.929 8.54382 17.4269 7.07537C18.9248 5.60693 20.8332 4.6069 22.9109 4.20176C24.9885 3.79661 27.142 4.00455 29.0991 4.79927C31.0562 5.59398 32.729 6.93979 33.9059 8.6665C35.0828 10.3932 35.7109 12.4233 35.7109 14.5C35.7079 17.2838 34.5785 19.9528 32.5705 21.9213C30.5626 23.8898 27.8401 24.997 25.0004 25Z" fill="white"/>
<path d="M44.9677 12.0999C44.1694 11.9625 43.3481 12.1412 42.684 12.5968C42.0199 13.0523 41.5674 13.7476 41.4256 14.5299L40.1403 21.6774C39.5739 21.5166 38.972 21.5211 38.4082 21.6902C37.8444 21.8594 37.343 22.1859 36.9654 22.6299L31.2735 29.2824C29.758 31.0468 28.7633 33.1838 28.397 35.4623L27.4101 41.4998H27.2953C27.0924 41.4998 26.8978 41.5789 26.7543 41.7195C26.6109 41.8602 26.5303 42.0509 26.5303 42.2498V47.4998H28.0604V42.9998H38.7709V47.4998H40.301V42.2498C40.3005 42.0776 40.2381 41.9109 40.1248 41.7793C40.0115 41.6476 39.8544 41.5593 39.6813 41.5298L40.0409 39.5123C40.2076 38.5831 40.5725 37.6988 41.1119 36.9173L43.866 32.9049C44.2858 32.2947 44.57 31.6047 44.6999 30.8799L47.4541 15.5724C47.5941 14.7887 47.4108 13.9825 46.9445 13.3313C46.4782 12.6801 45.7671 12.2371 44.9677 12.0999ZM45.947 15.3099L43.1928 30.6174C43.1043 31.1368 42.9006 31.631 42.5961 32.0649L39.8419 36.0773C39.1815 37.0348 38.7356 38.1186 38.5337 39.2573L38.1283 41.4998H28.9554L29.9041 35.6948C30.2339 33.6861 31.1115 31.8022 32.444 30.2424L38.1359 23.5899C38.3984 23.2867 38.7726 23.0976 39.1768 23.0639C39.5809 23.0302 39.9823 23.1546 40.2933 23.4099C40.4477 23.5355 40.5752 23.6898 40.6685 23.864C40.7617 24.0381 40.8189 24.2287 40.8367 24.4246C40.8544 24.6205 40.8325 24.8179 40.7721 25.0055C40.7116 25.193 40.6139 25.367 40.4846 25.5174L35.0758 31.8399L36.2463 32.8074L41.6551 26.4849C42.1312 25.9243 42.3822 25.2127 42.3611 24.4836C42.3399 23.7545 42.0481 23.058 41.5403 22.5249L42.9327 14.7924C42.9664 14.5983 43.0393 14.4128 43.147 14.2467C43.2547 14.0806 43.3951 13.9372 43.56 13.8249C43.7243 13.7097 43.9107 13.6284 44.1079 13.5858C44.3052 13.5433 44.5092 13.5404 44.7076 13.5774C45.1058 13.6469 45.4597 13.8682 45.692 14.1929C45.9242 14.5175 46.0159 14.9192 45.947 15.3099Z" fill="white"/>
<path d="M22.7053 41.4982H22.5906L21.6037 35.4607C21.2373 33.1821 20.2426 31.0451 18.7271 29.2807L13.0352 22.6282C12.6576 22.1842 12.1563 21.8577 11.5924 21.6886C11.0286 21.5194 10.4267 21.5149 9.86032 21.6757L8.57505 14.5282C8.43403 13.7445 7.98122 13.0478 7.31623 12.5914C6.65123 12.135 5.82853 11.9562 5.0291 12.0945C4.22967 12.2327 3.519 12.6766 3.05343 13.3285C2.58786 13.9805 2.40553 14.787 2.54655 15.5707L5.30069 30.8782C5.43066 31.603 5.71478 32.293 6.13458 32.9032L8.88872 36.9157C9.42808 37.6971 9.79306 38.5814 9.95977 39.5107L10.3193 41.5282C10.1462 41.5576 9.98916 41.6459 9.87583 41.7776C9.76251 41.9093 9.70013 42.0759 9.69966 42.2482V47.4981H11.2297V42.9981H21.9403V47.4981H23.4703V42.2482C23.4703 42.0492 23.3897 41.8585 23.2463 41.7178C23.1028 41.5772 22.9082 41.4982 22.7053 41.4982ZM11.8724 41.4982L11.4669 39.2557C11.265 38.1169 10.8192 37.0331 10.1587 36.0757L7.40454 32.0632C7.10002 31.6293 6.89632 31.1352 6.80781 30.6157L4.05367 15.3082C3.98471 14.9175 4.07638 14.5159 4.30863 14.1912C4.54088 13.8665 4.89481 13.6452 5.29304 13.5757C5.49145 13.5387 5.69544 13.5416 5.89269 13.5842C6.08993 13.6267 6.27633 13.708 6.44059 13.8232C6.60549 13.9355 6.74589 14.0789 6.85361 14.245C6.96132 14.4112 7.03418 14.5967 7.06793 14.7907L8.4603 22.5232C7.95253 23.0563 7.66069 23.7528 7.63956 24.4819C7.61844 25.211 7.86946 25.9226 8.34554 26.4832L13.7544 32.8057L14.9249 31.8382L9.51605 25.5157C9.3867 25.3653 9.289 25.1913 9.22857 25.0038C9.16814 24.8162 9.14618 24.6188 9.16396 24.4229C9.18174 24.227 9.23891 24.0364 9.33216 23.8623C9.42542 23.6881 9.55292 23.5338 9.70731 23.4082C10.0183 23.1529 10.4197 23.0285 10.8239 23.0622C11.228 23.096 11.6022 23.285 11.8647 23.5882L17.5566 30.2407C18.8891 31.8005 19.7667 33.6844 20.0965 35.6932L21.0452 41.4982H11.8724Z" fill="white"/>
</svg>
