<svg width="50" height="50" viewBox="0 0 50 50" fill="none" xmlns="http://www.w3.org/2000/svg">
<path d="M40.9469 28.5699C42.5744 26.5552 41.9444 23.1887 41.9181 23.0377C41.8656 22.7752 41.6622 22.5718 41.3997 22.5193C41.2422 22.4931 37.5278 21.7909 35.5656 23.7531C34.7059 24.6127 34.3581 25.8071 34.24 26.8965C33.4197 25.7349 32.0809 24.3568 29.9219 23.1165C29.6069 22.9393 29.2066 23.0443 29.0228 23.3593C28.8456 23.6743 28.9506 24.0746 29.2656 24.2584C31.405 25.479 32.6387 26.8506 33.3409 27.9137C32.8684 27.7365 32.3828 27.6249 31.8709 27.6249C28.0844 27.6249 25 31.4509 25 36.1562C25 40.8615 28.0844 44.6874 31.8709 44.6874C32.9669 44.6874 33.9709 44.1756 34.8438 43.6112C35.7166 44.1756 36.7206 44.6874 37.8166 44.6874C41.6031 44.6874 44.6875 40.8615 44.6875 36.1562C44.6875 32.8552 43.165 29.9874 40.9469 28.5699ZM39.7591 27.9465C39.7591 27.9465 39.7394 27.9596 39.7328 27.9662C39.1225 27.7496 38.4794 27.6249 37.8166 27.6249C36.9897 27.6249 36.2153 27.9137 35.5131 28.3009C35.4606 27.2377 35.5525 25.6168 36.4909 24.6784C37.6197 23.5496 39.7591 23.6415 40.6909 23.7465C40.7959 24.6784 40.8878 26.8177 39.7591 27.9465Z" fill="white"/>
<path d="M11.2188 35.5003C11.3303 35.5003 11.4419 35.4741 11.5403 35.415L16.7903 32.4619C17.0003 32.3437 17.125 32.1272 17.125 31.8909V25.9847C17.125 25.7484 17.0003 25.5319 16.7903 25.4138L11.5403 22.4606C11.3434 22.3491 11.0941 22.3491 10.8972 22.4606L5.64719 25.4138C5.43719 25.5319 5.3125 25.7484 5.3125 25.9847V31.8909C5.3125 32.1272 5.43719 32.3437 5.64719 32.4619L10.8972 35.415C10.9956 35.4741 11.1072 35.5003 11.2188 35.5003Z" fill="white"/>
<path d="M22.375 6.625H34.8438C35.1325 6.625 35.3884 6.82188 35.4737 7.10406C35.5591 7.38625 35.8216 7.57 36.1037 7.57C36.1628 7.57 36.2284 7.56344 36.2941 7.54375C36.6419 7.43875 36.8388 7.07125 36.7338 6.72344C36.4844 5.89 35.71 5.3125 34.8438 5.3125H22.375C22.0141 5.3125 21.7188 5.60781 21.7188 5.96875C21.7188 6.32969 22.0141 6.625 22.375 6.625Z" fill="white"/>
<path d="M11.2188 20.6753C11.5797 20.6753 11.875 20.38 11.875 20.0191V7.28125C11.875 6.92031 12.1703 6.625 12.5312 6.625H19.75C20.1109 6.625 20.4062 6.32969 20.4062 5.96875C20.4062 5.60781 20.1109 5.3125 19.75 5.3125H12.5312C11.4484 5.3125 10.5625 6.19844 10.5625 7.28125V20.0191C10.5625 20.38 10.8578 20.6753 11.2188 20.6753Z" fill="white"/>
<path d="M31.5625 9.25H15.8125C15.4516 9.25 15.1562 9.54531 15.1562 9.90625C15.1562 10.2672 15.4516 10.5625 15.8125 10.5625H31.5625C31.9234 10.5625 32.2188 10.2672 32.2188 9.90625C32.2188 9.54531 31.9234 9.25 31.5625 9.25Z" fill="white"/>
<path d="M31.5625 13.1875H15.8125C15.4516 13.1875 15.1562 13.4828 15.1562 13.8438C15.1562 14.2047 15.4516 14.5 15.8125 14.5H31.5625C31.9234 14.5 32.2188 14.2047 32.2188 13.8438C32.2188 13.4828 31.9234 13.1875 31.5625 13.1875Z" fill="white"/>
<path d="M25 17.125H15.8125C15.4516 17.125 15.1562 17.4203 15.1562 17.7812C15.1562 18.1422 15.4516 18.4375 15.8125 18.4375H25C25.3609 18.4375 25.6562 18.1422 25.6562 17.7812C25.6562 17.4203 25.3609 17.125 25 17.125Z" fill="white"/>
<path d="M25 21.0625H15.8125C15.4516 21.0625 15.1562 21.3578 15.1562 21.7188C15.1562 22.0797 15.4516 22.375 15.8125 22.375H25C25.3609 22.375 25.6562 22.0797 25.6562 21.7188C25.6562 21.3578 25.3609 21.0625 25 21.0625Z" fill="white"/>
<path d="M31.5625 17.125H27.625C27.2641 17.125 26.9688 17.4203 26.9688 17.7812C26.9688 18.1422 27.2641 18.4375 27.625 18.4375H31.5625C31.9234 18.4375 32.2188 18.1422 32.2188 17.7812C32.2188 17.4203 31.9234 17.125 31.5625 17.125Z" fill="white"/>
<path d="M25 25H19.0938C18.7328 25 18.4375 25.2953 18.4375 25.6562C18.4375 26.0172 18.7328 26.3125 19.0938 26.3125H25C25.3609 26.3125 25.6562 26.0172 25.6562 25.6562C25.6562 25.2953 25.3609 25 25 25Z" fill="white"/>
<path d="M25 28.9375H19.0938C18.7328 28.9375 18.4375 29.2328 18.4375 29.5938C18.4375 29.9547 18.7328 30.25 19.0938 30.25H25C25.3609 30.25 25.6562 29.9547 25.6562 29.5938C25.6562 29.2328 25.3609 28.9375 25 28.9375Z" fill="white"/>
<path d="M26.0369 43.375H12.5312C12.1703 43.375 11.875 43.0797 11.875 42.7188V38.125H23.0312C23.3922 38.125 23.6875 37.8297 23.6875 37.4688C23.6875 37.1078 23.3922 36.8125 23.0312 36.8125H11.2188C10.8578 36.8125 10.5625 37.1078 10.5625 37.4688V42.7188C10.5625 43.8016 11.4484 44.6875 12.5312 44.6875H26.0369C26.3978 44.6875 26.6931 44.3922 26.6931 44.0312C26.6931 43.6703 26.3978 43.375 26.0369 43.375Z" fill="white"/>
<path d="M39.4376 20.4065C42.3316 20.4065 44.6876 18.0309 44.6876 15.1105C44.6876 14.0212 44.1691 12.7021 43.1388 11.1927C42.9354 10.8909 42.5285 10.8121 42.2266 11.0221C41.9247 11.2255 41.846 11.6324 42.056 11.9343C42.9222 13.2074 43.3816 14.3099 43.3816 15.1171C43.3816 17.3155 41.6163 19.1005 39.4441 19.1005C37.2719 19.1005 35.5066 17.3155 35.5066 15.1171C35.5066 13.168 38.0332 10.2543 39.4441 8.85648C39.7066 9.11898 40.0676 9.49305 40.4679 9.9393C40.7107 10.2084 41.1241 10.2346 41.3932 9.9918C41.6622 9.74898 41.6885 9.33555 41.4457 9.06648C40.5991 8.12148 39.9232 7.49148 39.8904 7.46523C39.641 7.23555 39.2538 7.23555 39.0044 7.46523C38.8076 7.64242 34.2007 11.9146 34.2007 15.1237C34.2007 18.044 36.5566 20.4196 39.4507 20.4196L39.4376 20.4065Z" fill="white"/>
</svg>
