<svg width="50" height="50" viewBox="0 0 50 50" fill="none" xmlns="http://www.w3.org/2000/svg">
<mask id="mask0_59_1192" style="mask-type:alpha" maskUnits="userSpaceOnUse" x="4" y="4" width="42" height="42">
<rect x="4" y="4" width="42" height="42" fill="#D9D9D9"/>
</mask>
<g mask="url(#mask0_59_1192)">
<path d="M17.125 9.25C18.6417 9.25 20.0854 9.57083 21.4563 10.2125C22.8271 10.8542 24.0083 11.7583 25 12.925C25.9917 11.7583 27.1729 10.8542 28.5438 10.2125C29.9146 9.57083 31.3583 9.25 32.875 9.25C35.6167 9.25 37.9063 10.1687 39.7438 12.0062C41.5813 13.8437 42.5 16.1333 42.5 18.875C42.5 19.0208 42.4927 19.1667 42.4781 19.3125C42.4635 19.4583 42.4563 19.6042 42.4563 19.75H38.9563C38.9854 19.6042 39 19.4583 39 19.3125V18.875C39 17.125 38.4167 15.6667 37.25 14.5C36.0833 13.3333 34.625 12.75 32.875 12.75C31.5042 12.75 30.2354 13.1365 29.0687 13.9094C27.9021 14.6823 27.1 15.6667 26.6625 16.8625H23.3375C22.9 15.6667 22.0979 14.6823 20.9313 13.9094C19.7646 13.1365 18.4958 12.75 17.125 12.75C15.375 12.75 13.9167 13.3333 12.75 14.5C11.5833 15.6667 11 17.125 11 18.875V19.3125C11 19.4583 11.0146 19.6042 11.0438 19.75H7.54375C7.54375 19.6042 7.53646 19.4583 7.52188 19.3125C7.50729 19.1667 7.5 19.0208 7.5 18.875C7.5 16.1333 8.41875 13.8437 10.2563 12.0062C12.0938 10.1687 14.3833 9.25 17.125 9.25ZM13.275 30.25H18.175C19.1083 31.1542 20.1292 32.1312 21.2375 33.1812C22.3458 34.2312 23.6 35.3833 25 36.6375C26.4 35.3833 27.6542 34.2312 28.7625 33.1812C29.8708 32.1312 30.8917 31.1542 31.825 30.25H36.7688C35.6604 31.475 34.3479 32.8021 32.8313 34.2312C31.3146 35.6604 29.55 37.2792 27.5375 39.0875L25 41.3625L22.4625 39.0875C20.45 37.2792 18.6927 35.6604 17.1906 34.2312C15.6885 32.8021 14.3833 31.475 13.275 30.25ZM23.3375 32C23.7167 32 24.0448 31.8906 24.3219 31.6719C24.599 31.4531 24.7958 31.1687 24.9125 30.8187L27.275 23.6875L28.8063 25.9625C28.9521 26.1958 29.1563 26.3854 29.4188 26.5312C29.6813 26.6771 29.9583 26.75 30.25 26.75H44.25V23.25H31.2562L28.2375 18.7875C28.0625 18.525 27.8365 18.3281 27.5594 18.1969C27.2823 18.0656 26.9833 18 26.6625 18C26.2833 18 25.9552 18.1094 25.6781 18.3281C25.401 18.5469 25.2042 18.8312 25.0875 19.1812L22.725 26.2687L21.2375 24.0375C21.0917 23.8042 20.8875 23.6146 20.625 23.4687C20.3625 23.3229 20.0854 23.25 19.7938 23.25H5.75V26.75H18.7438L21.7625 31.2125C21.9375 31.475 22.1635 31.6719 22.4406 31.8031C22.7177 31.9344 23.0167 32 23.3375 32Z" fill="white"/>
</g>
</svg>
