<svg width="50" height="50" viewBox="0 0 50 50" fill="none" xmlns="http://www.w3.org/2000/svg">
<g clip-path="url(#clip0_61_1223)">
<path d="M43.75 40.625H25.8938C23.9827 39.9106 22.335 38.6306 21.1703 36.9555C20.0056 35.2805 19.3793 33.2902 19.375 31.25C19.3786 30.8319 19.4078 30.4145 19.4625 30H30C30.1658 30 30.3247 29.9342 30.4419 29.8169C30.5592 29.6997 30.625 29.5408 30.625 29.375V26.875C30.625 26.7092 30.5592 26.5503 30.4419 26.4331C30.3247 26.3158 30.1658 26.25 30 26.25H10C9.83424 26.25 9.67527 26.3158 9.55806 26.4331C9.44085 26.5503 9.375 26.7092 9.375 26.875V29.375C9.375 29.5408 9.44085 29.6997 9.55806 29.8169C9.67527 29.9342 9.83424 30 10 30H15.6875C15.65 30.4062 15.625 30.825 15.625 31.25C15.6256 34.7298 16.9456 38.08 19.3187 40.625H6.25C6.08424 40.625 5.92527 40.6908 5.80806 40.8081C5.69085 40.9253 5.625 41.0842 5.625 41.25V43.75C5.625 43.9158 5.69085 44.0747 5.80806 44.1919C5.92527 44.3092 6.08424 44.375 6.25 44.375H43.75C43.9158 44.375 44.0747 44.3092 44.1919 44.1919C44.3092 44.0747 44.375 43.9158 44.375 43.75V41.25C44.375 41.0842 44.3092 40.9253 44.1919 40.8081C44.0747 40.6908 43.9158 40.625 43.75 40.625ZM21.1125 40.625C19.7814 39.4525 18.7151 38.0101 17.9845 36.3937C17.2539 34.7773 16.8757 33.0239 16.875 31.25C16.875 30.825 16.9063 30.4062 16.9438 30H18.1938C18.1487 30.4152 18.1257 30.8324 18.125 31.25C18.129 33.1064 18.5908 34.9332 19.4695 36.5685C20.3482 38.2038 21.6166 39.5971 23.1625 40.625H21.1125Z" fill="white"/>
<path d="M10.625 19.375C10.4592 19.375 10.3003 19.4408 10.1831 19.5581C10.0658 19.6753 10 19.8342 10 20V25C10 25.1658 10.0658 25.3247 10.1831 25.4419C10.3003 25.5592 10.4592 25.625 10.625 25.625H19.375C20.2038 25.625 20.9987 25.2958 21.5847 24.7097C22.1708 24.1237 22.5 23.3288 22.5 22.5C22.5 21.6712 22.1708 20.8763 21.5847 20.2903C20.9987 19.7042 20.2038 19.375 19.375 19.375H10.625Z" fill="white"/>
<path d="M26.25 25.625C27.9759 25.625 29.375 24.2259 29.375 22.5C29.375 20.7741 27.9759 19.375 26.25 19.375C24.5241 19.375 23.125 20.7741 23.125 22.5C23.125 24.2259 24.5241 25.625 26.25 25.625Z" fill="white"/>
<path d="M6.25 15.625H22.5C22.6658 15.625 22.8247 15.5592 22.9419 15.4419C23.0592 15.3247 23.125 15.1658 23.125 15V6.25C23.125 6.08424 23.0592 5.92527 22.9419 5.80806C22.8247 5.69085 22.6658 5.625 22.5 5.625H6.25C6.08424 5.625 5.92527 5.69085 5.80806 5.80806C5.69085 5.92527 5.625 6.08424 5.625 6.25V15C5.625 15.1658 5.69085 15.3247 5.80806 15.4419C5.92527 15.5592 6.08424 15.625 6.25 15.625ZM8.125 10H10.9375L12.625 7.75C12.6886 7.66429 12.7732 7.59631 12.8706 7.55255C12.9679 7.50879 13.0749 7.4907 13.1813 7.5C13.2869 7.51012 13.3883 7.54699 13.4758 7.60713C13.5632 7.66727 13.634 7.7487 13.6813 7.84375L15.625 11.725L16.3188 10.3438C16.3707 10.2407 16.4502 10.154 16.5483 10.0933C16.6465 10.0327 16.7596 10.0003 16.875 10H20.625V11.25H17.2625L16.1812 13.4062C16.1288 13.5086 16.0491 13.5945 15.951 13.6545C15.8528 13.7145 15.74 13.7463 15.625 13.7463C15.51 13.7463 15.3972 13.7145 15.299 13.6545C15.2009 13.5945 15.1212 13.5086 15.0688 13.4062L13.0187 9.30625L11.7687 11C11.7105 11.0776 11.635 11.1406 11.5483 11.184C11.4615 11.2274 11.3658 11.25 11.2687 11.25H8.125V10Z" fill="white"/>
<path d="M29.9999 36.25C28.6999 36.25 27.4062 35 26.4562 32.8312L25.3062 33.3313C26.4874 36.0188 28.1249 37.5 29.9999 37.5H37.4999C41.0062 37.5 43.7499 32.0063 43.7499 25C43.7499 17.9937 41.0062 12.5 37.4999 12.5H29.9999C28.1249 12.5 26.4874 13.9812 25.3062 16.6688L26.4562 17.1687C27.4062 15 28.6999 13.75 29.9999 13.75C32.7124 13.75 34.9999 18.9 34.9999 25C34.9999 31.1 32.7124 36.25 29.9999 36.25Z" fill="white"/>
</g>
<defs>
<clipPath id="clip0_61_1223">
<rect width="40" height="40" fill="white" transform="translate(5 5)"/>
</clipPath>
</defs>
</svg>
