<svg width="50" height="50" viewBox="0 0 50 50" fill="none" xmlns="http://www.w3.org/2000/svg">
<path d="M11.0256 18.3701H10.0456C8.96801 18.3701 8.0918 19.2463 8.0918 20.3233V26.9285H11.0256V18.3701Z" fill="white"/>
<path d="M25.9512 33.9102V30.7285H24.0422V33.9102C24.0422 34.262 23.7576 34.5466 23.4058 34.5466H20.2241V36.455H23.4058C23.7576 36.455 24.0422 36.7396 24.0422 37.0913V40.2731H25.9512V37.0913C25.9512 36.7396 26.2358 36.455 26.5876 36.455H29.7693V34.5466H26.5876C26.2358 34.5466 25.9512 34.262 25.9512 33.9102Z" fill="white"/>
<path d="M18.2802 26.9282C18.9936 26.9282 19.653 26.5348 20.001 25.9022L20.9499 24.1498C20.9506 24.1484 20.9516 24.1472 20.9524 24.1458L20.9536 24.1435C21.5154 23.1057 22.6004 22.4613 23.7842 22.4613H38.2101V7.18345C38.2101 6.13075 37.3538 5.27441 36.3011 5.27441H14.2074C13.1547 5.27441 12.2983 6.13075 12.2983 7.18345V26.9282H18.2802ZM35.5218 19.2858H27.4277C27.076 19.2858 26.7913 19.0012 26.7913 18.6495C26.7913 18.2977 27.076 18.0131 27.4277 18.0131H35.5218C35.8736 18.0131 36.1582 18.2977 36.1582 18.6495C36.1582 19.0012 35.8736 19.2858 35.5218 19.2858ZM35.5218 14.4063H31.513C31.1613 14.4063 30.8766 14.1217 30.8766 13.77C30.8766 13.4183 31.1613 13.1336 31.513 13.1336H35.5218C35.8736 13.1336 36.1582 13.4183 36.1582 13.77C36.1582 14.1217 35.8736 14.4063 35.5218 14.4063ZM23.724 8.25417H35.5218C35.8736 8.25417 36.1582 8.53879 36.1582 8.89052C36.1582 9.24225 35.8736 9.52686 35.5218 9.52686H23.724C23.3722 9.52686 23.0876 9.24225 23.0876 8.89052C23.0876 8.53879 23.3722 8.25417 23.724 8.25417ZM14.9866 8.25417H19.7151C20.0668 8.25417 20.3515 8.53879 20.3515 8.89052C20.3515 9.24225 20.0668 9.52686 19.7151 9.52686H14.9866C14.6349 9.52686 14.3503 9.24225 14.3503 8.89052C14.3503 8.53879 14.6349 8.25417 14.9866 8.25417ZM14.9866 13.1336H27.4277C27.7794 13.1336 28.064 13.4183 28.064 13.77C28.064 14.1217 27.7794 14.4063 27.4277 14.4063H14.9866C14.6349 14.4063 14.3503 14.1217 14.3503 13.77C14.3503 13.4183 14.6349 13.1336 14.9866 13.1336ZM14.9866 18.0131H22.9795C23.3312 18.0131 23.6158 18.2977 23.6158 18.6495C23.6158 19.0012 23.3312 19.2858 22.9795 19.2858H14.9866C14.6349 19.2858 14.3503 19.0012 14.3503 18.6495C14.3503 18.2977 14.6349 18.0131 14.9866 18.0131Z" fill="white"/>
<path d="M41.9587 22.4616V20.3233C41.9587 19.2463 41.0825 18.3701 40.0049 18.3701H39.4829V22.4616H41.9587Z" fill="white"/>
<path d="M43.4222 23.7344H23.7844C23.0695 23.7344 22.4136 24.1244 22.0712 24.7527L21.1178 26.5128C20.5443 27.5556 19.4574 28.2012 18.2804 28.2012H6.5776C6.19604 28.2012 5.83437 28.3678 5.58642 28.658C5.33971 28.9463 5.23221 29.326 5.29124 29.6995L7.4358 43.6177C7.53461 44.2602 8.07587 44.7263 8.72216 44.7263H40.1896C40.8259 44.7263 41.3647 44.2745 41.4716 43.6519L44.7042 25.2594C44.7049 25.2587 44.7049 25.2587 44.7049 25.2581C44.7714 24.8815 44.6682 24.4962 44.4209 24.2011C44.1723 23.9046 43.8081 23.7344 43.4222 23.7344ZM31.0421 37.092C31.0421 37.4438 30.7575 37.7284 30.4057 37.7284H27.224V40.9101C27.224 41.2618 26.9394 41.5464 26.5877 41.5464H23.4059C23.0542 41.5464 22.7696 41.2618 22.7696 40.9101V37.7284H19.5879C19.2361 37.7284 18.9515 37.4438 18.9515 37.092V33.9109C18.9515 33.5592 19.2361 33.2746 19.5879 33.2746H22.7696V30.0929C22.7696 29.7411 23.0542 29.4565 23.4059 29.4565H26.5877C26.9394 29.4565 27.224 29.7411 27.224 30.0929V33.2746H30.4057C30.7575 33.2746 31.0421 33.5592 31.0421 33.9109V37.092Z" fill="white"/>
</svg>
