<svg width="50" height="50" viewBox="0 0 50 50" fill="none" xmlns="http://www.w3.org/2000/svg">
<path d="M12.6679 25.5085C12.6069 25.5695 12.5586 25.6418 12.5256 25.7215C12.4926 25.8011 12.4756 25.8865 12.4756 25.9727C12.4756 26.0589 12.4926 26.1442 12.5256 26.2239C12.5586 26.3035 12.6069 26.3759 12.6679 26.4368C13.1493 26.918 13.8021 27.1883 14.4828 27.1883C15.1634 27.1883 15.8162 26.918 16.2976 26.4368C16.3586 26.3759 16.4069 26.3035 16.4399 26.2239C16.4729 26.1443 16.4899 26.059 16.4899 25.9728C16.4899 25.8866 16.473 25.8013 16.44 25.7216C16.407 25.642 16.3587 25.5697 16.2978 25.5087C16.2368 25.4478 16.1645 25.3994 16.0849 25.3664C16.0053 25.3334 15.9199 25.3164 15.8338 25.3164C15.7476 25.3164 15.6622 25.3334 15.5826 25.3663C15.503 25.3993 15.4306 25.4476 15.3697 25.5085C15.1307 25.7367 14.8131 25.864 14.4828 25.864C14.1524 25.864 13.8348 25.7367 13.5958 25.5085C13.4728 25.3855 13.3059 25.3164 13.1319 25.3164C12.9578 25.3164 12.791 25.3855 12.6679 25.5085Z" fill="white"/>
<path d="M15.2435 12.7363V12.2264H15.753C15.9271 12.2264 16.094 12.1572 16.2171 12.0342C16.3402 11.9111 16.4093 11.7442 16.4093 11.5701C16.4093 11.3961 16.3402 11.2292 16.2171 11.1061C16.094 10.983 15.9271 10.9139 15.753 10.9139H15.2435V10.4043C15.2435 10.2302 15.1743 10.0633 15.0513 9.94026C14.9282 9.81719 14.7613 9.74805 14.5872 9.74805C14.4132 9.74805 14.2462 9.81719 14.1232 9.94026C14.0001 10.0633 13.931 10.2302 13.931 10.4043V10.9139H13.4214C13.2473 10.9139 13.0804 10.983 12.9573 11.1061C12.8343 11.2292 12.7651 11.3961 12.7651 11.5701C12.7651 11.7442 12.8343 11.9111 12.9573 12.0342C13.0804 12.1572 13.2473 12.2264 13.4214 12.2264H13.931V12.7363C13.931 12.9103 14.0001 13.0772 14.1232 13.2003C14.2462 13.3234 14.4132 13.3925 14.5872 13.3925C14.7613 13.3925 14.9282 13.3234 15.0513 13.2003C15.1743 13.0772 15.2435 12.9103 15.2435 12.7363Z" fill="white"/>
<path d="M42.9294 37.8665H42.3194V28.9638C42.8576 29.0609 43.4127 28.9836 43.9039 28.7432C44.395 28.5027 44.7965 28.1117 45.0499 27.627C45.3032 27.1424 45.3952 26.5895 45.3123 26.049C45.2294 25.5084 44.976 25.0085 44.5891 24.622L33.5191 13.5518C33.2809 13.3127 32.9978 13.1229 32.6861 12.9935C32.3743 12.8641 32.0401 12.7974 31.7026 12.7974C31.3651 12.7974 31.0309 12.8641 30.7192 12.9935C30.4074 13.1229 30.1243 13.3127 29.8861 13.5518L22.3986 21.0392V19.7402C22.3996 18.2923 22.003 16.872 21.2522 15.634V10.6554C21.2541 10.072 21.0687 9.50337 20.7232 9.03327C20.3777 8.56318 19.8903 8.21646 19.333 8.04418C16.174 7.0621 12.7913 7.0621 9.63227 8.04418C9.07487 8.21646 8.58753 8.56318 8.24202 9.03327C7.89651 9.50337 7.71109 10.072 7.71306 10.6554V15.6337C6.96215 16.8718 6.56558 18.2922 6.56659 19.7402V29.7595C6.56659 29.9335 6.63573 30.1005 6.7588 30.2235C6.88188 30.3466 7.0488 30.4157 7.22284 30.4157H11.5337V31.6009H8.75125C7.66545 31.6021 6.62448 32.0341 5.85676 32.8019C5.08904 33.5697 4.65729 34.6108 4.65625 35.6966V40.2739C4.65694 40.916 4.91233 41.5316 5.36637 41.9857C5.82041 42.4397 6.43603 42.6951 7.07814 42.6958H42.9294C43.5697 42.6958 44.1838 42.4414 44.6366 41.9887C45.0894 41.5359 45.3438 40.9218 45.3438 40.2815C45.3438 39.6411 45.0894 39.0271 44.6366 38.5743C44.1838 38.1215 43.5697 37.8671 42.9294 37.8671V37.8665ZM41.0069 37.8665H24.309V35.6966C24.3083 35.0057 24.1328 34.3263 23.7988 33.7216C23.4647 33.1169 22.9831 32.6065 22.3986 32.2381V28.3036L31.7029 18.9993L40.9577 28.2544C40.9735 28.2705 40.9905 28.2836 41.0069 28.299V37.8665ZM9.78977 32.9134H11.6125C11.7167 33.3646 11.9254 33.785 12.2218 34.1408C12.5181 34.4966 12.8939 34.7778 13.3187 34.9619L12.19 36.0903L9.78977 33.6898V32.9134ZM7.87909 22.3842C8.99692 22.2983 10.0856 21.9862 11.0792 21.4669C12.0728 20.9476 12.9506 20.2319 13.6593 19.3632L14.4826 18.3565L15.3062 19.3632C16.0148 20.2319 16.8926 20.9476 17.8861 21.4669C18.8797 21.9862 19.9683 22.2983 21.0861 22.3842V22.9653C21.0861 24.7167 20.3904 26.3963 19.152 27.6347C17.9136 28.8731 16.234 29.5688 14.4826 29.5688C12.7312 29.5688 11.0516 28.8731 9.81322 27.6347C8.57482 26.3963 7.87909 24.7167 7.87909 22.9653V22.3842ZM7.87909 19.7402C7.8782 18.5512 8.19858 17.3841 8.80637 16.3621C12.4944 15.1542 16.4715 15.1542 20.1595 16.3621C20.7673 17.3841 21.0877 18.5512 21.0868 19.7402V21.0678C20.164 20.9829 19.2674 20.7149 18.4493 20.2795C17.6313 19.8441 16.9082 19.2501 16.3224 18.532L14.9905 16.9049C14.929 16.8294 14.8514 16.7686 14.7635 16.7268C14.6755 16.685 14.5793 16.6633 14.482 16.6633C14.3846 16.6633 14.2884 16.685 14.2004 16.7268C14.1125 16.7686 14.0349 16.8294 13.9734 16.9049L12.6422 18.532C12.0563 19.2501 11.3333 19.8441 10.5152 20.2795C9.6972 20.7149 8.80058 20.9829 7.87778 21.0678L7.87909 19.7402ZM21.0861 27.7025V29.1032H19.4763C20.0994 28.5951 20.6421 27.9957 21.0861 27.3255V27.7025ZM14.4826 30.8827C15.0325 30.8827 15.5809 30.8254 16.119 30.7117V32.2539C16.119 32.6879 15.9466 33.1041 15.6397 33.411C15.3328 33.7179 14.9166 33.8903 14.4826 33.8903C14.0486 33.8903 13.6324 33.7179 13.3255 33.411C13.0187 33.1041 12.8462 32.6879 12.8462 32.2539V30.7117C13.3843 30.8254 13.9327 30.8827 14.4826 30.8827ZM17.3547 32.9134H19.1758V33.6904L16.7752 36.0903L15.6458 34.9613C16.0711 34.7776 16.4473 34.4965 16.7441 34.1408C17.0409 33.7852 17.2501 33.3647 17.3547 32.9134ZM20.2146 31.6009H17.4321V30.4157H21.0861V31.6954C20.7996 31.6327 20.5072 31.601 20.214 31.6009H20.2146ZM30.8131 14.4797C31.052 14.2503 31.3704 14.1222 31.7016 14.1222C32.0329 14.1222 32.3513 14.2503 32.5902 14.4797L43.6605 25.55C43.8902 25.7867 44.0177 26.1042 44.0153 26.4341C44.0128 26.7639 43.8808 27.0796 43.6476 27.3129C43.4144 27.5462 43.0987 27.6784 42.7689 27.6809C42.439 27.6834 42.1214 27.5561 41.8847 27.3264L32.1669 17.6071C32.0415 17.4885 31.8755 17.4224 31.7029 17.4224C31.5304 17.4224 31.3644 17.4885 31.239 17.6071L22.3986 26.4477V22.8951L30.8131 14.4797ZM9.02556 10.6551C9.02454 10.3516 9.12097 10.0559 9.30067 9.81141C9.48037 9.56691 9.73382 9.38657 10.0237 9.29696C12.9278 8.39413 16.0375 8.39413 18.9415 9.29696C19.2315 9.38654 19.485 9.56692 19.6647 9.81149C19.8444 10.0561 19.9408 10.3519 19.9397 10.6554V14.9164C16.3751 13.8822 12.5901 13.8822 9.02556 14.9164V10.6551ZM7.87909 27.3238C8.32321 27.994 8.86592 28.5933 9.48888 29.1016H7.87909V27.3238ZM5.96875 40.2733V35.6966C5.96962 35.0063 6.2267 34.341 6.69015 33.8294C7.15361 33.3179 7.79045 32.9966 8.47727 32.9279V33.9631C8.47722 34.1371 8.54626 34.304 8.66922 34.4271L11.726 37.4835C11.787 37.5445 11.8593 37.5929 11.939 37.6259C12.0186 37.6589 12.104 37.6759 12.1902 37.6759C12.2764 37.6759 12.3617 37.6589 12.4414 37.6259C12.521 37.5929 12.5934 37.5445 12.6543 37.4835L13.8264 36.3115V41.3833H7.07814C6.7839 41.383 6.50183 41.2659 6.29384 41.0578C6.08584 40.8496 5.96892 40.5675 5.96875 40.2733ZM15.1389 41.3827V36.3108L16.3113 37.4829C16.4343 37.6059 16.6012 37.675 16.7752 37.675C16.9492 37.675 17.1161 37.6059 17.2392 37.4829L20.296 34.4264C20.4191 34.3034 20.4882 34.1365 20.4883 33.9624V32.9272C21.1752 32.9961 21.812 33.3175 22.2754 33.8291C22.7388 34.3408 22.9958 35.0063 22.9965 35.6966V40.2739C22.9961 40.568 22.8791 40.85 22.6712 41.058C22.4632 41.266 22.1812 41.383 21.8871 41.3833L15.1389 41.3827ZM42.931 41.3827H24.0376C24.2158 41.04 24.3089 40.6595 24.309 40.2733V39.179H42.9294C43.2216 39.179 43.5019 39.2951 43.7085 39.5017C43.9152 39.7083 44.0312 39.9886 44.0312 40.2808C44.0312 40.573 43.9152 40.8533 43.7085 41.0599C43.5019 41.2666 43.2216 41.3827 42.9294 41.3827H42.931Z" fill="white"/>
<path d="M31.7026 24.8383C30.6433 24.8678 29.6162 25.2089 28.7497 25.8189C27.8832 26.4288 27.2158 27.2807 26.8308 28.268C26.4457 29.2552 26.3603 30.3341 26.585 31.3696C26.8098 32.4052 27.3348 33.3515 28.0945 34.0903C28.8541 34.8292 29.8147 35.3277 30.8561 35.5236C31.8975 35.7194 32.9736 35.604 33.9497 35.1917C34.9259 34.7794 35.7589 34.0885 36.3446 33.2054C36.9302 32.3223 37.2426 31.2861 37.2426 30.2265C37.2206 28.7779 36.625 27.3972 35.5864 26.3871C34.5479 25.3771 33.1512 24.8201 31.7026 24.8383ZM31.7026 34.3021C30.9029 34.2728 30.1294 34.0089 29.4786 33.5432C28.8278 33.0775 28.3284 32.4307 28.0426 31.6832C27.7568 30.9358 27.6972 30.1208 27.8712 29.3397C28.0452 28.5586 28.4452 27.8459 29.0213 27.2905C29.5974 26.7351 30.3242 26.3615 31.1112 26.2161C31.8981 26.0708 32.7104 26.1602 33.4469 26.4732C34.1834 26.7861 34.8115 27.3089 35.2531 27.9763C35.6947 28.6437 35.9301 29.4262 35.9301 30.2265C35.9094 31.3274 35.4525 32.375 34.6598 33.1392C33.8671 33.9034 32.8035 34.3217 31.7026 34.3021Z" fill="white"/>
<path d="M33.2204 29.8105H32.3591V28.9492C32.3591 28.7752 32.2899 28.6083 32.1668 28.4852C32.0438 28.3621 31.8769 28.293 31.7028 28.293C31.5288 28.293 31.3618 28.3621 31.2388 28.4852C31.1157 28.6083 31.0466 28.7752 31.0466 28.9492V29.8105H30.1846C30.0105 29.8105 29.8436 29.8797 29.7205 30.0028C29.5975 30.1258 29.5283 30.2927 29.5283 30.4668C29.5283 30.6408 29.5975 30.8078 29.7205 30.9308C29.8436 31.0539 30.0105 31.123 30.1846 31.123H31.0456V31.984C31.0456 32.1581 31.1147 32.325 31.2378 32.4481C31.3609 32.5712 31.5278 32.6403 31.7018 32.6403C31.8759 32.6403 32.0428 32.5712 32.1659 32.4481C32.2889 32.325 32.3581 32.1581 32.3581 31.984V31.123H33.2194C33.3934 31.123 33.5604 31.0539 33.6834 30.9308C33.8065 30.8078 33.8756 30.6408 33.8756 30.4668C33.8756 30.2927 33.8065 30.1258 33.6834 30.0028C33.5604 29.8797 33.3934 29.8105 33.2194 29.8105H33.2204Z" fill="white"/>
<path d="M12.7939 23.6932C12.968 23.6932 13.1349 23.624 13.258 23.501C13.3811 23.3779 13.4502 23.211 13.4502 23.0369V22.5264C13.4502 22.3523 13.3811 22.1854 13.258 22.0623C13.1349 21.9393 12.968 21.8701 12.7939 21.8701C12.6199 21.8701 12.453 21.9393 12.3299 22.0623C12.2068 22.1854 12.1377 22.3523 12.1377 22.5264V23.0369C12.1377 23.211 12.2068 23.3779 12.3299 23.501C12.453 23.624 12.6199 23.6932 12.7939 23.6932Z" fill="white"/>
<path d="M16.1714 23.6932C16.3454 23.6932 16.5124 23.624 16.6354 23.501C16.7585 23.3779 16.8276 23.211 16.8276 23.0369V22.5264C16.8276 22.3523 16.7585 22.1854 16.6354 22.0623C16.5124 21.9393 16.3454 21.8701 16.1714 21.8701C15.9973 21.8701 15.8304 21.9393 15.7073 22.0623C15.5843 22.1854 15.5151 22.3523 15.5151 22.5264V23.0369C15.5151 23.211 15.5843 23.3779 15.7073 23.501C15.8304 23.624 15.9973 23.6932 16.1714 23.6932Z" fill="white"/>
</svg>
