<svg width="50" height="50" viewBox="0 0 50 50" fill="none" xmlns="http://www.w3.org/2000/svg">
<path d="M19.5647 30.9479C19.8181 31.2032 19.9603 31.5484 19.9603 31.9081C19.9603 32.2678 19.8181 32.6129 19.5647 32.8682L18.1228 34.3124L16.2024 32.3922L17.6444 30.9479C17.8997 30.6945 18.2448 30.5524 18.6046 30.5524C18.9643 30.5524 19.3094 30.6945 19.5647 30.9479ZM13.9557 34.6367C13.7654 34.8264 13.6358 35.0683 13.5833 35.3318C13.5308 35.5953 13.5577 35.8684 13.6607 36.1165C13.7637 36.3647 13.9381 36.5766 14.1618 36.7255C14.3854 36.8743 14.6483 36.9533 14.9169 36.9525C15.095 36.9533 15.2714 36.9187 15.436 36.8508C15.6007 36.7829 15.7502 36.683 15.8759 36.557L17.3201 35.115L15.3999 33.1946L13.9557 34.6367ZM18.5321 10.4665C18.5324 9.18739 18.912 7.93706 19.6228 6.87362C20.3336 5.81018 21.3438 4.98139 22.5257 4.49204C23.7075 4.00268 25.0079 3.87474 26.2624 4.12438C27.517 4.37402 28.6693 4.99004 29.5738 5.89455C30.4783 6.79906 31.0942 7.95144 31.3438 9.206C31.5934 10.4606 31.4654 11.7609 30.976 12.9427C30.4865 14.1245 29.6577 15.1347 28.5942 15.8455C27.5308 16.5563 26.2804 16.9358 25.0013 16.936C23.2864 16.933 21.6426 16.2504 20.4301 15.0378C19.2175 13.8252 18.535 12.1814 18.5321 10.4665ZM21.6276 11.8118H23.6559V13.8402H26.3465V11.8118H28.3727V9.12121H26.3465V7.09504H23.6559V9.12121H21.6276V11.8118ZM23.265 28.7701V38.7369H9.68964V28.7701H23.265ZM21.0963 31.9092C21.0955 31.4167 20.9489 30.9354 20.675 30.5261C20.401 30.1167 20.012 29.7976 19.557 29.609C19.102 29.4204 18.6014 29.3707 18.1182 29.4662C17.635 29.5617 17.1908 29.7981 16.8418 30.1456L14.9974 31.9899L13.153 33.8344C12.6891 34.3015 12.428 34.9325 12.4263 35.5907C12.4246 36.249 12.6824 36.8814 13.1438 37.3508L13.1623 37.3715C13.6316 37.8333 14.2643 38.0911 14.9228 38.089C15.5812 38.0868 16.2122 37.8248 16.6785 37.36L20.3673 33.6712C20.5988 33.4399 20.7823 33.1652 20.9074 32.8629C21.0325 32.5605 21.0967 32.2365 21.0963 31.9092ZM41.9642 43.148H8.03843C7.66039 43.149 7.29809 43.2995 7.03056 43.5666C6.76303 43.8337 6.61197 44.1958 6.61035 44.5738V45.9997H43.39V44.5738C43.3889 44.196 43.2383 43.834 42.9711 43.5668C42.704 43.2997 42.342 43.1491 41.9642 43.148ZM42.2195 13.6126H31.9236C31.3191 14.9417 30.3448 16.0687 29.1171 16.859C27.8894 17.6494 26.4602 18.0696 25.0001 18.0696C23.54 18.0696 22.1108 17.6494 20.8831 16.859C19.6554 16.0687 18.6812 14.9417 18.0767 13.6126H7.78086V19.3964H42.2194L42.2195 13.6126ZM9.68964 42.012H27.0526V30.527C27.0526 30.4524 27.0673 30.3785 27.0958 30.3096C27.1244 30.2407 27.1662 30.1781 27.219 30.1253C27.2717 30.0726 27.3343 30.0307 27.4033 30.0022C27.4722 29.9737 27.5461 29.959 27.6207 29.959H37.5647C37.7152 29.9594 37.8595 30.0193 37.966 30.1257C38.0724 30.2322 38.1324 30.3765 38.1327 30.527V42.012H40.3129V25.4952H9.68964V27.634H23.833C23.9835 27.6344 24.1278 27.6943 24.2343 27.8007C24.3407 27.9072 24.4007 28.0515 24.401 28.202V39.3029C24.4011 39.3775 24.3864 39.4514 24.3578 39.5203C24.3293 39.5892 24.2875 39.6518 24.2347 39.7046C24.1819 39.7573 24.1193 39.7992 24.0504 39.8277C23.9815 39.8562 23.9076 39.8709 23.833 39.8709H9.68964V42.012ZM33.1607 42.012V31.0951H36.9967V42.012H33.1607ZM33.6506 37.5711C33.6497 37.6463 33.6637 37.7209 33.6918 37.7906C33.72 37.8603 33.7617 37.9237 33.8145 37.9772C33.8673 38.0307 33.9303 38.0731 33.9996 38.1021C34.069 38.1311 34.1434 38.146 34.2186 38.146C34.2938 38.146 34.3682 38.1311 34.4376 38.1021C34.5069 38.0731 34.5698 38.0307 34.6227 37.9772C34.6755 37.9237 34.7172 37.8603 34.7453 37.7906C34.7735 37.7209 34.7875 37.6463 34.7866 37.5711V36.1039C34.7875 36.0287 34.7735 35.9541 34.7453 35.8844C34.7172 35.8147 34.6755 35.7513 34.6227 35.6978C34.5698 35.6444 34.5069 35.6019 34.4376 35.5729C34.3682 35.5439 34.2938 35.529 34.2186 35.529C34.1434 35.529 34.069 35.5439 33.9996 35.5729C33.9303 35.6019 33.8673 35.6444 33.8145 35.6978C33.7617 35.7513 33.72 35.8147 33.6918 35.8844C33.6637 35.9541 33.6497 36.0287 33.6506 36.1039V37.5711ZM6.61035 20.5301V24.3592H43.39V20.5301H6.61035ZM28.1887 42.012V31.0951H32.0246V42.012H28.1887ZM30.3964 37.5711C30.3964 37.7218 30.4562 37.8663 30.5628 37.9728C30.6693 38.0793 30.8138 38.1392 30.9644 38.1392C31.1151 38.1392 31.2596 38.0793 31.3661 37.9728C31.4727 37.8663 31.5325 37.7218 31.5325 37.5711V36.1039C31.5325 35.9533 31.4727 35.8088 31.3661 35.7022C31.2596 35.5957 31.1151 35.5358 30.9644 35.5358C30.8138 35.5358 30.6693 35.5957 30.5628 35.7022C30.4562 35.8088 30.3964 35.9533 30.3964 36.1039V37.5711Z" fill="white"/>
</svg>
