<svg width="50" height="50" viewBox="0 0 50 50" fill="none" xmlns="http://www.w3.org/2000/svg">
<path fill-rule="evenodd" clip-rule="evenodd" d="M22.2965 14.6018C22.7462 13.9383 23.4411 13.4806 24.2282 13.3294C25.0154 13.1782 25.8303 13.3459 26.4939 13.7955C30.4849 16.4983 32.8376 20.5422 33.5298 25.2742H27.3715C26.9064 23.0854 25.9016 21.1829 24.2285 19.6786L22.7123 22.6548C22.6041 22.8655 22.4597 23.0554 22.2858 23.2161L16.3318 28.7592C16.1383 28.9434 15.9102 29.0874 15.6607 29.1828C15.4112 29.2782 15.1453 29.3232 14.8783 29.3151C14.6113 29.3071 14.3485 29.2461 14.1053 29.1357C13.862 29.0254 13.6431 28.8679 13.4611 28.6723C13.2792 28.4767 13.1378 28.247 13.0453 27.9964C12.9527 27.7458 12.9108 27.4794 12.922 27.2125C12.9332 26.9456 12.9972 26.6836 13.1104 26.4416C13.2235 26.1996 13.3836 25.9825 13.5813 25.8028L19.2669 20.5093L22.2968 14.6018H22.2965ZM42.2266 44.5147H44.6875V32.575C44.6849 30.9441 44.0358 29.3808 42.8826 28.2275C41.7294 27.0743 40.1661 26.4253 38.5352 26.4227H20.5267L17.8835 28.8836H38.5352C39.5134 28.886 40.4509 29.2757 41.1427 29.9675C41.8344 30.6592 42.2241 31.5967 42.2266 32.575V44.5147ZM12.2238 28.8836H11.4648C10.4866 28.886 9.54905 29.2757 8.8573 29.9675C8.16556 30.6592 7.77586 31.5967 7.77344 32.575V44.5147H5.3125V32.575C5.31512 30.9441 5.96416 29.3808 7.11738 28.2275C8.2706 27.0743 9.83395 26.4253 11.4648 26.4227H11.9078C11.7926 26.8331 11.7612 27.2625 11.8155 27.6853C11.8699 28.1081 12.0088 28.5156 12.224 28.8836H12.2238ZM18.7515 5.3125C17.9571 5.31248 17.1804 5.54805 16.5199 5.98942C15.8593 6.43078 15.3444 7.05812 15.0404 7.7921C14.7364 8.52607 14.6568 9.33372 14.8118 10.1129C14.9668 10.8921 15.3493 11.6078 15.9111 12.1696C16.4728 12.7314 17.1886 13.114 17.9678 13.269C18.747 13.424 19.5546 13.3444 20.2886 13.0404C21.0226 12.7364 21.6499 12.2215 22.0913 11.561C22.5327 10.9004 22.7683 10.1238 22.7683 9.32932C22.7683 8.26401 22.3451 7.24233 21.5918 6.48903C20.8385 5.73573 19.8168 5.31252 18.7515 5.3125ZM33.6848 30.032V41.6523C33.6848 42.4574 33.365 43.2294 32.7958 43.7987C32.2265 44.3679 31.4544 44.6877 30.6494 44.6877C29.8444 44.6877 29.0723 44.3679 28.5031 43.7987C27.9338 43.2294 27.614 42.4574 27.614 41.6523V30.032H33.6848Z" fill="white"/>
</svg>
