<svg width="72" height="66" viewBox="0 0 72 66" fill="none" xmlns="http://www.w3.org/2000/svg">
<path d="M35.9993 65.25C34.9243 65.25 33.8947 65.0565 32.9105 64.6695C31.9263 64.2825 31.0448 63.6996 30.266 62.9208L6.25768 38.8229C4.1674 36.7326 2.63015 34.3438 1.64593 31.6563C0.66171 28.9688 0.168405 26.1618 0.166016 23.2354C0.166016 17.084 2.16671 11.7986 6.1681 7.37917C10.1695 2.95972 15.1563 0.75 21.1285 0.75C23.9952 0.75 26.6982 1.31736 29.2376 2.45208C31.777 3.58681 34.0309 5.16945 35.9993 7.2C37.9105 5.16945 40.1357 3.58681 42.6751 2.45208C45.2145 1.31736 47.9163 0.75 50.7806 0.75C56.7528 0.75 61.7552 2.95972 65.7876 7.37917C69.82 11.7986 71.8351 17.0542 71.8327 23.1458C71.8327 26.0722 71.325 28.8792 70.3098 31.5667C69.2945 34.2542 67.7716 36.6431 65.741 38.7333L41.6431 62.9208C40.8667 63.6972 40.0007 64.2801 39.0452 64.6695C38.0896 65.0589 37.0743 65.2524 35.9993 65.25ZM39.5827 18.6667C40.1799 18.6667 40.7473 18.816 41.2848 19.1146C41.8223 19.4132 42.2403 19.8014 42.5389 20.2792L48.6306 29.4167H63.5014C63.9195 28.4014 64.2336 27.3718 64.4438 26.3278C64.6541 25.2839 64.758 24.2232 64.7556 23.1458C64.6362 19.025 63.2625 15.4859 60.6348 12.5284C58.007 9.57097 54.7223 8.09345 50.7806 8.09583C48.9292 8.09583 47.1531 8.45417 45.4522 9.17083C43.7513 9.8875 42.2726 10.9326 41.016 12.3063L38.5973 14.9042C38.2987 15.2625 37.9105 15.5468 37.4327 15.757C36.9549 15.9672 36.4771 16.0711 35.9993 16.0688C35.5216 16.0664 35.0438 15.9624 34.566 15.757C34.0882 15.5516 33.6702 15.2673 33.3118 14.9042L30.8931 12.3063C29.6389 10.9326 28.1757 9.85764 26.5035 9.08125C24.8313 8.30486 23.0396 7.91667 21.1285 7.91667C17.1868 7.91667 13.9021 9.42525 11.2743 12.4424C8.64657 15.4596 7.33268 19.0274 7.33268 23.1458C7.33268 24.2208 7.42226 25.2815 7.60143 26.3278C7.7806 27.3742 8.07921 28.4038 8.49726 29.4167H25.2493C25.8466 29.4167 26.4139 29.566 26.9514 29.8646C27.4889 30.1632 27.907 30.5514 28.2056 31.0292L31.341 35.6875L36.1785 21.175C36.4174 20.4583 36.8498 19.8611 37.4757 19.3833C38.1016 18.9056 38.8039 18.6667 39.5827 18.6667ZM40.6577 30.3125L35.8202 44.825C35.5813 45.5417 35.1334 46.1389 34.4764 46.6167C33.8195 47.0944 33.1028 47.3333 32.3264 47.3333C31.7292 47.3333 31.1618 47.184 30.6243 46.8854C30.0868 46.5868 29.6688 46.1986 29.3702 45.7208L23.2785 36.5833H14.141L35.3723 57.8146C35.4917 57.934 35.5968 58.0093 35.6876 58.0403C35.7784 58.0714 35.8823 58.0857 35.9993 58.0833C36.1164 58.0809 36.2215 58.0666 36.3147 58.0403C36.4078 58.0141 36.5118 57.9388 36.6264 57.8146L57.7681 36.5833H46.7493C46.1521 36.5833 45.5848 36.434 45.0473 36.1354C44.5098 35.8368 44.0618 35.4486 43.7035 34.9708L40.6577 30.3125Z" fill="white"/>
</svg>
