<svg width="62" height="70" viewBox="0 0 62 70" fill="none" xmlns="http://www.w3.org/2000/svg">
<path d="M30.9285 3L58.857 19.125V47.2363C58.857 48.4942 58.5258 49.73 57.8968 50.8195C57.2678 51.9089 56.3631 52.8136 55.2737 53.4426L34.5118 65.4324C33.4224 66.0614 32.1865 66.3926 30.9285 66.3926C29.6705 66.3926 28.4346 66.0614 27.3452 65.4324L6.58333 53.4426C5.49389 52.8136 4.5892 51.9089 3.9602 50.8195C3.33119 49.73 3.00003 48.4942 3 47.2363V19.125L30.9285 3Z" stroke="white" stroke-width="6" stroke-linecap="round" stroke-linejoin="round"/>
<path d="M30.9279 17.3334V35.25M30.9279 35.25L15.4121 44.2084M30.9279 35.25L46.4438 44.2084" stroke="white" stroke-width="6" stroke-linecap="round" stroke-linejoin="round"/>
</svg>
