<svg width="66" height="66" viewBox="0 0 66 66" fill="none" xmlns="http://www.w3.org/2000/svg">
<path d="M33 0.75C33.8777 0.750116 34.7248 1.07234 35.3807 1.65556C36.0365 2.23878 36.4556 3.04243 36.5583 3.91408L36.5833 4.33333V61.6667C36.5823 62.58 36.2326 63.4585 35.6056 64.1226C34.9787 64.7867 34.1217 65.1863 33.21 65.2399C32.2983 65.2934 31.4005 64.9968 30.7001 64.4106C29.9997 63.8244 29.5496 62.9928 29.4417 62.0859L29.4167 61.6667V4.33333C29.4167 3.38297 29.7942 2.47154 30.4662 1.79953C31.1382 1.12753 32.0496 0.75 33 0.75ZM18.6667 11.5C19.5443 11.5001 20.3915 11.8223 21.0473 12.4056C21.7032 12.9888 22.1222 13.7924 22.2249 14.6641L22.25 15.0833V50.9167C22.249 51.83 21.8993 52.7085 21.2723 53.3726C20.6453 54.0367 19.7884 54.4363 18.8767 54.4899C17.9649 54.5434 17.0671 54.2468 16.3668 53.6606C15.6664 53.0744 15.2163 52.2428 15.1084 51.3359L15.0833 50.9167V15.0833C15.0833 14.133 15.4609 13.2215 16.1329 12.5495C16.8049 11.8775 17.7163 11.5 18.6667 11.5ZM47.3333 11.5C48.211 11.5001 49.0581 11.8223 49.714 12.4056C50.3699 12.9888 50.7889 13.7924 50.8916 14.6641L50.9167 15.0833V50.9167C50.9157 51.83 50.5659 52.7085 49.939 53.3726C49.312 54.0367 48.4551 54.4363 47.5433 54.4899C46.6316 54.5434 45.7338 54.2468 45.0334 53.6606C44.3331 53.0744 43.883 52.2428 43.7751 51.3359L43.75 50.9167V15.0833C43.75 14.133 44.1275 13.2215 44.7995 12.5495C45.4715 11.8775 46.383 11.5 47.3333 11.5ZM4.33333 22.25C5.21101 22.2501 6.05812 22.5723 6.714 23.1556C7.36987 23.7388 7.7889 24.5424 7.89158 25.4141L7.91667 25.8333V40.1667C7.91565 41.08 7.56593 41.9585 6.93896 42.6226C6.31199 43.2867 5.45508 43.6863 4.54334 43.7399C3.63159 43.7934 2.73381 43.4968 2.03343 42.9106C1.33306 42.3244 0.882955 41.4928 0.775083 40.5859L0.75 40.1667V25.8333C0.75 24.883 1.12753 23.9715 1.79953 23.2995C2.47154 22.6275 3.38297 22.25 4.33333 22.25ZM61.6667 22.25C62.5443 22.2501 63.3915 22.5723 64.0473 23.1556C64.7032 23.7388 65.1222 24.5424 65.2249 25.4141L65.25 25.8333V40.1667C65.249 41.08 64.8993 41.9585 64.2723 42.6226C63.6453 43.2867 62.7884 43.6863 61.8767 43.7399C60.9649 43.7934 60.0671 43.4968 59.3668 42.9106C58.6664 42.3244 58.2163 41.4928 58.1084 40.5859L58.0833 40.1667V25.8333C58.0833 24.883 58.4609 23.9715 59.1329 23.2995C59.8049 22.6275 60.7163 22.25 61.6667 22.25Z" fill="white"/>
</svg>
