<svg width="54" height="62" viewBox="0 0 54 62" fill="none" xmlns="http://www.w3.org/2000/svg">
<path d="M22.5211 56.9791V38.8295L6.75444 47.9384C5.67466 48.5452 4.53994 48.6849 3.35027 48.3576C2.16061 48.0303 1.26238 47.3137 0.655606 46.2076C0.0488278 45.1422 -0.102866 44.0122 0.200523 42.8178C0.503912 41.6234 1.19549 40.7275 2.27527 40.1303L18.0419 31L2.27527 21.9592C1.19549 21.3668 0.503912 20.4685 0.200523 19.2645C-0.102866 18.0605 0.0488278 16.9187 0.655606 15.8389C1.26238 14.7591 2.17255 14.0568 3.38611 13.7319C4.59966 13.407 5.74633 13.5467 6.82611 14.1511L22.5211 23.2635V5.02079C22.5211 3.78335 22.9571 2.72746 23.829 1.85313C24.701 0.978792 25.7545 0.541626 26.9895 0.541626C28.2246 0.541626 29.2817 0.978792 30.1608 1.85313C31.0399 2.72746 31.4794 3.78335 31.4794 5.02079V23.26L47.2461 14.1511C48.3259 13.5443 49.4606 13.4046 50.6503 13.7319C51.8399 14.0592 52.7382 14.7615 53.3449 15.8389C53.9517 16.9163 54.0951 18.0582 53.7749 19.2645C53.4548 20.4709 52.7644 21.3692 51.7038 21.9592L35.9586 31L51.7253 40.1303C52.8074 40.7275 53.499 41.6234 53.8 42.8178C54.1034 44.0122 53.9517 45.1637 53.3449 46.2721C52.7382 47.3376 51.828 48.0327 50.6144 48.3576C49.4033 48.6849 48.2566 48.5452 47.1744 47.9384L31.4794 38.826V56.9791C31.4794 58.2166 31.0435 59.2725 30.1715 60.1468C29.2996 61.0211 28.2461 61.4583 27.011 61.4583C25.776 61.4583 24.7189 61.0211 23.8398 60.1468C22.9607 59.2725 22.5211 58.2166 22.5211 56.9791Z" fill="white"/>
</svg>
