<svg width="70" height="74" viewBox="0 0 70 74" fill="none" xmlns="http://www.w3.org/2000/svg">
<path fill-rule="evenodd" clip-rule="evenodd" d="M27.9248 0.820215C28.7711 0.744774 29.6203 0.706196 30.4701 0.70459C31.3688 0.70459 32.2353 0.752382 33.0169 0.820215C34.3807 0.930906 35.6472 1.5705 36.5458 2.60238C49.9968 5.08292 61.069 16.3849 61.6287 30.2028L67.9618 38.2658C69.0167 39.6079 69.59 41.2654 69.5898 42.9725C69.5898 45.971 67.8169 48.7845 64.9078 49.9254C63.7793 50.3694 62.3887 50.8905 60.9889 51.3437L59.5752 60.7957C59.3098 62.5852 58.3467 64.1969 56.8965 65.2785C55.4463 66.3601 53.6269 66.8236 51.836 66.5677L48.5214 66.0928V70.0858C48.5214 70.9035 48.1966 71.6878 47.6183 72.266C47.0401 72.8442 46.2558 73.1691 45.4381 73.1691C44.6203 73.1691 43.8361 72.8442 43.2578 72.266C42.6796 71.6878 42.3548 70.9035 42.3548 70.0858V62.5362C42.3547 62.0944 42.4496 61.6578 42.6331 61.2559C42.8165 60.854 43.0842 60.4962 43.4179 60.2067C43.7517 59.9172 44.1437 59.7029 44.5675 59.5781C44.9914 59.4534 45.437 59.4212 45.8744 59.4837L52.7117 60.4642C52.7999 60.4764 52.8898 60.471 52.976 60.4485C53.0622 60.4259 53.1431 60.3866 53.2141 60.3328C53.2851 60.279 53.3448 60.2117 53.3898 60.1348C53.4348 60.0579 53.4642 59.9728 53.4763 59.8846L55.1799 48.4947C55.2688 47.8999 55.5296 47.3441 55.9304 46.8957C56.3311 46.4473 56.8542 46.1259 57.4353 45.971C59.0818 45.5332 61.0536 44.8148 62.6523 44.1858C63.0809 44.0177 63.4232 43.5691 63.4232 42.9725C63.4243 42.6467 63.3157 42.3301 63.1148 42.0737L56.1419 33.2014C55.7149 32.6585 55.4826 31.9881 55.482 31.2974C55.482 21.1933 48.0096 12.244 38.0088 9.28397C38.0335 10.71 38.0504 12.3843 38.0504 14.3221C38.0504 15.7605 38.0412 18.0961 38.0273 19.6285C40.102 21.0129 41.7568 22.9403 42.8114 25.2005C43.866 27.4608 44.2799 29.9671 44.008 32.4464C43.736 34.9257 42.7887 37.2828 41.2692 39.2607C39.7498 41.2386 37.7165 42.7614 35.391 43.6631C39.2159 46.987 44.0722 49.0112 48.5862 49.0112C48.9911 49.0112 49.392 49.0909 49.7661 49.2459C50.1402 49.4008 50.4801 49.6279 50.7664 49.9143C51.0527 50.2006 51.2799 50.5405 51.4348 50.9146C51.5898 51.2887 51.6695 51.6896 51.6695 52.0945C51.6695 52.4994 51.5898 52.9004 51.4348 53.2744C51.2799 53.6485 51.0527 53.9884 50.7664 54.2748C50.4801 54.5611 50.1402 54.7882 49.7661 54.9431C49.392 55.0981 48.9911 55.1778 48.5862 55.1778C40.8948 55.1778 33.1248 51.0385 28.102 45.0105C27.9191 44.791 27.7676 44.5472 27.6519 44.286C25.0302 43.7295 22.6308 42.4121 20.7542 40.4987C18.8775 38.5853 17.6069 36.1609 17.1013 33.5289C16.5958 30.8969 16.8778 28.1742 17.9121 25.7017C18.9463 23.2292 20.6869 21.1167 22.9159 19.6285C22.9003 17.8598 22.892 16.091 22.8912 14.3221C22.8933 12.5245 22.9056 10.9485 22.9282 9.59384C13.2959 12.9146 6.38151 22.0505 6.38151 32.7913C6.38151 42.1076 11.5569 50.8843 19.0186 55.0329C19.4989 55.3001 19.8992 55.6908 20.1778 56.1646C20.4565 56.6384 20.6034 57.1781 20.6034 57.7278V70.0842C20.6034 70.902 20.2785 71.6862 19.7003 72.2645C19.1221 72.8427 18.3378 73.1675 17.5201 73.1675C16.7023 73.1675 15.918 72.8427 15.3398 72.2645C14.7616 71.6862 14.4367 70.902 14.4367 70.0842V59.4714C5.82343 53.9013 0.214844 43.5938 0.214844 32.7913C0.214844 18.1455 10.4793 5.90463 24.2047 2.83209C24.651 2.25675 25.2123 1.78071 25.8528 1.43431C26.4933 1.08792 27.199 0.878778 27.9248 0.820215Z" fill="white"/>
</svg>
