<svg width="62" height="74" viewBox="0 0 62 74" fill="none" xmlns="http://www.w3.org/2000/svg">
<path d="M3.05039 0.599976C2.48018 0.599976 1.93331 0.826493 1.53011 1.2297C1.12691 1.6329 0.900391 2.17976 0.900391 2.74998V13.5C0.900391 15.7808 1.80646 17.9683 3.41927 19.5811C5.03208 21.1939 7.21953 22.1 9.50039 22.1H52.5004C54.7813 22.1 56.9687 21.1939 58.5815 19.5811C60.1943 17.9683 61.1004 15.7808 61.1004 13.5V2.74998C61.1004 2.17976 60.8739 1.6329 60.4707 1.2297C60.0675 0.826493 59.5206 0.599976 58.9504 0.599976H3.05039ZM33.1504 35H50.3504C52.061 35 53.7016 34.3204 54.9112 33.1108C56.1208 31.9012 56.8004 30.2606 56.8004 28.55V26.4H5.20039V28.55C5.20039 30.2606 5.87994 31.9012 7.08955 33.1108C8.29916 34.3204 9.93974 35 11.6504 35H28.8504V45.75C28.8504 46.3202 29.0769 46.8671 29.4801 47.2703C29.8833 47.6735 30.4302 47.9 31.0004 47.9C31.5706 47.9 32.1175 47.6735 32.5207 47.2703C32.9239 46.8671 33.1504 46.3202 33.1504 45.75V35ZM9.50039 54.35C9.50039 53.7798 9.72691 53.2329 10.1301 52.8297C10.5333 52.4265 11.0802 52.2 11.6504 52.2H18.1004C18.6706 52.2 19.2175 52.4265 19.6207 52.8297C20.0239 53.2329 20.2504 53.7798 20.2504 54.35C20.2504 54.9202 20.0239 55.467 19.6207 55.8703C19.2175 56.2735 18.6706 56.5 18.1004 56.5H11.6504C11.0802 56.5 10.5333 56.2735 10.1301 55.8703C9.72691 55.467 9.50039 54.9202 9.50039 54.35ZM43.9004 52.2C43.3302 52.2 42.7833 52.4265 42.3801 52.8297C41.9769 53.2329 41.7504 53.7798 41.7504 54.35C41.7504 54.9202 41.9769 55.467 42.3801 55.8703C42.7833 56.2735 43.3302 56.5 43.9004 56.5H50.3504C50.9206 56.5 51.4675 56.2735 51.8707 55.8703C52.2739 55.467 52.5004 54.9202 52.5004 54.35C52.5004 53.7798 52.2739 53.2329 51.8707 52.8297C51.4675 52.4265 50.9206 52.2 50.3504 52.2H43.9004ZM33.1504 54.35C33.1504 54.9202 32.9239 55.467 32.5207 55.8703C32.1175 56.2735 31.5706 56.5 31.0004 56.5C30.4302 56.5 29.8833 56.2735 29.4801 55.8703C29.0769 55.467 28.8504 54.9202 28.8504 54.35C28.8504 53.7798 29.0769 53.2329 29.4801 52.8297C29.8833 52.4265 30.4302 52.2 31.0004 52.2C31.5706 52.2 32.1175 52.4265 32.5207 52.8297C32.9239 53.2329 33.1504 53.7798 33.1504 54.35ZM33.1504 62.95C33.1504 62.3798 32.9239 61.8329 32.5207 61.4297C32.1175 61.0265 31.5706 60.8 31.0004 60.8C30.4302 60.8 29.8833 61.0265 29.4801 61.4297C29.0769 61.8329 28.8504 62.3798 28.8504 62.95V71.55C28.8504 72.1202 29.0769 72.667 29.4801 73.0703C29.8833 73.4735 30.4302 73.7 31.0004 73.7C31.5706 73.7 32.1175 73.4735 32.5207 73.0703C32.9239 72.667 33.1504 72.1202 33.1504 71.55V62.95ZM26.0726 57.1278C26.2728 57.3275 26.4317 57.5647 26.5401 57.826C26.6484 58.0872 26.7042 58.3672 26.7042 58.65C26.7042 58.9328 26.6484 59.2128 26.5401 59.474C26.4317 59.7352 26.2728 59.9725 26.0726 60.1722L19.6226 66.6222C19.2189 67.0259 18.6713 67.2527 18.1004 67.2527C17.5295 67.2527 16.9819 67.0259 16.5782 66.6222C16.1745 66.2185 15.9477 65.6709 15.9477 65.1C15.9477 64.529 16.1745 63.9815 16.5782 63.5778L23.0282 57.1278C23.2279 56.9276 23.4652 56.7687 23.7264 56.6603C23.9876 56.5519 24.2676 56.4961 24.5504 56.4961C24.8332 56.4961 25.1132 56.5519 25.3744 56.6603C25.6356 56.7687 25.8729 56.9276 26.0726 57.1278ZM35.9282 60.1722C35.5245 59.7685 35.2977 59.2209 35.2977 58.65C35.2977 58.079 35.5245 57.5315 35.9282 57.1278C36.3319 56.7241 36.8795 56.4973 37.4504 56.4973C38.0213 56.4973 38.5689 56.7241 38.9726 57.1278L45.4226 63.5778C45.8263 63.9815 46.0531 64.529 46.0531 65.1C46.0531 65.6709 45.8263 66.2185 45.4226 66.6222C45.0189 67.0259 44.4713 67.2527 43.9004 67.2527C43.3295 67.2527 42.7819 67.0259 42.3782 66.6222L35.9282 60.1722Z" fill="white"/>
</svg>
